<svg width="35" height="35" viewBox="0 0 35 35" fill="none" xmlns="http://www.w3.org/2000/svg">
<path d="M17.5 35C12.8251 35 8.43111 33.1791 5.1251 29.874C1.82 26.5689 0 22.174 0 17.5C0 12.8251 1.82 8.43111 5.1251 5.1251C8.43111 1.82 12.8251 0 17.5 0C22.174 0 26.5689 1.82 29.874 5.1251C33.1791 8.43111 35 12.8251 35 17.5C35 22.174 33.1791 26.5689 29.874 29.874C26.5689 33.1791 22.174 35 17.5 35ZM17.5 1.13281C13.128 1.13281 9.01765 2.83569 5.92667 5.92667C2.83569 9.01765 1.13281 13.128 1.13281 17.5C1.13281 21.8711 2.83569 25.9814 5.92667 29.0724C9.01765 32.1643 13.128 33.8663 17.5 33.8663C21.8711 33.8663 25.9814 32.1643 29.0724 29.0724C32.1643 25.9814 33.8663 21.8711 33.8663 17.5C33.8663 13.128 32.1643 9.01765 29.0724 5.92667C25.9814 2.83569 21.8711 1.13281 17.5 1.13281ZM17.5 15.2316C15.68 15.2316 14.1995 13.3265 14.1995 10.985C14.1995 8.6434 15.68 6.7383 17.5 6.7383C19.32 6.7383 20.8005 8.6434 20.8005 10.985C20.8005 13.3265 19.32 15.2316 17.5 15.2316ZM9.76431 16.1695C9.08993 16.1695 8.45582 15.842 7.97085 15.2417C7.50601 14.6652 7.2315 13.8939 7.19765 13.0694C7.16471 12.245 7.37699 11.4544 7.79425 10.8422C8.24719 10.1779 8.88588 9.79726 9.59137 9.76889C10.2978 9.74052 10.9648 10.069 11.4699 10.6949C11.9348 11.2714 12.2093 12.0427 12.2422 12.8663C12.2761 13.6907 12.0638 14.4822 11.6465 15.0935C11.1936 15.7578 10.5549 16.1393 9.8485 16.1677C9.82105 16.1686 9.79268 16.1695 9.76431 16.1695ZM25.2348 16.1695C25.2073 16.1695 25.179 16.1686 25.1506 16.1677C24.4442 16.1393 23.8064 15.7578 23.3535 15.0935C22.9353 14.4822 22.7239 13.6907 22.7569 12.8663C22.7898 12.0427 23.0643 11.2714 23.5301 10.6949C24.0352 10.069 24.6995 9.74144 25.4077 9.76889C26.1141 9.79726 26.7519 10.1779 27.2058 10.8422C27.623 11.4544 27.8344 12.245 27.8014 13.0694C27.7685 13.8939 27.494 14.6652 27.0282 15.2417C26.5442 15.842 25.9092 16.1695 25.2348 16.1695ZM22.3286 25.3363H12.8571C11.1332 25.3363 9.73137 23.9336 9.73137 22.2097C9.73137 20.6376 10.7827 19.0217 12.6933 17.6592C14.0156 16.7158 15.7331 16.1924 17.5302 16.1851C19.3593 16.1759 21.1199 16.714 22.4833 17.694C23.1329 18.1607 25.254 19.8663 25.2677 22.206C25.2705 22.6288 25.2769 23.6179 24.5247 24.4277C23.768 25.2421 22.7386 25.3345 22.3314 25.3363H22.3286ZM9.13294 24.0855H7.03843C6.74654 24.0855 5.99895 24.0196 5.37856 23.4075C4.93477 22.9701 4.69046 22.389 4.69046 21.7705C4.69046 20.9872 5.03359 20.2039 5.71072 19.4426C6.10418 18.9997 6.52876 18.6282 6.97072 18.3391C7.91961 17.7196 9.01856 17.3518 10.2365 17.2465L11.3373 17.1505L10.5137 17.8779C9.99399 18.3373 9.29673 19.1324 8.92889 20.3119C8.48235 21.743 8.76418 22.9911 8.9719 23.6088L9.13294 24.0855ZM27.9607 24.0855H25.8671L26.0272 23.6088C26.2349 22.9911 26.5167 21.743 26.0711 20.3119C25.7033 19.1324 25.006 18.3373 24.4854 17.8779L23.6618 17.1505L24.7635 17.2465C25.9814 17.3518 27.0795 17.7196 28.0284 18.3391C28.4712 18.6282 28.8949 18.9997 29.2884 19.4426C29.9655 20.2039 30.3086 20.9872 30.3086 21.7705C30.3086 22.389 30.0643 22.9701 29.6214 23.4075C29.0001 24.0196 28.2535 24.0855 27.9607 24.0855Z" fill="#F4FAFC"/>
</svg>
