<svg xmlns="http://www.w3.org/2000/svg" xmlns:xlink="http://www.w3.org/1999/xlink" width="200" zoomAndPan="magnify" viewBox="0 0 150 191.249993" height="255" preserveAspectRatio="xMidYMid meet" version="1.0"><defs><g/><clipPath id="c1b6a6bb7a"><path d="M 0.292969 0 L 149.707031 0 L 149.707031 149.414062 L 0.292969 149.414062 Z M 0.292969 0 " clip-rule="nonzero"/></clipPath></defs><g clip-path="url(#c1b6a6bb7a)"><path fill="#00adef" d="M 75 149.414062 C 55.042969 149.414062 36.285156 141.640625 22.171875 127.53125 C 8.0625 113.421875 0.292969 94.660156 0.292969 74.707031 C 0.292969 54.75 8.0625 35.992188 22.171875 21.878906 C 36.285156 7.769531 55.042969 0 75 0 C 94.953125 0 113.714844 7.769531 127.824219 21.878906 C 141.933594 35.992188 149.707031 54.75 149.707031 74.707031 C 149.707031 94.660156 141.933594 113.421875 127.824219 127.53125 C 113.714844 141.640625 94.953125 149.414062 75 149.414062 Z M 75 4.835938 C 56.335938 4.835938 38.789062 12.105469 25.59375 25.300781 C 12.398438 38.496094 5.128906 56.042969 5.128906 74.707031 C 5.128906 93.367188 12.398438 110.914062 25.59375 124.109375 C 38.789062 137.308594 56.335938 144.574219 75 144.574219 C 93.660156 144.574219 111.207031 137.308594 124.402344 124.109375 C 137.601562 110.914062 144.867188 93.367188 144.867188 74.707031 C 144.867188 56.042969 137.601562 38.496094 124.402344 25.300781 C 111.207031 12.105469 93.660156 4.835938 75 4.835938 Z M 75 65.023438 C 67.230469 65.023438 60.910156 56.890625 60.910156 46.894531 C 60.910156 36.898438 67.230469 28.765625 75 28.765625 C 82.769531 28.765625 89.089844 36.898438 89.089844 46.894531 C 89.089844 56.890625 82.769531 65.023438 75 65.023438 Z M 41.976562 69.027344 C 39.097656 69.027344 36.390625 67.628906 34.320312 65.066406 C 32.335938 62.605469 31.164062 59.3125 31.019531 55.792969 C 30.878906 52.273438 31.785156 48.898438 33.566406 46.285156 C 35.5 43.449219 38.226562 41.824219 41.238281 41.703125 C 44.253906 41.582031 47.101562 42.984375 49.257812 45.65625 C 51.242188 48.117188 52.414062 51.410156 52.554688 54.925781 C 52.699219 58.445312 51.792969 61.824219 50.011719 64.433594 C 48.078125 67.269531 45.351562 68.898438 42.335938 69.019531 C 42.21875 69.023438 42.097656 69.027344 41.976562 69.027344 Z M 108.019531 69.027344 C 107.902344 69.027344 107.78125 69.023438 107.660156 69.019531 C 104.644531 68.898438 101.921875 67.269531 99.988281 64.433594 C 98.203125 61.824219 97.300781 58.445312 97.441406 54.925781 C 97.582031 51.410156 98.753906 48.117188 100.742188 45.65625 C 102.898438 42.984375 105.734375 41.585938 108.757812 41.703125 C 111.773438 41.824219 114.496094 43.449219 116.433594 46.285156 C 118.214844 48.898438 119.117188 52.273438 118.976562 55.792969 C 118.835938 59.3125 117.664062 62.605469 115.675781 65.066406 C 113.609375 67.628906 110.898438 69.027344 108.019531 69.027344 Z M 99.859375 55.023438 L 99.863281 55.023438 Z M 95.613281 108.160156 L 55.179688 108.160156 C 47.820312 108.160156 41.835938 102.171875 41.835938 94.8125 C 41.835938 88.101562 46.324219 81.203125 54.480469 75.386719 C 60.125 71.359375 67.457031 69.125 75.128906 69.09375 C 82.9375 69.054688 90.453125 71.351562 96.273438 75.535156 C 99.046875 77.527344 108.101562 84.808594 108.160156 94.796875 C 108.171875 96.601562 108.199219 100.824219 104.988281 104.28125 C 101.757812 107.757812 97.363281 108.152344 95.625 108.160156 C 95.621094 108.160156 95.617188 108.160156 95.613281 108.160156 Z M 39.28125 102.820312 L 30.339844 102.820312 C 29.09375 102.820312 25.902344 102.539062 23.253906 99.925781 C 21.359375 98.058594 20.316406 95.578125 20.316406 92.9375 C 20.316406 89.59375 21.78125 86.25 24.671875 83 C 26.351562 81.109375 28.164062 79.523438 30.050781 78.289062 C 34.101562 75.644531 38.792969 74.074219 43.992188 73.625 L 48.691406 73.214844 L 45.175781 76.320312 C 42.957031 78.28125 39.980469 81.675781 38.410156 86.710938 C 36.503906 92.820312 37.707031 98.148438 38.59375 100.785156 Z M 119.65625 102.820312 L 110.71875 102.820312 L 111.402344 100.785156 C 112.289062 98.148438 113.492188 92.820312 111.589844 86.710938 C 110.019531 81.675781 107.042969 78.28125 104.820312 76.320312 L 101.304688 73.214844 L 106.007812 73.625 C 111.207031 74.074219 115.894531 75.644531 119.945312 78.289062 C 121.835938 79.523438 123.644531 81.109375 125.324219 83 C 128.214844 86.25 129.679688 89.59375 129.679688 92.9375 C 129.679688 95.578125 128.636719 98.058594 126.746094 99.925781 C 124.09375 102.539062 120.90625 102.820312 119.65625 102.820312 Z M 119.65625 102.820312 " fill-opacity="1" fill-rule="nonzero"/></g><g fill="#000000" fill-opacity="1"><g transform="translate(11.53861, 176.97604)"><g><path d="M 7.609375 -4.828125 L 4.359375 -4.828125 L 4.625 -5.8125 L 7.28125 -5.8125 Z M 5.484375 -10.734375 L 2.96875 -3.21875 C 2.75 -2.582031 2.640625 -2.101562 2.640625 -1.78125 C 2.648438 -1.46875 2.703125 -1.257812 2.796875 -1.15625 C 2.890625 -1.0625 3.007812 -0.992188 3.15625 -0.953125 C 3.3125 -0.910156 3.484375 -0.875 3.671875 -0.84375 C 3.867188 -0.8125 4.066406 -0.75 4.265625 -0.65625 L 4.265625 0 L -0.390625 0 L -0.390625 -0.65625 C -0.234375 -0.738281 -0.078125 -0.804688 0.078125 -0.859375 C 0.242188 -0.910156 0.40625 -0.96875 0.5625 -1.03125 C 0.90625 -1.1875 1.128906 -1.421875 1.234375 -1.734375 L 4.84375 -12.46875 Z M 5.21875 -13.546875 C 4.832031 -13.679688 4.570312 -13.816406 4.4375 -13.953125 C 4.445312 -14.109375 4.460938 -14.25 4.484375 -14.375 C 4.515625 -14.507812 4.539062 -14.640625 4.5625 -14.765625 C 4.59375 -14.898438 4.625 -15.015625 4.65625 -15.109375 C 6.007812 -15.390625 6.789062 -15.53125 7 -15.53125 C 7.15625 -15.40625 7.296875 -15.179688 7.421875 -14.859375 L 12.125 -1.90625 C 12.28125 -1.476562 12.515625 -1.1875 12.828125 -1.03125 C 12.960938 -0.957031 13.109375 -0.894531 13.265625 -0.84375 C 13.429688 -0.800781 13.601562 -0.738281 13.78125 -0.65625 L 13.78125 0 L 8 0 L 8 -0.65625 C 8.164062 -0.726562 8.335938 -0.78125 8.515625 -0.8125 C 8.691406 -0.84375 8.851562 -0.878906 9 -0.921875 C 9.332031 -0.992188 9.5 -1.15625 9.5 -1.40625 C 9.5 -1.613281 9.328125 -2.1875 8.984375 -3.125 C 8.640625 -4.070312 8.335938 -4.910156 8.078125 -5.640625 C 7.335938 -7.703125 6.617188 -9.765625 5.921875 -11.828125 Z M 5.21875 -13.546875 "/></g></g></g><g fill="#000000" fill-opacity="1"><g transform="translate(28.241394, 176.97604)"><g><path d="M 6.71875 -14.328125 C 6.375 -14.328125 6.117188 -14.300781 5.953125 -14.25 L 5.953125 -15.203125 L 7.0625 -15.203125 C 8.9375 -15.203125 10.347656 -14.847656 11.296875 -14.140625 C 12.160156 -13.492188 12.59375 -12.597656 12.59375 -11.453125 C 12.59375 -10.546875 12.257812 -9.785156 11.59375 -9.171875 C 10.925781 -8.554688 10.03125 -8.1875 8.90625 -8.0625 L 8.90625 -8.015625 C 11.019531 -7.734375 12.394531 -6.972656 13.03125 -5.734375 C 13.257812 -5.285156 13.375 -4.765625 13.375 -4.171875 C 13.375 -3.578125 13.269531 -3.023438 13.0625 -2.515625 C 12.863281 -2.015625 12.546875 -1.578125 12.109375 -1.203125 C 11.171875 -0.398438 9.8125 0 8.03125 0 L 5.953125 0 L 5.953125 -0.9375 C 6.109375 -0.894531 6.425781 -0.875 6.90625 -0.875 C 8.144531 -0.875 9.050781 -1.125 9.625 -1.625 C 10.207031 -2.125 10.5 -2.925781 10.5 -4.03125 C 10.5 -5.132812 10.1875 -5.984375 9.5625 -6.578125 C 8.9375 -7.171875 7.988281 -7.46875 6.71875 -7.46875 L 5.953125 -7.46875 L 5.953125 -8.40625 L 6.359375 -8.40625 C 8.585938 -8.40625 9.703125 -9.414062 9.703125 -11.4375 C 9.703125 -13.363281 8.707031 -14.328125 6.71875 -14.328125 Z M 5.0625 0 L 0.90625 0 L 0.90625 -0.625 C 1.09375 -0.71875 1.273438 -0.785156 1.453125 -0.828125 C 1.640625 -0.878906 1.804688 -0.945312 1.953125 -1.03125 C 2.242188 -1.195312 2.390625 -1.507812 2.390625 -1.96875 L 2.390625 -13.234375 C 2.390625 -13.691406 2.242188 -14.003906 1.953125 -14.171875 C 1.804688 -14.253906 1.640625 -14.316406 1.453125 -14.359375 C 1.273438 -14.410156 1.09375 -14.476562 0.90625 -14.5625 L 0.90625 -15.203125 L 5.0625 -15.203125 Z M 5.0625 0 "/></g></g></g><g fill="#000000" fill-opacity="1"><g transform="translate(45.874936, 176.97604)"><g><path d="M 7.171875 0.328125 C 5.347656 0.191406 3.84375 -0.632812 2.65625 -2.15625 C 1.5 -3.644531 0.921875 -5.460938 0.921875 -7.609375 C 0.921875 -9.734375 1.5 -11.539062 2.65625 -13.03125 C 3.84375 -14.550781 5.347656 -15.378906 7.171875 -15.515625 L 7.171875 -14.625 C 6.128906 -14.519531 5.34375 -13.96875 4.8125 -12.96875 C 4.21875 -11.8125 3.921875 -10.023438 3.921875 -7.609375 C 3.921875 -4.054688 4.5625 -1.863281 5.84375 -1.03125 C 6.238281 -0.769531 6.679688 -0.613281 7.171875 -0.5625 Z M 8.0625 -0.5625 C 9.664062 -0.726562 10.671875 -2.003906 11.078125 -4.390625 C 11.234375 -5.265625 11.3125 -6.335938 11.3125 -7.609375 C 11.3125 -11.140625 10.675781 -13.320312 9.40625 -14.15625 C 9 -14.414062 8.550781 -14.570312 8.0625 -14.625 L 8.0625 -15.515625 C 9.90625 -15.390625 11.414062 -14.566406 12.59375 -13.046875 C 13.757812 -11.554688 14.34375 -9.738281 14.34375 -7.59375 C 14.34375 -5.457031 13.757812 -3.644531 12.59375 -2.15625 C 11.414062 -0.632812 9.90625 0.1875 8.0625 0.3125 Z M 8.0625 -0.5625 "/></g></g></g><g fill="#000000" fill-opacity="1"><g transform="translate(64.449934, 176.97604)"><g><path d="M 8.484375 -0.5625 C 9.984375 -0.625 10.960938 -1.207031 11.421875 -2.3125 C 11.578125 -2.675781 11.65625 -3.097656 11.65625 -3.578125 L 11.65625 -13.109375 C 11.65625 -13.691406 11.304688 -14.101562 10.609375 -14.34375 C 10.421875 -14.40625 10.226562 -14.476562 10.03125 -14.5625 L 10.03125 -15.203125 L 14.53125 -15.203125 L 14.53125 -14.5625 C 14.332031 -14.476562 14.132812 -14.40625 13.9375 -14.34375 C 13.75 -14.28125 13.570312 -14.195312 13.40625 -14.09375 C 13.050781 -13.882812 12.875 -13.554688 12.875 -13.109375 L 12.875 -3.90625 C 12.875 -1.3125 11.410156 0.0859375 8.484375 0.296875 Z M 7.59375 0.328125 C 4.925781 0.328125 3.226562 -0.5 2.5 -2.15625 C 2.257812 -2.707031 2.140625 -3.335938 2.140625 -4.046875 L 2.140625 -13.234375 C 2.140625 -13.691406 2 -14.003906 1.71875 -14.171875 C 1.59375 -14.253906 1.441406 -14.316406 1.265625 -14.359375 C 1.085938 -14.410156 0.894531 -14.476562 0.6875 -14.5625 L 0.6875 -15.203125 L 6.28125 -15.203125 L 6.28125 -14.5625 C 6.0625 -14.476562 5.863281 -14.410156 5.6875 -14.359375 C 5.507812 -14.316406 5.351562 -14.253906 5.21875 -14.171875 C 4.9375 -14.003906 4.796875 -13.691406 4.796875 -13.234375 L 4.796875 -3.546875 C 4.796875 -2.710938 5.050781 -2.03125 5.5625 -1.5 C 6.050781 -0.988281 6.726562 -0.679688 7.59375 -0.578125 Z M 7.59375 0.328125 "/></g></g></g><g fill="#000000" fill-opacity="1"><g transform="translate(82.768168, 176.97604)"><g><path d="M 7.671875 -15.203125 L 7.671875 -2.453125 C 7.671875 -1.890625 7.726562 -1.523438 7.84375 -1.359375 C 7.96875 -1.203125 8.082031 -1.097656 8.1875 -1.046875 C 8.289062 -1.003906 8.40625 -0.96875 8.53125 -0.9375 C 8.894531 -0.84375 9.171875 -0.738281 9.359375 -0.625 L 9.359375 0 L 3.34375 0 L 3.34375 -0.625 C 3.5 -0.726562 3.703125 -0.8125 3.953125 -0.875 C 4.210938 -0.945312 4.394531 -1.003906 4.5 -1.046875 C 4.601562 -1.085938 4.691406 -1.160156 4.765625 -1.265625 C 4.921875 -1.472656 5 -1.867188 5 -2.453125 L 5 -15.203125 Z M 10.84375 -15.203125 C 11.132812 -15.203125 11.625 -15.253906 12.3125 -15.359375 L 12.3125 -10.296875 L 11.578125 -10.296875 C 11.484375 -10.566406 11.394531 -10.851562 11.3125 -11.15625 C 11.238281 -11.457031 11.15625 -11.753906 11.0625 -12.046875 C 10.976562 -12.347656 10.875 -12.632812 10.75 -12.90625 C 10.625 -13.1875 10.46875 -13.429688 10.28125 -13.640625 C 9.851562 -14.097656 9.28125 -14.328125 8.5625 -14.328125 L 8.5625 -15.203125 Z M 0.390625 -15.359375 C 0.734375 -15.253906 0.992188 -15.203125 1.171875 -15.203125 L 4.109375 -15.203125 L 4.109375 -14.328125 C 3.078125 -14.328125 2.347656 -13.851562 1.921875 -12.90625 C 1.710938 -12.445312 1.546875 -11.960938 1.421875 -11.453125 C 1.304688 -10.953125 1.203125 -10.566406 1.109375 -10.296875 L 0.359375 -10.296875 L 0.359375 -15.34375 Z M 0.390625 -15.359375 "/></g></g></g><g fill="#000000" fill-opacity="1"><g transform="translate(98.754167, 176.97604)"><g/></g></g><g fill="#000000" fill-opacity="1"><g transform="translate(107.68997, 176.97604)"><g><path d="M 8.484375 -0.5625 C 9.984375 -0.625 10.960938 -1.207031 11.421875 -2.3125 C 11.578125 -2.675781 11.65625 -3.097656 11.65625 -3.578125 L 11.65625 -13.109375 C 11.65625 -13.691406 11.304688 -14.101562 10.609375 -14.34375 C 10.421875 -14.40625 10.226562 -14.476562 10.03125 -14.5625 L 10.03125 -15.203125 L 14.53125 -15.203125 L 14.53125 -14.5625 C 14.332031 -14.476562 14.132812 -14.40625 13.9375 -14.34375 C 13.75 -14.28125 13.570312 -14.195312 13.40625 -14.09375 C 13.050781 -13.882812 12.875 -13.554688 12.875 -13.109375 L 12.875 -3.90625 C 12.875 -1.3125 11.410156 0.0859375 8.484375 0.296875 Z M 7.59375 0.328125 C 4.925781 0.328125 3.226562 -0.5 2.5 -2.15625 C 2.257812 -2.707031 2.140625 -3.335938 2.140625 -4.046875 L 2.140625 -13.234375 C 2.140625 -13.691406 2 -14.003906 1.71875 -14.171875 C 1.59375 -14.253906 1.441406 -14.316406 1.265625 -14.359375 C 1.085938 -14.410156 0.894531 -14.476562 0.6875 -14.5625 L 0.6875 -15.203125 L 6.28125 -15.203125 L 6.28125 -14.5625 C 6.0625 -14.476562 5.863281 -14.410156 5.6875 -14.359375 C 5.507812 -14.316406 5.351562 -14.253906 5.21875 -14.171875 C 4.9375 -14.003906 4.796875 -13.691406 4.796875 -13.234375 L 4.796875 -3.546875 C 4.796875 -2.710938 5.050781 -2.03125 5.5625 -1.5 C 6.050781 -0.988281 6.726562 -0.679688 7.59375 -0.578125 Z M 7.59375 0.328125 "/></g></g></g><g fill="#000000" fill-opacity="1"><g transform="translate(126.008204, 176.97604)"><g><path d="M 6.328125 -15.5 C 6.859375 -15.445312 7.3125 -15.320312 7.6875 -15.125 C 8.0625 -14.9375 8.316406 -14.800781 8.453125 -14.71875 C 8.597656 -14.644531 8.71875 -14.609375 8.8125 -14.609375 C 8.90625 -14.609375 8.984375 -14.628906 9.046875 -14.671875 C 9.109375 -14.710938 9.164062 -14.757812 9.21875 -14.8125 C 9.269531 -14.875 9.3125 -14.9375 9.34375 -15 C 9.382812 -15.070312 9.421875 -15.140625 9.453125 -15.203125 L 10.4375 -15.203125 L 10.4375 -10.1875 L 9.671875 -10.1875 C 9.515625 -10.34375 9.332031 -10.695312 9.125 -11.25 C 8.925781 -11.8125 8.757812 -12.253906 8.625 -12.578125 C 8.488281 -12.910156 8.316406 -13.21875 8.109375 -13.5 C 7.648438 -14.132812 7.054688 -14.507812 6.328125 -14.625 Z M 4.15625 -0.0625 C 3.738281 -0.25 3.441406 -0.382812 3.265625 -0.46875 C 3.097656 -0.550781 2.921875 -0.59375 2.734375 -0.59375 C 2.554688 -0.59375 2.359375 -0.394531 2.140625 0 L 1.140625 0 L 1.140625 -5.28125 L 1.875 -5.28125 C 2.039062 -5.113281 2.1875 -4.890625 2.3125 -4.609375 C 2.4375 -4.328125 2.566406 -4.019531 2.703125 -3.6875 C 2.835938 -3.351562 2.988281 -3.007812 3.15625 -2.65625 C 3.320312 -2.3125 3.519531 -1.988281 3.75 -1.6875 C 4.28125 -1.019531 4.953125 -0.644531 5.765625 -0.5625 L 5.765625 0.3125 C 5.117188 0.25 4.582031 0.125 4.15625 -0.0625 Z M 6.65625 -0.578125 C 7.425781 -0.671875 8.019531 -0.984375 8.4375 -1.515625 C 8.8125 -1.992188 9 -2.539062 9 -3.15625 C 9 -3.78125 8.882812 -4.273438 8.65625 -4.640625 C 8.4375 -5.015625 8.144531 -5.347656 7.78125 -5.640625 C 7.425781 -5.929688 7.015625 -6.191406 6.546875 -6.421875 C 6.085938 -6.660156 5.617188 -6.894531 5.140625 -7.125 C 4.660156 -7.363281 4.1875 -7.609375 3.71875 -7.859375 C 3.257812 -8.109375 2.851562 -8.398438 2.5 -8.734375 C 1.695312 -9.472656 1.296875 -10.375 1.296875 -11.4375 C 1.296875 -12.507812 1.660156 -13.425781 2.390625 -14.1875 C 3.179688 -14.988281 4.195312 -15.429688 5.4375 -15.515625 L 5.4375 -14.625 C 4.5625 -14.519531 3.96875 -14.070312 3.65625 -13.28125 C 3.5625 -13.019531 3.515625 -12.695312 3.515625 -12.3125 C 3.515625 -11.925781 3.625 -11.566406 3.84375 -11.234375 C 4.070312 -10.898438 4.375 -10.597656 4.75 -10.328125 C 5.125 -10.066406 5.546875 -9.828125 6.015625 -9.609375 C 6.492188 -9.390625 6.976562 -9.164062 7.46875 -8.9375 C 7.96875 -8.707031 8.453125 -8.457031 8.921875 -8.1875 C 9.398438 -7.925781 9.820312 -7.625 10.1875 -7.28125 C 11.019531 -6.488281 11.4375 -5.53125 11.4375 -4.40625 C 11.4375 -3.195312 11 -2.140625 10.125 -1.234375 C 9.195312 -0.285156 8.039062 0.234375 6.65625 0.328125 Z M 6.65625 -0.578125 "/></g></g></g></svg>