<svg xmlns="http://www.w3.org/2000/svg" xmlns:xlink="http://www.w3.org/1999/xlink" width="157" zoomAndPan="magnify" viewBox="0 0 117.75 143.999998" height="192" preserveAspectRatio="xMidYMid meet" version="1.0"><defs><g/><clipPath id="aee621939e"><path d="M 8.324219 0.152344 L 108.609375 0.152344 L 108.609375 100.441406 L 8.324219 100.441406 Z M 8.324219 0.152344 " clip-rule="nonzero"/></clipPath></defs><g fill="#000000" fill-opacity="1"><g transform="translate(14.227091, 131.340825)"><g><path d="M 5.6875 -13.921875 C 6.15625 -13.867188 6.554688 -13.753906 6.890625 -13.578125 C 7.234375 -13.410156 7.46875 -13.289062 7.59375 -13.21875 C 7.71875 -13.15625 7.820312 -13.125 7.90625 -13.125 C 8 -13.125 8.070312 -13.140625 8.125 -13.171875 C 8.1875 -13.210938 8.238281 -13.257812 8.28125 -13.3125 C 8.320312 -13.363281 8.359375 -13.421875 8.390625 -13.484375 C 8.421875 -13.546875 8.453125 -13.601562 8.484375 -13.65625 L 9.375 -13.65625 L 9.375 -9.140625 L 8.6875 -9.140625 C 8.539062 -9.285156 8.378906 -9.609375 8.203125 -10.109375 C 8.023438 -10.609375 7.875 -11.003906 7.75 -11.296875 C 7.625 -11.585938 7.46875 -11.863281 7.28125 -12.125 C 6.875 -12.695312 6.34375 -13.03125 5.6875 -13.125 Z M 3.734375 -0.046875 C 3.359375 -0.222656 3.09375 -0.347656 2.9375 -0.421875 C 2.78125 -0.492188 2.617188 -0.53125 2.453125 -0.53125 C 2.296875 -0.53125 2.117188 -0.351562 1.921875 0 L 1.03125 0 L 1.03125 -4.75 L 1.6875 -4.75 C 1.832031 -4.601562 1.957031 -4.398438 2.0625 -4.140625 C 2.175781 -3.878906 2.296875 -3.597656 2.421875 -3.296875 C 2.546875 -3.003906 2.679688 -2.703125 2.828125 -2.390625 C 2.972656 -2.078125 3.15625 -1.785156 3.375 -1.515625 C 3.84375 -0.921875 4.441406 -0.585938 5.171875 -0.515625 L 5.171875 0.28125 C 4.597656 0.226562 4.117188 0.117188 3.734375 -0.046875 Z M 5.96875 -0.515625 C 6.664062 -0.597656 7.203125 -0.878906 7.578125 -1.359375 C 7.910156 -1.785156 8.078125 -2.273438 8.078125 -2.828125 C 8.078125 -3.390625 7.976562 -3.835938 7.78125 -4.171875 C 7.582031 -4.503906 7.320312 -4.800781 7 -5.0625 C 6.675781 -5.320312 6.304688 -5.554688 5.890625 -5.765625 C 5.472656 -5.984375 5.046875 -6.195312 4.609375 -6.40625 C 4.179688 -6.613281 3.757812 -6.828125 3.34375 -7.046875 C 2.9375 -7.273438 2.570312 -7.539062 2.25 -7.84375 C 1.519531 -8.507812 1.15625 -9.316406 1.15625 -10.265625 C 1.15625 -11.234375 1.488281 -12.0625 2.15625 -12.75 C 2.851562 -13.46875 3.765625 -13.863281 4.890625 -13.9375 L 4.890625 -13.140625 C 4.097656 -13.035156 3.5625 -12.628906 3.28125 -11.921875 C 3.195312 -11.691406 3.15625 -11.398438 3.15625 -11.046875 C 3.15625 -10.703125 3.253906 -10.378906 3.453125 -10.078125 C 3.660156 -9.785156 3.929688 -9.519531 4.265625 -9.28125 C 4.597656 -9.039062 4.976562 -8.820312 5.40625 -8.625 C 5.832031 -8.425781 6.265625 -8.222656 6.703125 -8.015625 C 7.148438 -7.816406 7.585938 -7.597656 8.015625 -7.359375 C 8.441406 -7.117188 8.820312 -6.84375 9.15625 -6.53125 C 9.894531 -5.820312 10.265625 -4.960938 10.265625 -3.953125 C 10.265625 -2.867188 9.875 -1.921875 9.09375 -1.109375 C 8.257812 -0.253906 7.21875 0.207031 5.96875 0.28125 Z M 5.96875 -0.515625 "/></g></g></g><g fill="#000000" fill-opacity="1"><g transform="translate(28.350952, 131.340825)"><g><path d="M 6.046875 -13.65625 L 6.046875 -13.078125 C 5.859375 -13.003906 5.679688 -12.941406 5.515625 -12.890625 C 5.347656 -12.847656 5.207031 -12.796875 5.09375 -12.734375 C 4.8125 -12.578125 4.671875 -12.289062 4.671875 -11.875 L 4.671875 -1.765625 C 4.671875 -1.359375 4.8125 -1.078125 5.09375 -0.921875 C 5.21875 -0.847656 5.363281 -0.789062 5.53125 -0.75 C 5.695312 -0.707031 5.878906 -0.644531 6.078125 -0.5625 L 6.078125 0 L 0.890625 0 L 0.890625 -0.5625 C 1.078125 -0.644531 1.253906 -0.707031 1.421875 -0.75 C 1.585938 -0.789062 1.734375 -0.847656 1.859375 -0.921875 C 2.140625 -1.078125 2.28125 -1.359375 2.28125 -1.765625 L 2.28125 -11.875 C 2.28125 -12.289062 2.140625 -12.578125 1.859375 -12.734375 C 1.734375 -12.796875 1.585938 -12.847656 1.421875 -12.890625 C 1.253906 -12.941406 1.078125 -13.003906 0.890625 -13.078125 L 0.890625 -13.65625 Z M 6.046875 -13.65625 "/></g></g></g><g fill="#000000" fill-opacity="1"><g transform="translate(38.261131, 131.340825)"><g><path d="M 9.84375 -13.03125 C 10.0625 -13.03125 10.222656 -13.195312 10.328125 -13.53125 L 11.15625 -13.53125 L 11.15625 -8.75 L 10.515625 -8.75 C 10.242188 -9.09375 10.007812 -9.550781 9.8125 -10.125 C 9.625 -10.695312 9.46875 -11.132812 9.34375 -11.4375 C 9.226562 -11.738281 9.078125 -12.007812 8.890625 -12.25 C 8.453125 -12.78125 7.84375 -13.070312 7.0625 -13.125 L 7.0625 -13.9375 C 7.632812 -13.894531 8.132812 -13.773438 8.5625 -13.578125 C 9 -13.378906 9.296875 -13.238281 9.453125 -13.15625 C 9.617188 -13.070312 9.75 -13.03125 9.84375 -13.03125 Z M 11.4375 -2.328125 C 11.4375 -1.734375 11.539062 -1.207031 11.75 -0.75 L 11.375 -0.53125 C 10.71875 -0.332031 9.789062 -0.234375 8.59375 -0.234375 C 8.53125 -0.234375 8.390625 -0.191406 8.171875 -0.109375 C 7.734375 0.0351562 7.363281 0.132812 7.0625 0.1875 L 7.0625 -0.5 C 7.78125 -0.539062 8.296875 -0.828125 8.609375 -1.359375 C 8.890625 -1.867188 9.03125 -2.664062 9.03125 -3.75 C 9.03125 -4.351562 9.007812 -4.769531 8.96875 -5 C 8.9375 -5.238281 8.863281 -5.40625 8.75 -5.5 C 8.644531 -5.59375 8.515625 -5.664062 8.359375 -5.71875 C 8.210938 -5.769531 8.050781 -5.8125 7.875 -5.84375 C 7.707031 -5.875 7.546875 -5.921875 7.390625 -5.984375 L 7.390625 -6.625 L 12.421875 -6.625 C 12.390625 -6.394531 12.320312 -6.210938 12.21875 -6.078125 C 12.113281 -5.941406 12.003906 -5.8125 11.890625 -5.6875 C 11.585938 -5.34375 11.4375 -4.941406 11.4375 -4.484375 Z M 6.265625 -13.078125 C 4.453125 -12.710938 3.546875 -10.609375 3.546875 -6.765625 C 3.546875 -3.628906 4.097656 -1.691406 5.203125 -0.953125 C 5.535156 -0.742188 5.890625 -0.601562 6.265625 -0.53125 L 6.265625 0.234375 C 4.609375 0.234375 3.289062 -0.40625 2.3125 -1.6875 C 1.332031 -2.976562 0.84375 -4.691406 0.84375 -6.828125 C 0.84375 -8.742188 1.34375 -10.367188 2.34375 -11.703125 C 3.363281 -13.054688 4.671875 -13.796875 6.265625 -13.921875 Z M 6.265625 -13.078125 "/></g></g></g><g fill="#000000" fill-opacity="1"><g transform="translate(54.295077, 131.340825)"><g><path d="M 10.578125 -5.109375 L 10.578125 -11.875 C 10.578125 -12.226562 10.414062 -12.492188 10.09375 -12.671875 C 9.957031 -12.753906 9.800781 -12.828125 9.625 -12.890625 C 9.445312 -12.953125 9.269531 -13.023438 9.09375 -13.109375 L 9.09375 -13.671875 L 13.109375 -13.671875 L 13.109375 -13.109375 C 12.953125 -13.023438 12.785156 -12.953125 12.609375 -12.890625 C 12.441406 -12.828125 12.289062 -12.753906 12.15625 -12.671875 C 11.84375 -12.492188 11.6875 -12.226562 11.6875 -11.875 L 11.6875 -3.375 Z M 3.125 -10.203125 L 3.125 -1.78125 C 3.125 -1.4375 3.289062 -1.175781 3.625 -1 C 3.78125 -0.914062 3.953125 -0.84375 4.140625 -0.78125 C 4.335938 -0.71875 4.539062 -0.644531 4.75 -0.5625 L 4.75 0 L 0.515625 0 L 0.515625 -0.5625 C 0.691406 -0.644531 0.867188 -0.71875 1.046875 -0.78125 C 1.234375 -0.84375 1.394531 -0.914062 1.53125 -1 C 1.863281 -1.175781 2.03125 -1.4375 2.03125 -1.78125 L 2.03125 -11.640625 Z M 3.171875 -11.390625 C 2.484375 -12.203125 1.796875 -12.707031 1.109375 -12.90625 C 0.929688 -12.96875 0.753906 -13.023438 0.578125 -13.078125 L 0.578125 -13.65625 L 4.328125 -13.65625 L 11.6875 -2.03125 L 11.6875 0.078125 L 10.265625 0.078125 Z M 3.171875 -11.390625 "/></g></g></g><g fill="#000000" fill-opacity="1"><g transform="translate(70.962515, 131.340825)"><g/></g></g><g fill="#000000" fill-opacity="1"><g transform="translate(78.981805, 131.340825)"><g><path d="M 6.046875 -13.65625 L 6.046875 -13.078125 C 5.859375 -13.003906 5.679688 -12.941406 5.515625 -12.890625 C 5.347656 -12.847656 5.207031 -12.796875 5.09375 -12.734375 C 4.8125 -12.578125 4.671875 -12.289062 4.671875 -11.875 L 4.671875 -1.765625 C 4.671875 -1.359375 4.8125 -1.078125 5.09375 -0.921875 C 5.21875 -0.847656 5.363281 -0.789062 5.53125 -0.75 C 5.695312 -0.707031 5.878906 -0.644531 6.078125 -0.5625 L 6.078125 0 L 0.890625 0 L 0.890625 -0.5625 C 1.078125 -0.644531 1.253906 -0.707031 1.421875 -0.75 C 1.585938 -0.789062 1.734375 -0.847656 1.859375 -0.921875 C 2.140625 -1.078125 2.28125 -1.359375 2.28125 -1.765625 L 2.28125 -11.875 C 2.28125 -12.289062 2.140625 -12.578125 1.859375 -12.734375 C 1.734375 -12.796875 1.585938 -12.847656 1.421875 -12.890625 C 1.253906 -12.941406 1.078125 -13.003906 0.890625 -13.078125 L 0.890625 -13.65625 Z M 6.046875 -13.65625 "/></g></g></g><g fill="#000000" fill-opacity="1"><g transform="translate(88.891981, 131.340825)"><g><path d="M 10.578125 -5.109375 L 10.578125 -11.875 C 10.578125 -12.226562 10.414062 -12.492188 10.09375 -12.671875 C 9.957031 -12.753906 9.800781 -12.828125 9.625 -12.890625 C 9.445312 -12.953125 9.269531 -13.023438 9.09375 -13.109375 L 9.09375 -13.671875 L 13.109375 -13.671875 L 13.109375 -13.109375 C 12.953125 -13.023438 12.785156 -12.953125 12.609375 -12.890625 C 12.441406 -12.828125 12.289062 -12.753906 12.15625 -12.671875 C 11.84375 -12.492188 11.6875 -12.226562 11.6875 -11.875 L 11.6875 -3.375 Z M 3.125 -10.203125 L 3.125 -1.78125 C 3.125 -1.4375 3.289062 -1.175781 3.625 -1 C 3.78125 -0.914062 3.953125 -0.84375 4.140625 -0.78125 C 4.335938 -0.71875 4.539062 -0.644531 4.75 -0.5625 L 4.75 0 L 0.515625 0 L 0.515625 -0.5625 C 0.691406 -0.644531 0.867188 -0.71875 1.046875 -0.78125 C 1.234375 -0.84375 1.394531 -0.914062 1.53125 -1 C 1.863281 -1.175781 2.03125 -1.4375 2.03125 -1.78125 L 2.03125 -11.640625 Z M 3.171875 -11.390625 C 2.484375 -12.203125 1.796875 -12.707031 1.109375 -12.90625 C 0.929688 -12.96875 0.753906 -13.023438 0.578125 -13.078125 L 0.578125 -13.65625 L 4.328125 -13.65625 L 11.6875 -2.03125 L 11.6875 0.078125 L 10.265625 0.078125 Z M 3.171875 -11.390625 "/></g></g></g><path fill="#ffffff" d="M 105.570312 50.25 C 105.570312 51.792969 105.496094 53.335938 105.34375 54.871094 C 105.191406 56.40625 104.964844 57.933594 104.664062 59.449219 C 104.363281 60.960938 103.988281 62.457031 103.539062 63.9375 C 103.09375 65.414062 102.574219 66.867188 101.980469 68.292969 C 101.390625 69.71875 100.730469 71.113281 100.003906 72.476562 C 99.273438 73.835938 98.480469 75.160156 97.625 76.445312 C 96.765625 77.726562 95.847656 78.96875 94.867188 80.160156 C 93.886719 81.355469 92.851562 82.496094 91.761719 83.589844 C 90.667969 84.679688 89.527344 85.71875 88.332031 86.695312 C 87.136719 87.675781 85.898438 88.59375 84.617188 89.453125 C 83.332031 90.3125 82.007812 91.105469 80.648438 91.832031 C 79.285156 92.558594 77.890625 93.21875 76.464844 93.808594 C 75.039062 94.402344 73.585938 94.921875 72.109375 95.367188 C 70.628906 95.816406 69.132812 96.191406 67.621094 96.492188 C 66.105469 96.792969 64.578125 97.019531 63.042969 97.171875 C 61.503906 97.324219 59.964844 97.398438 58.421875 97.398438 C 56.875 97.398438 55.335938 97.324219 53.800781 97.171875 C 52.261719 97.019531 50.738281 96.792969 49.222656 96.492188 C 47.707031 96.191406 46.210938 95.816406 44.734375 95.367188 C 43.257812 94.921875 41.804688 94.402344 40.378906 93.808594 C 38.949219 93.21875 37.554688 92.558594 36.195312 91.832031 C 34.832031 91.105469 33.507812 90.3125 32.226562 89.453125 C 30.941406 88.59375 29.703125 87.675781 28.507812 86.695312 C 27.316406 85.71875 26.171875 84.679688 25.082031 83.589844 C 23.988281 82.496094 22.953125 81.355469 21.972656 80.160156 C 20.992188 78.96875 20.074219 77.726562 19.21875 76.445312 C 18.359375 75.160156 17.566406 73.835938 16.839844 72.476562 C 16.109375 71.113281 15.449219 69.71875 14.859375 68.292969 C 14.269531 66.867188 13.75 65.414062 13.300781 63.9375 C 12.851562 62.457031 12.476562 60.960938 12.175781 59.449219 C 11.875 57.933594 11.648438 56.40625 11.496094 54.871094 C 11.347656 53.335938 11.269531 51.792969 11.269531 50.25 C 11.269531 48.707031 11.347656 47.164062 11.496094 45.628906 C 11.648438 44.089844 11.875 42.566406 12.175781 41.050781 C 12.476562 39.535156 12.851562 38.039062 13.300781 36.5625 C 13.75 35.085938 14.269531 33.632812 14.859375 32.207031 C 15.449219 30.777344 16.109375 29.386719 16.839844 28.023438 C 17.566406 26.660156 18.359375 25.339844 19.21875 24.054688 C 20.074219 22.769531 20.992188 21.53125 21.972656 20.335938 C 22.953125 19.144531 23.988281 18 25.082031 16.910156 C 26.171875 15.816406 27.316406 14.78125 28.507812 13.800781 C 29.703125 12.824219 30.941406 11.902344 32.226562 11.046875 C 33.507812 10.1875 34.832031 9.394531 36.195312 8.667969 C 37.554688 7.9375 38.949219 7.28125 40.378906 6.6875 C 41.804688 6.097656 43.257812 5.578125 44.734375 5.128906 C 46.210938 4.679688 47.707031 4.308594 49.222656 4.003906 C 50.738281 3.703125 52.261719 3.476562 53.800781 3.328125 C 55.335938 3.175781 56.875 3.097656 58.421875 3.097656 C 59.964844 3.097656 61.503906 3.175781 63.042969 3.328125 C 64.578125 3.476562 66.105469 3.703125 67.621094 4.003906 C 69.132812 4.308594 70.628906 4.679688 72.109375 5.128906 C 73.585938 5.578125 75.039062 6.097656 76.464844 6.6875 C 77.890625 7.28125 79.285156 7.9375 80.648438 8.667969 C 82.007812 9.394531 83.332031 10.1875 84.617188 11.046875 C 85.898438 11.902344 87.136719 12.824219 88.332031 13.800781 C 89.527344 14.78125 90.667969 15.816406 91.761719 16.910156 C 92.851562 18 93.886719 19.144531 94.867188 20.335938 C 95.847656 21.53125 96.765625 22.769531 97.625 24.054688 C 98.480469 25.339844 99.273438 26.660156 100.003906 28.023438 C 100.730469 29.386719 101.390625 30.777344 101.980469 32.207031 C 102.574219 33.632812 103.09375 35.085938 103.539062 36.5625 C 103.988281 38.039062 104.363281 39.535156 104.664062 41.050781 C 104.964844 42.566406 105.191406 44.089844 105.34375 45.628906 C 105.496094 47.164062 105.570312 48.707031 105.570312 50.25 Z M 105.570312 50.25 " fill-opacity="1" fill-rule="nonzero"/><path fill="#00adef" d="M 61.367188 82.664062 L 37.792969 70.878906 L 37.792969 23.726562 L 61.367188 35.515625 C 61.367188 36.652344 61.367188 78.804688 61.367188 82.664062 Z M 61.367188 82.664062 " fill-opacity="1" fill-rule="nonzero"/><g clip-path="url(#aee621939e)"><path fill="#2169ac" d="M 58.421875 0.152344 C 30.730469 0.152344 8.324219 22.5625 8.324219 50.25 C 8.324219 77.941406 30.734375 100.347656 58.421875 100.347656 C 86.113281 100.347656 108.515625 77.9375 108.515625 50.25 C 108.515625 22.558594 86.109375 0.152344 58.421875 0.152344 Z M 58.421875 94.453125 C 34.046875 94.453125 14.21875 74.621094 14.21875 50.25 C 14.21875 25.875 34.046875 6.046875 58.421875 6.046875 C 82.792969 6.046875 102.625 25.875 102.625 50.25 C 102.625 74.621094 82.792969 94.453125 58.421875 94.453125 Z M 58.421875 94.453125 " fill-opacity="1" fill-rule="nonzero"/></g><path fill="#2169ac" d="M 73.15625 53.195312 C 71.527344 53.195312 70.207031 54.515625 70.207031 56.144531 L 70.207031 67.929688 L 64.316406 67.929688 L 64.316406 35.515625 C 64.316406 34.398438 63.683594 33.378906 62.683594 32.878906 L 50.277344 26.675781 L 70.207031 26.675781 L 70.207031 32.566406 C 70.207031 34.195312 71.527344 35.515625 73.15625 35.515625 C 74.78125 35.515625 76.101562 34.195312 76.101562 32.566406 L 76.101562 23.726562 C 76.101562 22.101562 74.78125 20.78125 73.15625 20.78125 L 37.90625 20.78125 C 36.269531 20.71875 34.847656 22.027344 34.847656 23.726562 L 34.847656 70.878906 C 34.847656 71.992188 35.476562 73.015625 36.476562 73.511719 L 60.050781 85.300781 C 62.007812 86.277344 64.316406 84.851562 64.316406 82.664062 L 64.316406 73.824219 L 73.15625 73.824219 C 74.78125 73.824219 76.101562 72.503906 76.101562 70.878906 L 76.101562 56.144531 C 76.101562 54.515625 74.78125 53.195312 73.15625 53.195312 Z M 58.421875 77.898438 L 40.738281 69.054688 L 40.738281 28.496094 L 58.421875 37.335938 Z M 58.421875 77.898438 " fill-opacity="1" fill-rule="nonzero"/><path fill="#2169ac" d="M 92.917969 42.269531 L 87.027344 36.378906 C 85.875 35.226562 84.007812 35.226562 82.859375 36.378906 C 81.707031 37.527344 81.707031 39.394531 82.859375 40.546875 L 83.722656 41.410156 L 73.15625 41.410156 C 71.527344 41.410156 70.207031 42.726562 70.207031 44.355469 C 70.207031 45.984375 71.527344 47.300781 73.15625 47.300781 L 83.722656 47.300781 L 82.859375 48.164062 C 80.996094 50.027344 82.339844 53.195312 84.941406 53.195312 C 85.695312 53.195312 86.449219 52.910156 87.027344 52.332031 L 92.917969 46.441406 C 94.058594 45.300781 94.078125 43.429688 92.917969 42.269531 Z M 92.917969 42.269531 " fill-opacity="1" fill-rule="nonzero"/></svg>