<svg xmlns="http://www.w3.org/2000/svg" xmlns:xlink="http://www.w3.org/1999/xlink" width="200" zoomAndPan="magnify" viewBox="0 0 150 183.000001" height="244" preserveAspectRatio="xMidYMid meet" version="1.0"><defs><g/><clipPath id="d0444644ad"><path d="M 0.40625 0 L 149.589844 0 L 149.589844 149.183594 L 0.40625 149.183594 Z M 0.40625 0 " clip-rule="nonzero"/></clipPath></defs><path fill="#ffffff" d="M 75 0.75 C 76.207031 0.75 77.417969 0.78125 78.625 0.839844 C 79.832031 0.898438 81.035156 0.988281 82.238281 1.105469 C 83.441406 1.222656 84.640625 1.371094 85.835938 1.550781 C 87.03125 1.726562 88.222656 1.933594 89.40625 2.167969 C 90.59375 2.40625 91.769531 2.667969 92.945312 2.964844 C 94.117188 3.257812 95.28125 3.578125 96.4375 3.929688 C 97.59375 4.28125 98.742188 4.660156 99.878906 5.066406 C 101.015625 5.472656 102.144531 5.910156 103.261719 6.371094 C 104.378906 6.832031 105.480469 7.324219 106.574219 7.839844 C 107.667969 8.355469 108.746094 8.898438 109.8125 9.46875 C 110.878906 10.039062 111.929688 10.636719 112.964844 11.257812 C 114.003906 11.878906 115.023438 12.523438 116.027344 13.195312 C 117.03125 13.867188 118.019531 14.5625 118.992188 15.28125 C 119.960938 16.003906 120.914062 16.746094 121.847656 17.511719 C 122.78125 18.28125 123.699219 19.070312 124.59375 19.878906 C 125.488281 20.691406 126.363281 21.523438 127.21875 22.378906 C 128.074219 23.234375 128.90625 24.109375 129.71875 25.003906 C 130.53125 25.898438 131.320312 26.816406 132.085938 27.75 C 132.851562 28.683594 133.59375 29.636719 134.316406 30.605469 C 135.035156 31.578125 135.730469 32.566406 136.402344 33.570312 C 137.074219 34.574219 137.71875 35.597656 138.339844 36.632812 C 138.964844 37.667969 139.558594 38.71875 140.128906 39.785156 C 140.699219 40.851562 141.242188 41.933594 141.757812 43.023438 C 142.273438 44.117188 142.765625 45.222656 143.226562 46.339844 C 143.6875 47.453125 144.125 48.582031 144.53125 49.71875 C 144.9375 50.859375 145.316406 52.003906 145.667969 53.160156 C 146.019531 54.316406 146.339844 55.480469 146.636719 56.65625 C 146.929688 57.828125 147.195312 59.007812 147.429688 60.191406 C 147.664062 61.375 147.871094 62.566406 148.050781 63.761719 C 148.226562 64.957031 148.375 66.15625 148.492188 67.359375 C 148.609375 68.5625 148.699219 69.769531 148.757812 70.976562 C 148.820312 72.183594 148.847656 73.390625 148.847656 74.597656 C 148.847656 75.808594 148.820312 77.015625 148.757812 78.222656 C 148.699219 79.429688 148.609375 80.632812 148.492188 81.835938 C 148.375 83.039062 148.226562 84.238281 148.050781 85.433594 C 147.871094 86.628906 147.664062 87.820312 147.429688 89.003906 C 147.195312 90.191406 146.929688 91.371094 146.636719 92.542969 C 146.339844 93.714844 146.019531 94.878906 145.667969 96.035156 C 145.316406 97.191406 144.9375 98.339844 144.53125 99.476562 C 144.125 100.617188 143.691406 101.742188 143.226562 102.859375 C 142.765625 103.976562 142.273438 105.082031 141.757812 106.171875 C 141.242188 107.265625 140.699219 108.34375 140.128906 109.410156 C 139.558594 110.476562 138.964844 111.527344 138.34375 112.5625 C 137.71875 113.601562 137.074219 114.621094 136.402344 115.625 C 135.730469 116.632812 135.035156 117.621094 134.316406 118.589844 C 133.59375 119.5625 132.851562 120.511719 132.085938 121.449219 C 131.320312 122.382812 130.53125 123.296875 129.71875 124.191406 C 128.90625 125.085938 128.074219 125.960938 127.21875 126.816406 C 126.363281 127.671875 125.488281 128.503906 124.59375 129.316406 C 123.699219 130.128906 122.78125 130.917969 121.847656 131.683594 C 120.914062 132.449219 119.960938 133.195312 118.992188 133.914062 C 118.019531 134.632812 117.03125 135.328125 116.027344 136 C 115.023438 136.671875 114.003906 137.320312 112.964844 137.941406 C 111.929688 138.5625 110.878906 139.15625 109.8125 139.726562 C 108.746094 140.296875 107.667969 140.839844 106.574219 141.355469 C 105.480469 141.875 104.378906 142.363281 103.261719 142.824219 C 102.144531 143.289062 101.015625 143.722656 99.878906 144.128906 C 98.742188 144.539062 97.59375 144.917969 96.4375 145.265625 C 95.28125 145.617188 94.117188 145.941406 92.945312 146.234375 C 91.769531 146.527344 90.59375 146.792969 89.40625 147.027344 C 88.222656 147.265625 87.03125 147.46875 85.835938 147.648438 C 84.640625 147.824219 83.441406 147.972656 82.238281 148.089844 C 81.035156 148.210938 79.832031 148.300781 78.625 148.359375 C 77.417969 148.417969 76.207031 148.445312 75 148.445312 C 73.792969 148.445312 72.582031 148.417969 71.375 148.359375 C 70.167969 148.300781 68.964844 148.210938 67.761719 148.089844 C 66.558594 147.972656 65.359375 147.824219 64.164062 147.648438 C 62.96875 147.46875 61.777344 147.265625 60.59375 147.027344 C 59.40625 146.792969 58.226562 146.527344 57.054688 146.234375 C 55.882812 145.941406 54.71875 145.617188 53.5625 145.265625 C 52.40625 144.917969 51.257812 144.539062 50.121094 144.128906 C 48.984375 143.722656 47.855469 143.289062 46.738281 142.824219 C 45.621094 142.363281 44.519531 141.875 43.425781 141.355469 C 42.332031 140.839844 41.253906 140.296875 40.1875 139.726562 C 39.121094 139.15625 38.070312 138.5625 37.035156 137.941406 C 35.996094 137.320312 34.976562 136.671875 33.972656 136 C 32.964844 135.328125 31.980469 134.632812 31.007812 133.914062 C 30.039062 133.195312 29.085938 132.449219 28.152344 131.683594 C 27.214844 130.917969 26.300781 130.128906 25.40625 129.316406 C 24.511719 128.503906 23.636719 127.671875 22.78125 126.816406 C 21.925781 125.960938 21.09375 125.085938 20.28125 124.191406 C 19.46875 123.296875 18.679688 122.382812 17.914062 121.449219 C 17.148438 120.511719 16.402344 119.5625 15.683594 118.589844 C 14.964844 117.621094 14.269531 116.632812 13.597656 115.625 C 12.925781 114.621094 12.277344 113.601562 11.65625 112.5625 C 11.035156 111.527344 10.441406 110.476562 9.871094 109.410156 C 9.300781 108.34375 8.757812 107.265625 8.242188 106.171875 C 7.726562 105.082031 7.234375 103.976562 6.773438 102.859375 C 6.308594 101.742188 5.875 100.617188 5.46875 99.476562 C 5.0625 98.339844 4.683594 97.191406 4.332031 96.035156 C 3.980469 94.878906 3.65625 93.714844 3.363281 92.542969 C 3.070312 91.371094 2.804688 90.191406 2.570312 89.003906 C 2.335938 87.820312 2.128906 86.628906 1.949219 85.433594 C 1.773438 84.238281 1.625 83.039062 1.507812 81.835938 C 1.386719 80.632812 1.300781 79.429688 1.238281 78.222656 C 1.179688 77.015625 1.152344 75.808594 1.152344 74.597656 C 1.152344 73.390625 1.179688 72.183594 1.238281 70.976562 C 1.300781 69.769531 1.386719 68.5625 1.507812 67.359375 C 1.625 66.15625 1.773438 64.957031 1.949219 63.761719 C 2.128906 62.566406 2.335938 61.375 2.570312 60.191406 C 2.804688 59.007812 3.070312 57.828125 3.363281 56.65625 C 3.65625 55.484375 3.980469 54.316406 4.332031 53.160156 C 4.683594 52.003906 5.0625 50.859375 5.46875 49.71875 C 5.875 48.582031 6.308594 47.453125 6.773438 46.339844 C 7.234375 45.222656 7.726562 44.117188 8.242188 43.023438 C 8.757812 41.933594 9.300781 40.851562 9.871094 39.785156 C 10.441406 38.71875 11.035156 37.667969 11.65625 36.632812 C 12.277344 35.597656 12.925781 34.574219 13.597656 33.570312 C 14.269531 32.566406 14.964844 31.578125 15.683594 30.605469 C 16.402344 29.636719 17.148438 28.683594 17.914062 27.75 C 18.679688 26.816406 19.46875 25.898438 20.28125 25.003906 C 21.09375 24.109375 21.925781 23.234375 22.78125 22.378906 C 23.636719 21.523438 24.511719 20.691406 25.40625 19.878906 C 26.300781 19.070312 27.214844 18.28125 28.152344 17.511719 C 29.085938 16.746094 30.039062 16.003906 31.007812 15.28125 C 31.980469 14.5625 32.964844 13.867188 33.972656 13.195312 C 34.976562 12.523438 35.996094 11.878906 37.035156 11.257812 C 38.070312 10.636719 39.121094 10.039062 40.1875 9.46875 C 41.253906 8.898438 42.332031 8.355469 43.425781 7.839844 C 44.519531 7.324219 45.621094 6.832031 46.738281 6.371094 C 47.855469 5.910156 48.984375 5.472656 50.121094 5.066406 C 51.257812 4.660156 52.40625 4.28125 53.5625 3.929688 C 54.71875 3.578125 55.882812 3.257812 57.054688 2.964844 C 58.226562 2.667969 59.40625 2.40625 60.59375 2.167969 C 61.777344 1.933594 62.96875 1.726562 64.164062 1.550781 C 65.359375 1.371094 66.558594 1.222656 67.761719 1.105469 C 68.964844 0.988281 70.167969 0.898438 71.375 0.839844 C 72.582031 0.78125 73.792969 0.75 75 0.75 Z M 75 0.75 " fill-opacity="1" fill-rule="nonzero"/><g clip-path="url(#d0444644ad)"><path stroke-linecap="round" transform="matrix(0, -0.298378, 0.298378, 0, -0.961359, -163.146161)" fill="none" stroke-linejoin="miter" d="M -549.290096 254.580839 C -549.290096 258.626146 -549.394829 262.684545 -549.591203 266.729852 C -549.787578 270.775159 -550.088685 274.807375 -550.481433 278.83959 C -550.874181 282.871806 -551.371662 286.890929 -551.973876 290.896962 C -552.562999 294.902994 -553.256854 298.895935 -554.04235 302.862692 C -554.840939 306.842541 -555.718076 310.783116 -556.713039 314.72369 C -557.694909 318.651173 -558.768421 322.552472 -559.946666 326.427588 C -561.124911 330.302704 -562.394797 334.151637 -563.756324 337.961296 C -565.117852 341.770954 -566.584112 345.554429 -568.128922 349.298629 C -569.673731 353.042829 -571.323274 356.734663 -573.051366 360.400313 C -574.779459 364.065964 -576.599192 367.679248 -578.510567 371.253257 C -580.421942 374.827266 -582.424958 378.348909 -584.506524 381.818185 C -586.58809 385.300553 -588.748206 388.717463 -590.999962 392.082007 C -593.251719 395.44655 -595.582025 398.758727 -597.990881 402.018538 C -600.412829 405.265257 -602.900235 408.459609 -605.46619 411.588504 C -608.045237 414.717398 -610.689742 417.793927 -613.399705 420.791905 C -616.12276 423.789883 -618.911272 426.722404 -621.778335 429.589466 C -624.645397 432.456528 -627.577917 435.245041 -630.575896 437.968096 C -633.573874 440.69115 -636.650402 443.335655 -639.779297 445.901611 C -642.908191 448.467566 -646.102544 450.954972 -649.349263 453.376919 C -652.609074 455.785775 -655.921251 458.116082 -659.285794 460.367839 C -662.650338 462.619595 -666.080339 464.779711 -669.549615 466.861277 C -673.018892 468.955934 -676.540535 470.945858 -680.114544 472.857233 C -683.688553 474.768608 -687.314929 476.588342 -690.967488 478.316434 C -694.633138 480.044527 -698.338063 481.694069 -702.082263 483.238879 C -705.813372 484.783689 -709.596847 486.249949 -713.406505 487.611477 C -717.229255 488.973004 -721.065096 490.24289 -724.940213 491.421135 C -728.815329 492.59938 -732.716628 493.672891 -736.657202 494.667854 C -740.584685 495.649724 -744.538351 496.539954 -748.505108 497.32545 C -752.471866 498.110947 -756.464807 498.804802 -760.470839 499.407016 C -764.476871 499.996139 -768.495995 500.49362 -772.528211 500.886368 C -776.560426 501.279116 -780.605733 501.580223 -784.651041 501.776597 C -788.696348 501.986063 -792.741655 502.077704 -796.786962 502.077704 C -800.845361 502.077704 -804.890668 501.986063 -808.935975 501.776597 C -812.981282 501.580223 -817.013498 501.279116 -821.045713 500.886368 C -825.077929 500.49362 -829.097053 499.996139 -833.103085 499.407016 C -837.109117 498.804802 -841.102058 498.110947 -845.068815 497.32545 C -849.048665 496.539954 -853.00233 495.649724 -856.929813 494.667854 C -860.857296 493.672891 -864.758595 492.59938 -868.633711 491.421135 C -872.508828 490.24289 -876.357761 488.973004 -880.167419 487.611477 C -883.990169 486.249949 -887.760552 484.796781 -891.504752 483.238879 C -895.248952 481.694069 -898.953878 480.044527 -902.606436 478.316434 C -906.272087 476.588342 -909.885371 474.768608 -913.45938 472.857233 C -917.033389 470.945858 -920.555032 468.955934 -924.024309 466.874368 C -927.506676 464.779711 -930.923586 462.619595 -934.28813 460.367839 C -937.665765 458.116082 -940.977942 455.785775 -944.224661 453.376919 C -947.484472 450.954972 -950.665733 448.467566 -953.807719 445.901611 C -956.936613 443.335655 -960.00005 440.69115 -962.998028 437.968096 C -965.996007 435.245041 -968.928527 432.456528 -971.795589 429.589466 C -974.662652 426.722404 -977.451164 423.789883 -980.174219 420.791905 C -982.897274 417.793927 -985.541779 414.717398 -988.107734 411.588504 C -990.673689 408.459609 -993.174187 405.265257 -995.583043 402.018538 C -997.991899 398.758727 -1000.322205 395.44655 -1002.573962 392.082007 C -1004.825718 388.717463 -1006.998925 385.300553 -1009.080491 381.818185 C -1011.162057 378.348909 -1013.151982 374.827266 -1015.063357 371.253257 C -1016.974731 367.679248 -1018.794465 364.065964 -1020.522557 360.400313 C -1022.263741 356.734663 -1023.900193 353.042829 -1025.445002 349.298629 C -1027.002904 345.554429 -1028.456072 341.770954 -1029.8176 337.961296 C -1031.192219 334.151637 -1032.462105 330.302704 -1033.627258 326.427588 C -1034.805503 322.552472 -1035.892106 318.651173 -1036.873977 314.72369 C -1037.855848 310.783116 -1038.746077 306.842541 -1039.531574 302.862692 C -1040.330162 298.895935 -1041.010925 294.902994 -1041.613139 290.896962 C -1042.202262 286.890929 -1042.699743 282.871806 -1043.092491 278.83959 C -1043.498331 274.807375 -1043.799438 270.775159 -1043.995812 266.729852 C -1044.192186 262.684545 -1044.283828 258.626146 -1044.283828 254.580839 C -1044.283828 250.535532 -1044.192186 246.477133 -1043.995812 242.431826 C -1043.799438 238.386519 -1043.498331 234.354303 -1043.092491 230.322088 C -1042.699743 226.289872 -1042.202262 222.270748 -1041.613139 218.264716 C -1041.010925 214.258684 -1040.330162 210.265743 -1039.531574 206.298985 C -1038.746077 202.319136 -1037.855848 198.36547 -1036.873977 194.437988 C -1035.892106 190.510505 -1034.805503 186.609206 -1033.627258 182.734089 C -1032.462105 178.858973 -1031.192219 175.01004 -1029.8176 171.200382 C -1028.456072 167.390724 -1027.002904 163.607249 -1025.445002 159.863049 C -1023.900193 156.118849 -1022.263741 152.427015 -1020.522557 148.761364 C -1018.794465 145.095714 -1016.974731 141.48243 -1015.063357 137.908421 C -1013.151982 134.334411 -1011.162057 130.812769 -1009.080491 127.343492 C -1006.998925 123.861124 -1004.825718 120.444214 -1002.573962 117.079671 C -1000.322205 113.702036 -997.991899 110.40295 -995.583043 107.14314 C -993.174187 103.896421 -990.673689 100.702068 -988.107734 97.573174 C -985.541779 94.431188 -982.897274 91.367751 -980.174219 88.369773 C -977.451164 85.371794 -974.662652 82.439274 -971.795589 79.572212 C -968.928527 76.705149 -965.996007 73.916636 -962.998028 71.193582 C -960.00005 68.470527 -956.936613 65.826022 -953.807719 63.260067 C -950.665733 60.694112 -947.484472 58.193614 -944.224661 55.784758 C -940.977942 53.375902 -937.665765 51.045596 -934.28813 48.793839 C -930.923586 46.542082 -927.506676 44.368875 -924.024309 42.287309 C -920.555032 40.205744 -917.033389 38.215819 -913.45938 36.304444 C -909.885371 34.393069 -906.272087 32.573336 -902.606436 30.845243 C -898.953878 29.117151 -895.248952 27.467608 -891.504752 25.922798 C -887.760552 24.364897 -883.990169 22.911728 -880.167419 21.550201 C -876.357761 20.188674 -872.508828 18.918788 -868.633711 17.740543 C -864.758595 16.562298 -860.857296 15.475695 -856.929813 14.493824 C -853.00233 13.511953 -849.048665 12.621724 -845.068815 11.836227 C -841.102058 11.050731 -837.109117 10.356875 -833.103085 9.754661 C -829.097053 9.165539 -825.077929 8.668058 -821.045713 8.27531 C -817.013498 7.86947 -812.981282 7.581454 -808.935975 7.371989 C -804.890668 7.175615 -800.845361 7.083973 -796.786962 7.083973 C -792.741655 7.083973 -788.696348 7.175615 -784.651041 7.371989 C -780.605733 7.581454 -776.560426 7.86947 -772.528211 8.27531 C -768.495995 8.668058 -764.476871 9.165539 -760.470839 9.754661 C -756.464807 10.356875 -752.471866 11.050731 -748.505108 11.836227 C -744.538351 12.621724 -740.584685 13.511953 -736.657202 14.493824 C -732.72972 15.475695 -728.815329 16.562298 -724.940213 17.740543 C -721.065096 18.918788 -717.229255 20.188674 -713.406505 21.550201 C -709.596847 22.911728 -705.813372 24.364897 -702.082263 25.922798 C -698.338063 27.467608 -694.633138 29.117151 -690.967488 30.845243 C -687.314929 32.573336 -683.688553 34.393069 -680.114544 36.304444 C -676.540535 38.215819 -673.018892 40.205744 -669.549615 42.287309 C -666.080339 44.368875 -662.650338 46.542082 -659.285794 48.793839 C -655.921251 51.045596 -652.609074 53.375902 -649.349263 55.784758 C -646.102544 58.193614 -642.908191 60.694112 -639.779297 63.260067 C -636.650402 65.826022 -633.573874 68.470527 -630.575896 71.193582 C -627.577917 73.916636 -624.645397 76.705149 -621.778335 79.572212 C -618.911272 82.439274 -616.12276 85.371794 -613.399705 88.369773 C -610.689742 91.367751 -608.045237 94.431188 -605.46619 97.573174 C -602.900235 100.702068 -600.412829 103.896421 -597.990881 107.14314 C -595.582025 110.40295 -593.251719 113.702036 -590.999962 117.079671 C -588.748206 120.444214 -586.58809 123.861124 -584.506524 127.343492 C -582.424958 130.812769 -580.421942 134.334411 -578.510567 137.908421 C -576.599192 141.48243 -574.779459 145.095714 -573.051366 148.761364 C -571.323274 152.427015 -569.673731 156.118849 -568.128922 159.863049 C -566.584112 163.607249 -565.117852 167.390724 -563.756324 171.200382 C -562.394797 175.01004 -561.124911 178.858973 -559.946666 182.734089 C -558.768421 186.609206 -557.694909 190.510505 -556.713039 194.437988 C -555.718076 198.36547 -554.840939 202.319136 -554.04235 206.298985 C -553.256854 210.265743 -552.562999 214.258684 -551.973876 218.264716 C -551.371662 222.270748 -550.874181 226.289872 -550.481433 230.322088 C -550.088685 234.354303 -549.787578 238.386519 -549.591203 242.431826 C -549.394829 246.477133 -549.290096 250.535532 -549.290096 254.580839 Z M -549.290096 254.580839 " stroke="#004455" stroke-width="5" stroke-opacity="1" stroke-miterlimit="4"/></g><path stroke-linecap="round" transform="matrix(0.298378, 0, 0, 0.298378, 0.381641, -162.851375)" fill-opacity="1" fill="#00adef" fill-rule="evenodd" stroke-linejoin="miter" d="M 105.273553 655.915158 L 406.73403 655.915158 C 407.95155 655.915158 409.116703 656.137715 410.242581 656.609013 C 411.36846 657.067219 412.35033 657.734891 413.214377 658.598938 C 414.078423 659.449892 414.733003 660.444854 415.204301 661.570733 C 415.662507 662.68352 415.898156 663.848673 415.898156 665.066192 L 415.898156 887.165337 C 415.898156 888.382856 415.662507 889.548009 415.204301 890.673888 C 414.733003 891.799766 414.078423 892.781637 413.214377 893.645683 C 412.35033 894.509729 411.36846 895.16431 410.242581 895.635608 C 409.116703 896.093814 407.95155 896.329463 406.73403 896.329463 L 105.273553 896.329463 C 104.056033 896.329463 102.89088 896.093814 101.778093 895.635608 C 100.652215 895.16431 99.657253 894.509729 98.806298 893.645683 C 97.942252 892.781637 97.27458 891.799766 96.816374 890.673888 C 96.345076 889.548009 96.122518 888.382856 96.122518 887.165337 L 96.122518 665.066192 C 96.122518 663.848673 96.345076 662.68352 96.816374 661.570733 C 97.27458 660.444854 97.942252 659.449892 98.806298 658.598938 C 99.657253 657.734891 100.652215 657.067219 101.778093 656.609013 C 102.89088 656.137715 104.056033 655.915158 105.273553 655.915158 Z M 105.273553 655.915158 " stroke="#004455" stroke-width="1.2" stroke-opacity="1" stroke-miterlimit="4"/><path stroke-linecap="round" transform="matrix(0.298378, 0, 0, 0.298378, 0.381641, -162.851375)" fill-opacity="1" fill="#00adef" fill-rule="evenodd" stroke-linejoin="miter" d="M 75.045028 887.374802 L 436.792364 887.374802 C 436.792364 887.374802 444.987711 907.719163 407.205328 907.719163 L 254.661902 907.719163 L 105.443744 907.103857 C 67.831551 906.946758 75.045028 887.374802 75.045028 887.374802 Z M 75.045028 887.374802 " stroke="#004455" stroke-width="1.2" stroke-opacity="1" stroke-miterlimit="4"/><path stroke-linecap="round" transform="matrix(0.298378, 0, 0, 0.298378, 0.381641, -162.851375)" fill-opacity="1" fill="#55ddff" fill-rule="evenodd" stroke-linejoin="miter" d="M 121.062033 672.934249 L 390.853909 672.934249 L 390.853909 873.497697 L 121.062033 873.497697 Z M 121.062033 672.934249 " stroke="#004455" stroke-width="1.2" stroke-opacity="1" stroke-miterlimit="4"/><path stroke-linecap="round" transform="matrix(0.298378, 0, 0, 0.298378, 0.381641, -162.851375)" fill-opacity="1" fill="#5271ff" fill-rule="evenodd" stroke-linejoin="miter" d="M 120.800201 672.934249 L 390.867 672.934249 L 390.867 712.117435 L 120.800201 712.117435 Z M 120.800201 672.934249 " stroke="#004455" stroke-width="1.2" stroke-opacity="1" stroke-miterlimit="4"/><path fill="#55ddff" d="M 75.046875 41.742188 L 78.847656 41.742188 L 78.847656 46.238281 L 75.046875 46.238281 Z M 75.046875 41.742188 " fill-opacity="1" fill-rule="evenodd"/><path fill="#55ddff" d="M 83.875 43.082031 L 85.777344 43.082031 L 85.777344 45.023438 L 83.875 45.023438 Z M 83.875 43.082031 " fill-opacity="1" fill-rule="evenodd"/><path fill="#55ddff" d="M 87.675781 43.082031 L 89.574219 43.082031 L 89.574219 45.023438 L 87.675781 45.023438 Z M 87.675781 43.082031 " fill-opacity="1" fill-rule="evenodd"/><path fill="#55ddff" d="M 91.472656 43.082031 L 93.375 43.082031 L 93.375 45.023438 L 91.472656 45.023438 Z M 91.472656 43.082031 " fill-opacity="1" fill-rule="evenodd"/><path fill="#55ddff" d="M 95.273438 43.082031 L 97.175781 43.082031 L 97.175781 45.023438 L 95.273438 45.023438 Z M 95.273438 43.082031 " fill-opacity="1" fill-rule="evenodd"/><path fill="#55ddff" d="M 99.074219 43.082031 L 100.972656 43.082031 L 100.972656 45.023438 L 99.074219 45.023438 Z M 99.074219 43.082031 " fill-opacity="1" fill-rule="evenodd"/><path fill="#55ddff" d="M 46.855469 43.082031 L 67.710938 43.082031 C 67.976562 43.082031 68.207031 43.179688 68.394531 43.367188 C 68.585938 43.558594 68.679688 43.785156 68.679688 44.054688 C 68.679688 44.320312 68.585938 44.550781 68.394531 44.738281 C 68.207031 44.929688 67.976562 45.023438 67.710938 45.023438 L 46.855469 45.023438 C 46.585938 45.023438 46.359375 44.929688 46.167969 44.738281 C 45.980469 44.550781 45.882812 44.320312 45.882812 44.054688 C 45.882812 43.785156 45.980469 43.558594 46.167969 43.367188 C 46.359375 43.179688 46.585938 43.082031 46.855469 43.082031 Z M 46.855469 43.082031 " fill-opacity="1" fill-rule="evenodd"/><path fill="#00adef" d="M 92.15625 53.851562 L 109.496094 53.851562 C 109.820312 53.851562 110.136719 53.914062 110.4375 54.039062 C 110.738281 54.164062 111.003906 54.339844 111.234375 54.570312 C 111.464844 54.804688 111.644531 55.070312 111.769531 55.371094 C 111.894531 55.671875 111.953125 55.984375 111.953125 56.3125 L 111.953125 77.730469 C 111.953125 78.054688 111.894531 78.367188 111.769531 78.671875 C 111.644531 78.972656 111.464844 79.238281 111.234375 79.46875 C 111.003906 79.699219 110.738281 79.875 110.4375 80 C 110.136719 80.125 109.820312 80.1875 109.496094 80.1875 L 92.15625 80.1875 C 91.828125 80.1875 91.515625 80.125 91.214844 80 C 90.914062 79.875 90.644531 79.699219 90.414062 79.46875 C 90.183594 79.238281 90.007812 78.972656 89.882812 78.671875 C 89.757812 78.367188 89.695312 78.054688 89.695312 77.730469 L 89.695312 56.3125 C 89.695312 55.984375 89.757812 55.671875 89.882812 55.371094 C 90.007812 55.070312 90.183594 54.804688 90.414062 54.570312 C 90.644531 54.339844 90.914062 54.164062 91.214844 54.039062 C 91.515625 53.914062 91.828125 53.851562 92.15625 53.851562 Z M 92.15625 53.851562 " fill-opacity="1" fill-rule="evenodd"/><path fill="#00adef" d="M 89.792969 82.644531 L 110.648438 82.644531 C 110.917969 82.644531 111.144531 82.738281 111.335938 82.929688 C 111.523438 83.117188 111.621094 83.347656 111.621094 83.617188 C 111.621094 83.882812 111.523438 84.113281 111.335938 84.300781 C 111.144531 84.492188 110.917969 84.585938 110.648438 84.585938 L 89.792969 84.585938 C 89.527344 84.585938 89.296875 84.492188 89.109375 84.300781 C 88.917969 84.113281 88.824219 83.882812 88.824219 83.617188 C 88.824219 83.347656 88.917969 83.117188 89.109375 82.929688 C 89.296875 82.738281 89.527344 82.644531 89.792969 82.644531 Z M 89.792969 82.644531 " fill-opacity="1" fill-rule="evenodd"/><path fill="#00adef" d="M 89.792969 85.925781 L 110.648438 85.925781 C 110.917969 85.925781 111.144531 86.019531 111.335938 86.207031 C 111.523438 86.398438 111.621094 86.625 111.621094 86.894531 C 111.621094 87.164062 111.523438 87.390625 111.335938 87.582031 C 111.144531 87.769531 110.917969 87.863281 110.648438 87.863281 L 89.792969 87.863281 C 89.527344 87.863281 89.296875 87.769531 89.109375 87.582031 C 88.917969 87.390625 88.824219 87.164062 88.824219 86.894531 C 88.824219 86.625 88.917969 86.398438 89.109375 86.207031 C 89.296875 86.019531 89.527344 85.925781 89.792969 85.925781 Z M 89.792969 85.925781 " fill-opacity="1" fill-rule="evenodd"/><path fill="#00adef" d="M 89.792969 89.203125 L 110.648438 89.203125 C 110.917969 89.203125 111.144531 89.296875 111.335938 89.488281 C 111.523438 89.675781 111.621094 89.90625 111.621094 90.175781 C 111.621094 90.441406 111.523438 90.671875 111.335938 90.859375 C 111.144531 91.050781 110.917969 91.144531 110.648438 91.144531 L 89.792969 91.144531 C 89.527344 91.144531 89.296875 91.050781 89.109375 90.859375 C 88.917969 90.671875 88.824219 90.441406 88.824219 90.175781 C 88.824219 89.90625 88.917969 89.675781 89.109375 89.488281 C 89.296875 89.296875 89.527344 89.203125 89.792969 89.203125 Z M 89.792969 89.203125 " fill-opacity="1" fill-rule="evenodd"/><path fill="#00adef" d="M 89.792969 92.484375 L 110.648438 92.484375 C 110.917969 92.484375 111.144531 92.578125 111.335938 92.765625 C 111.523438 92.957031 111.621094 93.183594 111.621094 93.453125 C 111.621094 93.722656 111.523438 93.949219 111.335938 94.140625 C 111.144531 94.328125 110.917969 94.421875 110.648438 94.421875 L 89.792969 94.421875 C 89.527344 94.421875 89.296875 94.328125 89.109375 94.140625 C 88.917969 93.949219 88.824219 93.722656 88.824219 93.453125 C 88.824219 93.183594 88.917969 92.957031 89.109375 92.765625 C 89.296875 92.578125 89.527344 92.484375 89.792969 92.484375 Z M 89.792969 92.484375 " fill-opacity="1" fill-rule="evenodd"/><path fill="#00adef" d="M 52.296875 55.175781 L 67.453125 55.175781 C 67.722656 55.175781 67.949219 55.269531 68.140625 55.460938 C 68.328125 55.648438 68.421875 55.878906 68.421875 56.148438 C 68.421875 56.414062 68.328125 56.644531 68.140625 56.832031 C 67.949219 57.023438 67.722656 57.117188 67.453125 57.117188 L 52.296875 57.117188 C 52.027344 57.117188 51.800781 57.023438 51.609375 56.832031 C 51.421875 56.644531 51.328125 56.414062 51.328125 56.148438 C 51.328125 55.878906 51.421875 55.648438 51.609375 55.460938 C 51.800781 55.269531 52.027344 55.175781 52.296875 55.175781 Z M 52.296875 55.175781 " fill-opacity="1" fill-rule="evenodd"/><path fill="#5271ff" d="M 42.210938 59.949219 L 74.464844 59.949219 C 74.734375 59.949219 74.960938 60.046875 75.152344 60.234375 C 75.339844 60.425781 75.4375 60.652344 75.4375 60.921875 C 75.4375 61.1875 75.339844 61.417969 75.152344 61.605469 C 74.960938 61.796875 74.734375 61.890625 74.464844 61.890625 L 42.210938 61.890625 C 41.945312 61.890625 41.714844 61.796875 41.527344 61.605469 C 41.335938 61.417969 41.242188 61.1875 41.242188 60.921875 C 41.242188 60.652344 41.335938 60.425781 41.527344 60.234375 C 41.714844 60.046875 41.945312 59.949219 42.210938 59.949219 Z M 42.210938 59.949219 " fill-opacity="1" fill-rule="evenodd"/><path fill="#5271ff" d="M 42.210938 64.042969 L 74.464844 64.042969 C 74.734375 64.042969 74.960938 64.140625 75.152344 64.328125 C 75.339844 64.519531 75.4375 64.746094 75.4375 65.015625 C 75.4375 65.28125 75.339844 65.511719 75.152344 65.699219 C 74.960938 65.890625 74.734375 65.984375 74.464844 65.984375 L 42.210938 65.984375 C 41.945312 65.984375 41.714844 65.890625 41.527344 65.699219 C 41.335938 65.511719 41.242188 65.28125 41.242188 65.015625 C 41.242188 64.746094 41.335938 64.519531 41.527344 64.328125 C 41.714844 64.140625 41.945312 64.042969 42.210938 64.042969 Z M 42.210938 64.042969 " fill-opacity="1" fill-rule="evenodd"/><path fill="#5271ff" d="M 42.210938 68.136719 L 74.464844 68.136719 C 74.734375 68.136719 74.960938 68.234375 75.152344 68.421875 C 75.339844 68.613281 75.4375 68.839844 75.4375 69.109375 C 75.4375 69.375 75.339844 69.605469 75.152344 69.792969 C 74.960938 69.984375 74.734375 70.078125 74.464844 70.078125 L 42.210938 70.078125 C 41.945312 70.078125 41.714844 69.984375 41.527344 69.792969 C 41.335938 69.605469 41.242188 69.375 41.242188 69.109375 C 41.242188 68.839844 41.335938 68.613281 41.527344 68.421875 C 41.714844 68.234375 41.945312 68.136719 42.210938 68.136719 Z M 42.210938 68.136719 " fill-opacity="1" fill-rule="evenodd"/><path fill="#5271ff" d="M 42.210938 72.230469 L 74.464844 72.230469 C 74.734375 72.230469 74.960938 72.328125 75.152344 72.515625 C 75.339844 72.707031 75.4375 72.933594 75.4375 73.203125 C 75.4375 73.46875 75.339844 73.699219 75.152344 73.886719 C 74.960938 74.078125 74.734375 74.171875 74.464844 74.171875 L 42.210938 74.171875 C 41.945312 74.171875 41.714844 74.078125 41.527344 73.886719 C 41.335938 73.699219 41.242188 73.46875 41.242188 73.203125 C 41.242188 72.933594 41.335938 72.707031 41.527344 72.515625 C 41.714844 72.328125 41.945312 72.230469 42.210938 72.230469 Z M 42.210938 72.230469 " fill-opacity="1" fill-rule="evenodd"/><path fill="#5271ff" d="M 42.210938 76.324219 L 74.464844 76.324219 C 74.734375 76.324219 74.960938 76.417969 75.152344 76.605469 C 75.339844 76.796875 75.4375 77.023438 75.4375 77.292969 C 75.4375 77.5625 75.339844 77.789062 75.152344 77.980469 C 74.960938 78.167969 74.734375 78.261719 74.464844 78.261719 L 42.210938 78.261719 C 41.945312 78.261719 41.714844 78.167969 41.527344 77.980469 C 41.335938 77.789062 41.242188 77.5625 41.242188 77.292969 C 41.242188 77.023438 41.335938 76.796875 41.527344 76.605469 C 41.714844 76.417969 41.945312 76.324219 42.210938 76.324219 Z M 42.210938 76.324219 " fill-opacity="1" fill-rule="evenodd"/><path fill="#5271ff" d="M 42.210938 80.417969 L 74.464844 80.417969 C 74.734375 80.417969 74.960938 80.511719 75.152344 80.699219 C 75.339844 80.890625 75.4375 81.117188 75.4375 81.386719 C 75.4375 81.65625 75.339844 81.882812 75.152344 82.074219 C 74.960938 82.261719 74.734375 82.355469 74.464844 82.355469 L 42.210938 82.355469 C 41.945312 82.355469 41.714844 82.261719 41.527344 82.074219 C 41.335938 81.882812 41.242188 81.65625 41.242188 81.386719 C 41.242188 81.117188 41.335938 80.890625 41.527344 80.699219 C 41.714844 80.511719 41.945312 80.417969 42.210938 80.417969 Z M 42.210938 80.417969 " fill-opacity="1" fill-rule="evenodd"/><path fill="#5271ff" d="M 42.210938 84.511719 L 74.464844 84.511719 C 74.734375 84.511719 74.960938 84.605469 75.152344 84.792969 C 75.339844 84.984375 75.4375 85.210938 75.4375 85.480469 C 75.4375 85.75 75.339844 85.976562 75.152344 86.167969 C 74.960938 86.355469 74.734375 86.449219 74.464844 86.449219 L 42.210938 86.449219 C 41.945312 86.449219 41.714844 86.355469 41.527344 86.167969 C 41.335938 85.976562 41.242188 85.75 41.242188 85.480469 C 41.242188 85.210938 41.335938 84.984375 41.527344 84.792969 C 41.714844 84.605469 41.945312 84.511719 42.210938 84.511719 Z M 42.210938 84.511719 " fill-opacity="1" fill-rule="evenodd"/><path fill="#5271ff" d="M 42.210938 88.601562 L 74.464844 88.601562 C 74.734375 88.601562 74.960938 88.695312 75.152344 88.886719 C 75.339844 89.074219 75.4375 89.304688 75.4375 89.570312 C 75.4375 89.839844 75.339844 90.066406 75.152344 90.257812 C 74.960938 90.445312 74.734375 90.542969 74.464844 90.542969 L 42.210938 90.542969 C 41.945312 90.542969 41.714844 90.445312 41.527344 90.257812 C 41.335938 90.066406 41.242188 89.839844 41.242188 89.570312 C 41.242188 89.304688 41.335938 89.074219 41.527344 88.886719 C 41.714844 88.695312 41.945312 88.601562 42.210938 88.601562 Z M 42.210938 88.601562 " fill-opacity="1" fill-rule="evenodd"/><path fill="#5271ff" d="M 42.210938 88.601562 L 74.464844 88.601562 C 74.734375 88.601562 74.960938 88.695312 75.152344 88.886719 C 75.339844 89.074219 75.4375 89.304688 75.4375 89.570312 C 75.4375 89.839844 75.339844 90.066406 75.152344 90.257812 C 74.960938 90.445312 74.734375 90.542969 74.464844 90.542969 L 42.210938 90.542969 C 41.945312 90.542969 41.714844 90.445312 41.527344 90.257812 C 41.335938 90.066406 41.242188 89.839844 41.242188 89.570312 C 41.242188 89.304688 41.335938 89.074219 41.527344 88.886719 C 41.714844 88.695312 41.945312 88.601562 42.210938 88.601562 Z M 42.210938 88.601562 " fill-opacity="1" fill-rule="evenodd"/><path fill="#00adef" d="M 65.0625 91.867188 L 72.617188 91.867188 C 72.886719 91.867188 73.117188 91.960938 73.304688 92.152344 C 73.496094 92.339844 73.589844 92.570312 73.589844 92.839844 C 73.589844 93.105469 73.496094 93.335938 73.304688 93.523438 C 73.117188 93.714844 72.886719 93.808594 72.617188 93.808594 L 65.0625 93.808594 C 64.792969 93.808594 64.566406 93.714844 64.375 93.523438 C 64.1875 93.335938 64.089844 93.105469 64.089844 92.839844 C 64.089844 92.570312 64.1875 92.339844 64.375 92.152344 C 64.566406 91.960938 64.792969 91.867188 65.0625 91.867188 Z M 65.0625 91.867188 " fill-opacity="1" fill-rule="evenodd"/><path stroke-linecap="round" transform="matrix(0.298378, 0, 0, 0.298378, 0.381641, -162.851375)" fill-opacity="1" fill="#55ddff" fill-rule="evenodd" stroke-linejoin="miter" d="M 229.99731 886.916596 L 289.996154 886.916596 C 289.996154 886.916596 292.313369 895.714157 284.995159 895.714157 L 234.513916 895.714157 C 227.234981 895.714157 229.99731 886.916596 229.99731 886.916596 Z M 229.99731 886.916596 " stroke="#004455" stroke-width="1.2" stroke-opacity="1" stroke-miterlimit="4"/><g fill="#000000" fill-opacity="1"><g transform="translate(47.323763, 171.036803)"><g><path d="M 5.609375 -11.96875 C 5.328125 -11.96875 5.113281 -11.945312 4.96875 -11.90625 L 4.96875 -12.6875 L 5.890625 -12.6875 C 7.460938 -12.6875 8.644531 -12.394531 9.4375 -11.8125 C 10.164062 -11.269531 10.53125 -10.519531 10.53125 -9.5625 C 10.53125 -8.800781 10.25 -8.164062 9.6875 -7.65625 C 9.132812 -7.144531 8.382812 -6.835938 7.4375 -6.734375 L 7.4375 -6.703125 C 9.207031 -6.460938 10.351562 -5.820312 10.875 -4.78125 C 11.070312 -4.414062 11.171875 -3.984375 11.171875 -3.484375 C 11.171875 -2.992188 11.082031 -2.535156 10.90625 -2.109375 C 10.738281 -1.679688 10.472656 -1.3125 10.109375 -1 C 9.328125 -0.332031 8.191406 0 6.703125 0 L 4.96875 0 L 4.96875 -0.78125 C 5.09375 -0.75 5.359375 -0.734375 5.765625 -0.734375 C 6.796875 -0.734375 7.550781 -0.941406 8.03125 -1.359375 C 8.519531 -1.773438 8.765625 -2.445312 8.765625 -3.375 C 8.765625 -4.289062 8.503906 -4.992188 7.984375 -5.484375 C 7.460938 -5.984375 6.671875 -6.234375 5.609375 -6.234375 L 4.96875 -6.234375 L 4.96875 -7.015625 L 5.3125 -7.015625 C 7.175781 -7.015625 8.109375 -7.859375 8.109375 -9.546875 C 8.109375 -11.160156 7.273438 -11.96875 5.609375 -11.96875 Z M 4.21875 0 L 0.75 0 L 0.75 -0.53125 C 0.90625 -0.601562 1.0625 -0.660156 1.21875 -0.703125 C 1.375 -0.742188 1.507812 -0.796875 1.625 -0.859375 C 1.875 -1.003906 2 -1.265625 2 -1.640625 L 2 -11.046875 C 2 -11.429688 1.875 -11.695312 1.625 -11.84375 C 1.507812 -11.90625 1.375 -11.957031 1.21875 -12 C 1.0625 -12.039062 0.90625 -12.097656 0.75 -12.171875 L 0.75 -12.6875 L 4.21875 -12.6875 Z M 4.21875 0 "/></g></g></g><g fill="#000000" fill-opacity="1"><g transform="translate(62.042684, 171.036803)"><g><path d="M 0.796875 0 L 0.796875 -0.53125 C 0.910156 -0.601562 1.03125 -0.648438 1.15625 -0.671875 C 1.28125 -0.703125 1.398438 -0.738281 1.515625 -0.78125 C 1.796875 -0.875 1.957031 -1.039062 2 -1.28125 C 2.039062 -1.519531 2.0625 -1.828125 2.0625 -2.203125 L 2.0625 -10.5 C 2.0625 -11.195312 1.984375 -11.609375 1.828125 -11.734375 C 1.703125 -11.835938 1.523438 -11.914062 1.296875 -11.96875 C 1.078125 -12.03125 0.910156 -12.097656 0.796875 -12.171875 L 0.796875 -12.6875 L 5.609375 -12.6875 L 5.609375 -12.171875 C 5.472656 -12.097656 5.335938 -12.046875 5.203125 -12.015625 C 5.066406 -11.984375 4.9375 -11.945312 4.8125 -11.90625 C 4.53125 -11.800781 4.375 -11.640625 4.34375 -11.421875 C 4.300781 -11.179688 4.28125 -10.882812 4.28125 -10.53125 L 4.28125 0 Z M 5.03125 -0.734375 C 5.113281 -0.734375 5.207031 -0.734375 5.3125 -0.734375 L 5.609375 -0.734375 C 6.722656 -0.734375 7.523438 -1.082031 8.015625 -1.78125 C 8.242188 -2.101562 8.421875 -2.472656 8.546875 -2.890625 C 8.671875 -3.304688 8.757812 -3.585938 8.8125 -3.734375 C 8.925781 -4.054688 9.066406 -4.320312 9.234375 -4.53125 L 9.796875 -4.53125 L 9.796875 0 L 5.03125 0 Z M 5.03125 -0.734375 "/></g></g></g><g fill="#000000" fill-opacity="1"><g transform="translate(74.984708, 171.036803)"><g><path d="M 6 0.265625 C 4.46875 0.160156 3.207031 -0.523438 2.21875 -1.796875 C 1.25 -3.035156 0.765625 -4.554688 0.765625 -6.359375 C 0.765625 -8.128906 1.25 -9.632812 2.21875 -10.875 C 3.207031 -12.15625 4.46875 -12.847656 6 -12.953125 L 6 -12.21875 C 5.125 -12.132812 4.460938 -11.671875 4.015625 -10.828125 C 3.523438 -9.859375 3.28125 -8.367188 3.28125 -6.359375 C 3.28125 -3.390625 3.8125 -1.554688 4.875 -0.859375 C 5.207031 -0.640625 5.582031 -0.507812 6 -0.46875 Z M 6.734375 -0.46875 C 8.066406 -0.601562 8.90625 -1.664062 9.25 -3.65625 C 9.382812 -4.394531 9.453125 -5.296875 9.453125 -6.359375 C 9.453125 -9.304688 8.921875 -11.128906 7.859375 -11.828125 C 7.523438 -12.046875 7.148438 -12.175781 6.734375 -12.21875 L 6.734375 -12.96875 C 8.273438 -12.851562 9.539062 -12.164062 10.53125 -10.90625 C 11.5 -9.65625 11.984375 -8.132812 11.984375 -6.34375 C 11.984375 -4.5625 11.5 -3.046875 10.53125 -1.796875 C 9.539062 -0.535156 8.273438 0.148438 6.734375 0.265625 Z M 6.734375 -0.46875 "/></g></g></g><g fill="#000000" fill-opacity="1"><g transform="translate(90.48939, 171.036803)"><g><path d="M 9.15625 -12.109375 C 9.363281 -12.109375 9.515625 -12.269531 9.609375 -12.59375 L 10.375 -12.59375 L 10.375 -8.140625 L 9.78125 -8.140625 C 9.53125 -8.453125 9.3125 -8.875 9.125 -9.40625 C 8.945312 -9.945312 8.800781 -10.359375 8.6875 -10.640625 C 8.582031 -10.921875 8.441406 -11.175781 8.265625 -11.40625 C 7.867188 -11.894531 7.300781 -12.160156 6.5625 -12.203125 L 6.5625 -12.96875 C 7.101562 -12.925781 7.570312 -12.8125 7.96875 -12.625 C 8.375 -12.445312 8.648438 -12.316406 8.796875 -12.234375 C 8.941406 -12.148438 9.0625 -12.109375 9.15625 -12.109375 Z M 10.625 -2.15625 C 10.625 -1.613281 10.722656 -1.128906 10.921875 -0.703125 L 10.59375 -0.484375 C 9.96875 -0.304688 9.101562 -0.21875 8 -0.21875 C 7.9375 -0.21875 7.800781 -0.179688 7.59375 -0.109375 C 7.195312 0.0234375 6.851562 0.117188 6.5625 0.171875 L 6.5625 -0.46875 C 7.238281 -0.5 7.71875 -0.765625 8 -1.265625 C 8.269531 -1.734375 8.40625 -2.476562 8.40625 -3.5 C 8.40625 -4.050781 8.382812 -4.4375 8.34375 -4.65625 C 8.3125 -4.875 8.242188 -5.023438 8.140625 -5.109375 C 8.046875 -5.203125 7.925781 -5.269531 7.78125 -5.3125 C 7.644531 -5.363281 7.492188 -5.40625 7.328125 -5.4375 C 7.171875 -5.46875 7.019531 -5.507812 6.875 -5.5625 L 6.875 -6.171875 L 11.5625 -6.171875 C 11.53125 -5.953125 11.460938 -5.78125 11.359375 -5.65625 C 11.265625 -5.53125 11.164062 -5.40625 11.0625 -5.28125 C 10.769531 -4.96875 10.625 -4.597656 10.625 -4.171875 Z M 5.828125 -12.15625 C 4.148438 -11.820312 3.3125 -9.867188 3.3125 -6.296875 C 3.3125 -3.378906 3.820312 -1.578125 4.84375 -0.890625 C 5.144531 -0.691406 5.472656 -0.5625 5.828125 -0.5 L 5.828125 0.21875 C 4.285156 0.21875 3.054688 -0.378906 2.140625 -1.578125 C 1.234375 -2.773438 0.78125 -4.367188 0.78125 -6.359375 C 0.78125 -8.128906 1.25 -9.632812 2.1875 -10.875 C 3.132812 -12.144531 4.347656 -12.835938 5.828125 -12.953125 Z M 5.828125 -12.15625 "/></g></g></g></svg>