<svg width="45" height="36" viewBox="0 0 45 36" fill="none" xmlns="http://www.w3.org/2000/svg">
<g clip-path="url(#clip0_74_2)">
<mask id="mask0_74_2" style="mask-type:luminance" maskUnits="userSpaceOnUse" x="0" y="20" width="24" height="16">
<path d="M0 20.1738H23.4783V35.9429H0V20.1738Z" fill="white"/>
</mask>
<g mask="url(#mask0_74_2)">
<path d="M22.3761 35.8787H22.3659C17.0432 35.8787 11.8904 34.357 7.85676 31.5947C3.86559 28.8624 1.19406 25.0907 0.332983 20.9684C0.270144 20.6763 0.518105 20.4018 0.881557 20.3515C1.24671 20.3013 1.58978 20.4996 1.65262 20.7904C2.46104 24.664 4.97293 28.2157 8.72802 30.7795C12.5239 33.3774 17.3659 34.8053 22.371 34.8053C22.7396 34.8053 23.047 35.0458 23.047 35.342C23.047 35.6369 22.7515 35.8787 22.3812 35.8787H22.3761Z" fill="#F7FBFC"/>
</g>
<path d="M25.9392 35.6428C25.6182 35.6428 25.3328 35.4567 25.2802 35.1945C25.2207 34.9037 25.4636 34.6279 25.8288 34.5776C30.6759 33.9363 35.1154 31.9254 38.3254 28.9227C41.5726 25.8847 43.3627 22.0083 43.3627 18.0083V17.9703C43.3627 17.6741 43.6633 17.4336 44.0336 17.4336C44.4038 17.4336 44.7044 17.6741 44.7044 17.9703V18.0029C44.7044 22.2651 42.804 26.3915 39.3444 29.6184C35.929 32.8127 31.2092 34.9499 26.0512 35.6374C26.0139 35.6428 25.9765 35.6469 25.9392 35.6469V35.6428Z" fill="#F8FBFC"/>
<path d="M0.696257 18.5611C0.327711 18.5611 0.0270996 18.3206 0.0270996 18.0245V18.0081C0.0270996 13.7541 1.92758 9.63179 5.37527 6.40489C8.78559 3.21195 13.5003 1.07472 18.6531 0.381789C19.0183 0.335593 19.3613 0.529887 19.4242 0.820647C19.487 1.11277 19.2391 1.38722 18.8756 1.4375C14.0336 2.08423 9.60421 4.09375 6.39429 7.09782C3.1521 10.1345 1.36711 14.0081 1.36711 18.0081V18.0245C1.36711 18.3206 1.0665 18.5611 0.696257 18.5611Z" fill="#F7FBFD"/>
<mask id="mask1_74_2" style="mask-type:luminance" maskUnits="userSpaceOnUse" x="21" y="0" width="24" height="16">
<path d="M21.3044 0.115234H44.7827V15.6519H21.3044V0.115234Z" fill="white"/>
</mask>
<g mask="url(#mask1_74_2)">
<path d="M43.7331 15.6501C43.4104 15.6501 43.1302 15.4639 43.0724 15.2017C42.2589 11.3335 39.747 7.79 35.9919 5.2207C32.1961 2.62831 27.354 1.20032 22.3608 1.20032H22.3234C21.9532 1.20032 21.6526 0.959833 21.6526 0.663638C21.6526 0.367442 21.9532 0.126953 22.3234 0.126953H22.3608C27.6767 0.126953 32.8245 1.64733 36.8632 4.40549C40.8544 7.1351 43.5259 10.9028 44.3921 15.021C44.4566 15.3117 44.2069 15.5862 43.8435 15.6378C43.8061 15.6419 43.7688 15.646 43.7331 15.646V15.6501Z" fill="#F9FDFF"/>
</g>
<g clip-path="url(#clip1_74_2)">
<path fill-rule="evenodd" clip-rule="evenodd" d="M10.6097 8.8125H35.5037C35.6043 8.8125 35.7005 8.82813 35.7934 8.86123C35.8864 8.89342 35.9675 8.94031 36.0389 9.001C36.1102 9.06077 36.1643 9.13065 36.2032 9.20973C36.241 9.28788 36.2605 9.36972 36.2605 9.45523V25.0546C36.2605 25.1401 36.241 25.222 36.2032 25.301C36.1643 25.3801 36.1102 25.4491 36.0389 25.5098C35.9675 25.5705 35.8864 25.6164 35.7934 25.6495C35.7005 25.6817 35.6043 25.6983 35.5037 25.6983H10.6097C10.5091 25.6983 10.4129 25.6817 10.321 25.6495C10.2281 25.6164 10.1459 25.5705 10.0756 25.5098C10.0043 25.4491 9.94914 25.3801 9.9113 25.301C9.87238 25.222 9.854 25.1401 9.854 25.0546V9.45523C9.854 9.36972 9.87238 9.28788 9.9113 9.20973C9.94914 9.13065 10.0043 9.06077 10.0756 9.001C10.1459 8.94031 10.2281 8.89342 10.321 8.86123C10.4129 8.82813 10.5091 8.8125 10.6097 8.8125Z" fill="#F7FCFF" stroke="#1E1F1F" stroke-width="0.477405" stroke-linecap="round"/>
<path fill-rule="evenodd" clip-rule="evenodd" d="M8.11341 25.0684H37.9858C37.9858 25.0684 38.6626 26.4973 35.5426 26.4973H22.9458L10.6237 26.4541C7.51773 26.443 8.11341 25.0684 8.11341 25.0684Z" fill="#C0C5C6" stroke="#3C3E3E" stroke-width="0.477405" stroke-linecap="round"/>
<path fill-rule="evenodd" clip-rule="evenodd" d="M11.9136 10.0078H34.1925V24.0946H11.9136V10.0078Z" fill="#0096FF" stroke="#004455" stroke-width="0.477405" stroke-linecap="round"/>
<path fill-rule="evenodd" clip-rule="evenodd" d="M11.8918 10.0078H34.1935V12.7599H11.8918V10.0078Z" fill="#ECF1F8" stroke="#004455" stroke-width="0.477405" stroke-linecap="round"/>
<path fill-rule="evenodd" clip-rule="evenodd" d="M22.5806 10.9023H23.6325V11.9607H22.5806V10.9023Z" fill="#00ADEF"/>
<path fill-rule="evenodd" clip-rule="evenodd" d="M25.0237 11.2188H25.5502V11.6757H25.0237V11.2188Z" fill="#00ADEF"/>
<path fill-rule="evenodd" clip-rule="evenodd" d="M26.0757 11.2188H26.6011V11.6757H26.0757V11.2188Z" fill="#00ADEF"/>
<path fill-rule="evenodd" clip-rule="evenodd" d="M27.1265 11.2188H27.653V11.6757H27.1265V11.2188Z" fill="#00ADEF"/>
<path fill-rule="evenodd" clip-rule="evenodd" d="M28.1785 11.2188H28.705V11.6757H28.1785V11.2188Z" fill="#00ADEF"/>
<path fill-rule="evenodd" clip-rule="evenodd" d="M29.2302 11.2188H29.7556V11.6757H29.2302V11.2188Z" fill="#00ADEF"/>
<path fill-rule="evenodd" clip-rule="evenodd" d="M14.7785 11.2188H20.5504C20.6239 11.2188 20.6877 11.2417 20.7395 11.2859C20.7925 11.3309 20.8185 11.3843 20.8185 11.4477C20.8185 11.5102 20.7925 11.5645 20.7395 11.6086C20.6877 11.6537 20.6239 11.6757 20.5504 11.6757H14.7785C14.7039 11.6757 14.6412 11.6537 14.5882 11.6086C14.5363 11.5645 14.5093 11.5102 14.5093 11.4477C14.5093 11.3843 14.5363 11.3309 14.5882 11.2859C14.6412 11.2417 14.7039 11.2188 14.7785 11.2188Z" fill="#F6FCFE"/>
<path fill-rule="evenodd" clip-rule="evenodd" d="M27.3156 13.7539H32.1145C32.2043 13.7539 32.2918 13.7686 32.3751 13.798C32.4583 13.8275 32.5318 13.8688 32.5956 13.9231C32.6594 13.9783 32.7091 14.0408 32.7437 14.1116C32.7783 14.1824 32.7945 14.256 32.7945 14.3332V19.3748C32.7945 19.4512 32.7783 19.5247 32.7437 19.5964C32.7091 19.6672 32.6594 19.7298 32.5956 19.784C32.5318 19.8383 32.4583 19.8796 32.3751 19.9091C32.2918 19.9385 32.2043 19.9532 32.1145 19.9532H27.3156C27.2248 19.9532 27.1383 19.9385 27.0551 19.9091C26.9718 19.8796 26.8972 19.8383 26.8334 19.784C26.7697 19.7298 26.721 19.6672 26.6864 19.5964C26.6518 19.5247 26.6345 19.4512 26.6345 19.3748V14.3332C26.6345 14.256 26.6518 14.1824 26.6864 14.1116C26.721 14.0408 26.7697 13.9783 26.8334 13.9231C26.8972 13.8688 26.9718 13.8275 27.0551 13.798C27.1383 13.7686 27.2248 13.7539 27.3156 13.7539Z" fill="#F2F8FA"/>
<path fill-rule="evenodd" clip-rule="evenodd" d="M26.6617 20.5312H32.4336C32.5081 20.5312 32.5709 20.5533 32.6238 20.5984C32.6757 20.6425 32.7027 20.6968 32.7027 20.7602C32.7027 20.8227 32.6757 20.877 32.6238 20.9211C32.5709 20.9662 32.5081 20.9882 32.4336 20.9882H26.6617C26.5881 20.9882 26.5244 20.9662 26.4725 20.9211C26.4195 20.877 26.3936 20.8227 26.3936 20.7602C26.3936 20.6968 26.4195 20.6425 26.4725 20.5984C26.5244 20.5533 26.5881 20.5312 26.6617 20.5312Z" fill="#F3F7F9"/>
<path fill-rule="evenodd" clip-rule="evenodd" d="M26.6617 21.3027H32.4336C32.5081 21.3027 32.5709 21.3248 32.6238 21.3689C32.6757 21.414 32.7027 21.4673 32.7027 21.5308C32.7027 21.5942 32.6757 21.6475 32.6238 21.6926C32.5709 21.7367 32.5081 21.7588 32.4336 21.7588H26.6617C26.5881 21.7588 26.5244 21.7367 26.4725 21.6926C26.4195 21.6475 26.3936 21.5942 26.3936 21.5308C26.3936 21.4673 26.4195 21.414 26.4725 21.3689C26.5244 21.3248 26.5881 21.3027 26.6617 21.3027Z" fill="#FAFEFF"/>
<path fill-rule="evenodd" clip-rule="evenodd" d="M26.6617 22.0742H32.4336C32.5081 22.0742 32.5709 22.0963 32.6238 22.1413C32.6757 22.1855 32.7027 22.2397 32.7027 22.3032C32.7027 22.3657 32.6757 22.42 32.6238 22.4641C32.5709 22.5091 32.5081 22.5312 32.4336 22.5312H26.6617C26.5881 22.5312 26.5244 22.5091 26.4725 22.4641C26.4195 22.42 26.3936 22.3657 26.3936 22.3032C26.3936 22.2397 26.4195 22.1855 26.4725 22.1413C26.5244 22.0963 26.5881 22.0742 26.6617 22.0742Z" fill="#F7FBFC"/>
<path fill-rule="evenodd" clip-rule="evenodd" d="M26.6617 22.8477H32.4336C32.5081 22.8477 32.5709 22.8697 32.6238 22.9139C32.6757 22.9589 32.7027 23.0122 32.7027 23.0757C32.7027 23.1391 32.6757 23.1925 32.6238 23.2375C32.5709 23.2817 32.5081 23.3037 32.4336 23.3037H26.6617C26.5881 23.3037 26.5244 23.2817 26.4725 23.2375C26.4195 23.1925 26.3936 23.1391 26.3936 23.0757C26.3936 23.0122 26.4195 22.9589 26.4725 22.9139C26.5244 22.8697 26.5881 22.8477 26.6617 22.8477Z" fill="#F2F9FB"/>
<path fill-rule="evenodd" clip-rule="evenodd" d="M16.2842 14.0645H20.4788C20.5534 14.0645 20.6161 14.0865 20.6691 14.1316C20.721 14.1757 20.7469 14.23 20.7469 14.2934C20.7469 14.3559 20.721 14.4102 20.6691 14.4543C20.6161 14.4994 20.5534 14.5214 20.4788 14.5214H16.2842C16.2096 14.5214 16.1469 14.4994 16.094 14.4543C16.0421 14.4102 16.0161 14.3559 16.0161 14.2934C16.0161 14.23 16.0421 14.1757 16.094 14.1316C16.1469 14.0865 16.2096 14.0645 16.2842 14.0645Z" fill="#EFF9FC"/>
<path fill-rule="evenodd" clip-rule="evenodd" d="M13.493 15.1895H22.4194C22.494 15.1895 22.5567 15.2124 22.6097 15.2566C22.6616 15.3016 22.6886 15.355 22.6886 15.4184C22.6886 15.4809 22.6616 15.5352 22.6097 15.5793C22.5567 15.6244 22.494 15.6464 22.4194 15.6464H13.493C13.4194 15.6464 13.3557 15.6244 13.3038 15.5793C13.2508 15.5352 13.2249 15.4809 13.2249 15.4184C13.2249 15.355 13.2508 15.3016 13.3038 15.2566C13.3557 15.2124 13.4194 15.1895 13.493 15.1895Z" fill="#F0F2F9"/>
<path fill-rule="evenodd" clip-rule="evenodd" d="M13.493 16.1523H22.4194C22.494 16.1523 22.5567 16.1753 22.6097 16.2195C22.6616 16.2645 22.6886 16.3179 22.6886 16.3813C22.6886 16.4438 22.6616 16.4981 22.6097 16.5422C22.5567 16.5873 22.494 16.6093 22.4194 16.6093H13.493C13.4194 16.6093 13.3557 16.5873 13.3038 16.5422C13.2508 16.4981 13.2249 16.4438 13.2249 16.3813C13.2249 16.3179 13.2508 16.2645 13.3038 16.2195C13.3557 16.1753 13.4194 16.1523 13.493 16.1523Z" fill="#FCFDFF"/>
<path fill-rule="evenodd" clip-rule="evenodd" d="M13.493 17.1152H22.4194C22.494 17.1152 22.5567 17.1382 22.6097 17.1824C22.6616 17.2274 22.6886 17.2807 22.6886 17.3442C22.6886 17.4067 22.6616 17.461 22.6097 17.5051C22.5567 17.5502 22.494 17.5722 22.4194 17.5722H13.493C13.4194 17.5722 13.3557 17.5502 13.3038 17.5051C13.2508 17.461 13.2249 17.4067 13.2249 17.3442C13.2249 17.2807 13.2508 17.2274 13.3038 17.1824C13.3557 17.1382 13.4194 17.1152 13.493 17.1152Z" fill="#F4F5FE"/>
<path fill-rule="evenodd" clip-rule="evenodd" d="M13.493 18.0801H22.4194C22.494 18.0801 22.5567 18.1031 22.6097 18.1472C22.6616 18.1923 22.6886 18.2456 22.6886 18.309C22.6886 18.3716 22.6616 18.4258 22.6097 18.4699C22.5567 18.515 22.494 18.5371 22.4194 18.5371H13.493C13.4194 18.5371 13.3557 18.515 13.3038 18.4699C13.2508 18.4258 13.2249 18.3716 13.2249 18.309C13.2249 18.2456 13.2508 18.1923 13.3038 18.1472C13.3557 18.1031 13.4194 18.0801 13.493 18.0801Z" fill="#EFF1FA"/>
<path fill-rule="evenodd" clip-rule="evenodd" d="M13.493 19.043H22.4194C22.494 19.043 22.5567 19.065 22.6097 19.1092C22.6616 19.1542 22.6886 19.2076 22.6886 19.271C22.6886 19.3345 22.6616 19.3878 22.6097 19.4328C22.5567 19.477 22.494 19.499 22.4194 19.499H13.493C13.4194 19.499 13.3557 19.477 13.3038 19.4328C13.2508 19.3878 13.2249 19.3345 13.2249 19.271C13.2249 19.2076 13.2508 19.1542 13.3038 19.1092C13.3557 19.065 13.4194 19.043 13.493 19.043Z" fill="#F1F3FA"/>
<path fill-rule="evenodd" clip-rule="evenodd" d="M13.493 20.0059H22.4194C22.494 20.0059 22.5567 20.0279 22.6097 20.0721C22.6616 20.1171 22.6886 20.1705 22.6886 20.2339C22.6886 20.2973 22.6616 20.3507 22.6097 20.3957C22.5567 20.4399 22.494 20.4619 22.4194 20.4619H13.493C13.4194 20.4619 13.3557 20.4399 13.3038 20.3957C13.2508 20.3507 13.2249 20.2973 13.2249 20.2339C13.2249 20.1705 13.2508 20.1171 13.3038 20.0721C13.3557 20.0279 13.4194 20.0059 13.493 20.0059Z" fill="#F9FAFC"/>
<path fill-rule="evenodd" clip-rule="evenodd" d="M13.493 20.9707H22.4194C22.494 20.9707 22.5567 20.9928 22.6097 21.0369C22.6616 21.082 22.6886 21.1353 22.6886 21.1987C22.6886 21.2622 22.6616 21.3155 22.6097 21.3606C22.5567 21.4047 22.494 21.4268 22.4194 21.4268H13.493C13.4194 21.4268 13.3557 21.4047 13.3038 21.3606C13.2508 21.3155 13.2249 21.2622 13.2249 21.1987C13.2249 21.1353 13.2508 21.082 13.3038 21.0369C13.3557 20.9928 13.4194 20.9707 13.493 20.9707Z" fill="#F2F4FB"/>
<path fill-rule="evenodd" clip-rule="evenodd" d="M13.493 21.9336H22.4194C22.494 21.9336 22.5567 21.9557 22.6097 22.0007C22.6616 22.0449 22.6886 22.0991 22.6886 22.1616C22.6886 22.2251 22.6616 22.2784 22.6097 22.3235C22.5567 22.3676 22.494 22.3906 22.4194 22.3906H13.493C13.4194 22.3906 13.3557 22.3676 13.3038 22.3235C13.2508 22.2784 13.2249 22.2251 13.2249 22.1616C13.2249 22.0991 13.2508 22.0449 13.3038 22.0007C13.3557 21.9557 13.4194 21.9336 13.493 21.9336Z" fill="#5271FF"/>
<path fill-rule="evenodd" clip-rule="evenodd" d="M13.493 21.9336H22.4194C22.494 21.9336 22.5567 21.9557 22.6097 22.0007C22.6616 22.0449 22.6886 22.0991 22.6886 22.1616C22.6886 22.2251 22.6616 22.2784 22.6097 22.3235C22.5567 22.3676 22.494 22.3906 22.4194 22.3906H13.493C13.4194 22.3906 13.3557 22.3676 13.3038 22.3235C13.2508 22.2784 13.2249 22.2251 13.2249 22.1616C13.2249 22.0991 13.2508 22.0449 13.3038 22.0007C13.3557 21.9557 13.4194 21.9336 13.493 21.9336Z" fill="#F2F3FA"/>
<path fill-rule="evenodd" clip-rule="evenodd" d="M19.8173 22.7012H21.9081C21.9827 22.7012 22.0465 22.7232 22.0984 22.7683C22.1513 22.8124 22.1773 22.8667 22.1773 22.9301C22.1773 22.9927 22.1513 23.0469 22.0984 23.091C22.0465 23.1361 21.9827 23.1582 21.9081 23.1582H19.8173C19.7427 23.1582 19.68 23.1361 19.627 23.091C19.5751 23.0469 19.5481 22.9927 19.5481 22.9301C19.5481 22.8667 19.5751 22.8124 19.627 22.7683C19.68 22.7232 19.7427 22.7012 19.8173 22.7012Z" fill="#EEF5F8"/>
</g>
</g>
<defs>
<clipPath id="clip0_74_2">
<rect width="45" height="36" fill="white"/>
</clipPath>
<clipPath id="clip1_74_2">
<rect width="32" height="19" fill="white" transform="translate(7 8)"/>
</clipPath>
</defs>
</svg>
