<svg width="45" height="36" viewBox="0 0 45 36" fill="none" xmlns="http://www.w3.org/2000/svg">
<g clip-path="url(#clip0_74_2)">
<mask id="mask0_74_2" style="mask-type:luminance" maskUnits="userSpaceOnUse" x="0" y="20" width="24" height="16">
<path d="M0 20.1738H23.4783V35.9429H0V20.1738Z" fill="white"/>
</mask>
<g mask="url(#mask0_74_2)">
<path d="M22.3761 35.8787H22.3659C17.0432 35.8787 11.8904 34.357 7.85676 31.5947C3.86559 28.8624 1.19406 25.0907 0.332983 20.9684C0.270144 20.6763 0.518105 20.4018 0.881557 20.3515C1.24671 20.3013 1.58978 20.4996 1.65262 20.7904C2.46104 24.664 4.97293 28.2157 8.72802 30.7795C12.5239 33.3774 17.3659 34.8053 22.371 34.8053C22.7396 34.8053 23.047 35.0458 23.047 35.342C23.047 35.6369 22.7515 35.8787 22.3812 35.8787H22.3761Z" fill="#F7FBFC"/>
</g>
<path d="M25.9392 35.6428C25.6182 35.6428 25.3328 35.4567 25.2802 35.1945C25.2207 34.9037 25.4636 34.6279 25.8288 34.5776C30.6759 33.9363 35.1154 31.9254 38.3254 28.9227C41.5726 25.8847 43.3627 22.0083 43.3627 18.0083V17.9703C43.3627 17.6741 43.6633 17.4336 44.0336 17.4336C44.4038 17.4336 44.7044 17.6741 44.7044 17.9703V18.0029C44.7044 22.2651 42.804 26.3915 39.3444 29.6184C35.929 32.8127 31.2092 34.9499 26.0512 35.6374C26.0139 35.6428 25.9765 35.6469 25.9392 35.6469V35.6428Z" fill="#F8FBFC"/>
<path d="M0.696257 18.5611C0.327711 18.5611 0.0270996 18.3206 0.0270996 18.0245V18.0081C0.0270996 13.7541 1.92758 9.63179 5.37527 6.40489C8.78559 3.21195 13.5003 1.07472 18.6531 0.381789C19.0183 0.335593 19.3613 0.529887 19.4242 0.820647C19.487 1.11277 19.2391 1.38722 18.8756 1.4375C14.0336 2.08423 9.60421 4.09375 6.39429 7.09782C3.1521 10.1345 1.36711 14.0081 1.36711 18.0081V18.0245C1.36711 18.3206 1.0665 18.5611 0.696257 18.5611Z" fill="#F7FBFD"/>
<mask id="mask1_74_2" style="mask-type:luminance" maskUnits="userSpaceOnUse" x="21" y="0" width="24" height="16">
<path d="M21.3044 0.115234H44.7827V15.6519H21.3044V0.115234Z" fill="white"/>
</mask>
<g mask="url(#mask1_74_2)">
<path d="M43.7331 15.6501C43.4104 15.6501 43.1302 15.4639 43.0724 15.2017C42.2589 11.3335 39.747 7.79 35.9919 5.2207C32.1961 2.62831 27.354 1.20032 22.3608 1.20032H22.3234C21.9532 1.20032 21.6526 0.959833 21.6526 0.663638C21.6526 0.367442 21.9532 0.126953 22.3234 0.126953H22.3608C27.6767 0.126953 32.8245 1.64733 36.8632 4.40549C40.8544 7.1351 43.5259 10.9028 44.3921 15.021C44.4566 15.3117 44.2069 15.5862 43.8435 15.6378C43.8061 15.6419 43.7688 15.646 43.7331 15.646V15.6501Z" fill="#F9FDFF"/>
</g>
<path d="M16.7703 8.71395H35.6808C36.0305 8.71458 36.3657 8.85998 36.613 9.11831C36.8602 9.37663 36.9994 9.72681 37 10.0921V24.7261C37.0003 25.0021 36.9209 25.2717 36.7722 25.4997C36.7443 25.5734 36.7015 25.64 36.6468 25.6949C36.6104 25.7314 36.5689 25.7619 36.5238 25.7854C36.2875 25.9923 35.9892 26.106 35.6808 26.1067H24.4917C24.5726 25.7604 24.6048 25.4035 24.5874 25.0475H35.3459L28.3194 17.3377L26 19.4038C25.9091 19.4828 25.7946 19.5261 25.6764 19.5261C25.5582 19.5261 25.4438 19.4828 25.3529 19.4038L22.9196 17.3377L20.7119 19.649C20.4078 19.4338 20.0665 19.2826 19.7071 19.2039L22.1313 16.6665L17.636 12.8366C17.6171 12.5596 17.565 12.2861 17.4811 12.0225L17.3011 11.1918L25.6651 18.316L35.2593 9.77556H16.9981L16.7703 8.71395ZM12.9767 15.3788C13.1898 16.6049 13.552 17.7975 14.0544 18.9278C14.6474 20.2188 15.4507 21.3923 16.4285 22.3958C16.4626 22.4331 16.5042 22.4621 16.5503 22.4806C16.5964 22.4991 16.6458 22.5067 16.6951 22.503C16.8556 22.4822 17.0106 22.4279 17.1507 22.3435C17.3173 22.2474 17.4771 22.1392 17.6292 22.0198C18.3446 21.5009 19.2241 20.8558 19.9737 21.5794C19.9919 21.5961 20.001 21.6127 20.0192 21.627L22.4047 24.3715C22.413 24.3812 22.4206 24.3915 22.4275 24.4024C22.5649 24.5974 22.6534 24.8253 22.6848 25.0652C22.7162 25.3051 22.6897 25.5494 22.6075 25.7759C22.4211 26.3033 22.1127 26.7743 21.7098 27.1469C21.2073 27.6177 20.5729 27.9065 19.9007 27.9705C19.2707 28.0307 18.6358 27.9987 18.0142 27.8753C17.0844 27.71 16.203 27.3249 15.4374 26.7494C14.601 26.1031 13.8462 25.3489 13.1909 24.5048L13.1362 24.4357C12.7899 24.0073 12.4163 23.5479 12.0677 23.0361C10.689 20.9713 9.72269 18.6374 9.22653 16.1738C8.83465 14.091 8.91439 12.0106 9.75739 10.2897C10.2131 9.33758 10.9103 8.57589 11.8079 8.22123C12.5917 7.90703 13.519 7.90227 14.5716 8.37119C14.6301 8.39667 14.6816 8.43701 14.7214 8.48856C14.7612 8.5401 14.788 8.60121 14.7995 8.66634L15.6493 12.6129C15.7282 12.8048 15.7525 13.0164 15.7194 13.2224C15.6863 13.4283 15.5971 13.62 15.4625 13.7744C15.1934 14.0605 14.8559 14.2659 14.485 14.3695C14.3574 14.4266 14.2094 14.4766 14.0521 14.529C13.535 14.7051 12.9448 14.9122 12.9745 15.3978L12.9767 15.3788ZM29.0895 16.6474L35.9838 24.2001V10.5182L29.0895 16.6546V16.6474Z" fill="#FDFBFB"/>
</g>
<defs>
<clipPath id="clip0_74_2">
<rect width="45" height="36" fill="white"/>
</clipPath>
</defs>
</svg>
