<svg width="45" height="36" viewBox="0 0 45 36" fill="none" xmlns="http://www.w3.org/2000/svg">
<g clip-path="url(#clip0_74_2)">
<mask id="mask0_74_2" style="mask-type:luminance" maskUnits="userSpaceOnUse" x="0" y="20" width="24" height="16">
<path d="M0 20.1738H23.4783V35.9429H0V20.1738Z" fill="white"/>
</mask>
<g mask="url(#mask0_74_2)">
<path d="M22.3761 35.8787H22.3659C17.0432 35.8787 11.8904 34.357 7.85676 31.5947C3.86559 28.8624 1.19406 25.0907 0.332983 20.9684C0.270144 20.6763 0.518105 20.4018 0.881557 20.3515C1.24671 20.3013 1.58978 20.4996 1.65262 20.7904C2.46104 24.664 4.97293 28.2157 8.72802 30.7795C12.5239 33.3774 17.3659 34.8053 22.371 34.8053C22.7396 34.8053 23.047 35.0458 23.047 35.342C23.047 35.6369 22.7515 35.8787 22.3812 35.8787H22.3761Z" fill="#F7FBFC"/>
</g>
<path d="M25.9392 35.6428C25.6182 35.6428 25.3328 35.4567 25.2802 35.1945C25.2207 34.9037 25.4636 34.6279 25.8288 34.5776C30.6759 33.9363 35.1154 31.9254 38.3254 28.9227C41.5726 25.8847 43.3627 22.0083 43.3627 18.0083V17.9703C43.3627 17.6741 43.6633 17.4336 44.0336 17.4336C44.4038 17.4336 44.7044 17.6741 44.7044 17.9703V18.0029C44.7044 22.2651 42.804 26.3915 39.3444 29.6184C35.929 32.8127 31.2092 34.9499 26.0512 35.6374C26.0139 35.6428 25.9765 35.6469 25.9392 35.6469V35.6428Z" fill="#F8FBFC"/>
<path d="M0.696257 18.5611C0.327711 18.5611 0.0270996 18.3206 0.0270996 18.0245V18.0081C0.0270996 13.7541 1.92758 9.63179 5.37527 6.40489C8.78559 3.21195 13.5003 1.07472 18.6531 0.381789C19.0183 0.335593 19.3613 0.529887 19.4242 0.820647C19.487 1.11277 19.2391 1.38722 18.8756 1.4375C14.0336 2.08423 9.60421 4.09375 6.39429 7.09782C3.1521 10.1345 1.36711 14.0081 1.36711 18.0081V18.0245C1.36711 18.3206 1.0665 18.5611 0.696257 18.5611Z" fill="#F7FBFD"/>
<mask id="mask1_74_2" style="mask-type:luminance" maskUnits="userSpaceOnUse" x="21" y="0" width="24" height="16">
<path d="M21.3044 0.115234H44.7827V15.6519H21.3044V0.115234Z" fill="white"/>
</mask>
<g mask="url(#mask1_74_2)">
<path d="M43.7331 15.6501C43.4104 15.6501 43.1302 15.4639 43.0724 15.2017C42.2589 11.3335 39.747 7.79 35.9919 5.2207C32.1961 2.62831 27.354 1.20032 22.3608 1.20032H22.3234C21.9532 1.20032 21.6526 0.959833 21.6526 0.663638C21.6526 0.367442 21.9532 0.126953 22.3234 0.126953H22.3608C27.6767 0.126953 32.8245 1.64733 36.8632 4.40549C40.8544 7.1351 43.5259 10.9028 44.3921 15.021C44.4566 15.3117 44.2069 15.5862 43.8435 15.6378C43.8061 15.6419 43.7688 15.646 43.7331 15.646V15.6501Z" fill="#F9FDFF"/>
</g>
<path d="M22.6129 26.4737C22.6779 26.4737 22.7429 26.4566 22.8079 26.4224C22.8729 26.3882 22.9216 26.3539 22.9541 26.3197L30.9491 17.9039C31.1441 17.6987 31.2863 17.4678 31.3757 17.2112C31.4651 16.9546 31.5098 16.698 31.5098 16.4414C31.5098 16.1678 31.4651 15.9069 31.3757 15.6589C31.2863 15.4109 31.1441 15.1928 30.9491 15.0046L26.8054 10.6428C26.6266 10.4375 26.4194 10.2878 26.1838 10.1937C25.9482 10.0997 25.7004 10.0526 25.4404 10.0526C25.1966 10.0526 24.9529 10.0997 24.7091 10.1937C24.4654 10.2878 24.246 10.4375 24.051 10.6428L23.7829 10.925L25.5866 12.8493C25.8304 13.0888 26.0091 13.3625 26.1229 13.6704C26.2366 13.9783 26.2935 14.3033 26.2935 14.6454C26.2935 15.3638 26.0619 15.9668 25.5988 16.4543C25.1357 16.9418 24.5629 17.1855 23.8804 17.1855C23.5554 17.1855 23.2426 17.1257 22.9419 17.0059C22.6413 16.8862 22.3773 16.7066 22.1498 16.4671L20.3216 14.5684L16.056 19.0586C16.0073 19.1099 15.9707 19.1655 15.9463 19.2253C15.9219 19.2852 15.9098 19.3493 15.9098 19.4178C15.9098 19.5546 15.9585 19.6786 16.056 19.7898C16.1535 19.901 16.2673 19.9566 16.3973 19.9566C16.4623 19.9566 16.5273 19.9395 16.5923 19.9053C16.6573 19.8711 16.706 19.8368 16.7385 19.8026L20.0535 16.3132L21.4185 17.75L18.1279 21.2395C18.0791 21.2908 18.0426 21.3464 18.0182 21.4062C17.9938 21.4661 17.9816 21.5303 17.9816 21.5987C17.9816 21.7355 18.0304 21.8553 18.1279 21.9579C18.2254 22.0605 18.3391 22.1118 18.4691 22.1118C18.5341 22.1118 18.5991 22.0947 18.6641 22.0605C18.7291 22.0263 18.7779 21.9921 18.8104 21.9579L22.1254 18.4941L23.4904 19.9309L20.1998 23.4204C20.151 23.4546 20.1144 23.5059 20.0901 23.5743C20.0657 23.6428 20.0535 23.7112 20.0535 23.7796C20.0535 23.9164 20.1023 24.0362 20.1998 24.1388C20.2973 24.2414 20.411 24.2928 20.541 24.2928C20.606 24.2928 20.6669 24.2799 20.7238 24.2543C20.7807 24.2286 20.8335 24.1901 20.8823 24.1388L24.1973 20.675L25.5623 22.1118L22.2473 25.6013C22.1985 25.6526 22.1619 25.7082 22.1376 25.7681C22.1132 25.828 22.101 25.8921 22.101 25.9605C22.101 26.0974 22.1538 26.2171 22.2594 26.3197C22.3651 26.4224 22.4829 26.4737 22.6129 26.4737ZM22.5885 28.5263C21.9873 28.5263 21.4551 28.3168 20.9919 27.8977C20.5288 27.4786 20.2566 26.9526 20.1754 26.3197C19.6229 26.2342 19.1598 25.9947 18.786 25.6013C18.4123 25.2079 18.1848 24.7204 18.1035 24.1388C17.551 24.0533 17.0919 23.8095 16.7263 23.4076C16.3607 23.0056 16.1373 22.5224 16.056 21.9579C15.4385 21.8724 14.9348 21.5901 14.5448 21.1112C14.1548 20.6322 13.9598 20.0678 13.9598 19.4178C13.9598 19.0757 14.0207 18.7464 14.1426 18.4299C14.2644 18.1135 14.4391 17.8355 14.6666 17.5961L20.3216 11.6691L23.5148 15.0303C23.5473 15.0816 23.596 15.1201 23.661 15.1457C23.726 15.1714 23.791 15.1842 23.856 15.1842C24.0023 15.1842 24.1241 15.1372 24.2216 15.0431C24.3191 14.949 24.3679 14.825 24.3679 14.6711C24.3679 14.6026 24.3557 14.5342 24.3313 14.4658C24.3069 14.3974 24.2704 14.3461 24.2216 14.3118L20.736 10.6428C20.5573 10.4375 20.3501 10.2878 20.1144 10.1937C19.8788 10.0997 19.631 10.0526 19.371 10.0526C19.1273 10.0526 18.8835 10.0997 18.6398 10.1937C18.396 10.2878 18.1766 10.4375 17.9816 10.6428L14.5448 14.2862C14.3985 14.4401 14.2766 14.6197 14.1791 14.825C14.0816 15.0303 14.0166 15.2355 13.9841 15.4408C13.9516 15.6461 13.9516 15.8556 13.9841 16.0694C14.0166 16.2832 14.0816 16.4842 14.1791 16.6724L12.7654 18.1605C12.4891 17.7671 12.286 17.3352 12.156 16.8648C12.026 16.3944 11.9772 15.9197 12.0098 15.4408C12.0423 14.9618 12.156 14.4957 12.351 14.0424C12.546 13.5891 12.8141 13.1829 13.1554 12.8237L16.5923 9.20592C16.9823 8.8125 17.4169 8.51316 17.8963 8.30789C18.3757 8.10263 18.8673 8 19.371 8C19.8748 8 20.3663 8.10263 20.8457 8.30789C21.3251 8.51316 21.7516 8.8125 22.1254 9.20592L22.3935 9.48816L22.6616 9.20592C23.0516 8.8125 23.4863 8.51316 23.9657 8.30789C24.4451 8.10263 24.9366 8 25.4404 8C25.9441 8 26.4357 8.10263 26.9151 8.30789C27.3944 8.51316 27.821 8.8125 28.1948 9.20592L32.3141 13.5421C32.6879 13.9355 32.9723 14.3888 33.1673 14.902C33.3623 15.4151 33.4598 15.9368 33.4598 16.4671C33.4598 16.9974 33.3623 17.5148 33.1673 18.0194C32.9723 18.524 32.6879 18.973 32.3141 19.3664L24.3191 27.7566C24.0916 27.9961 23.8276 28.1842 23.5269 28.3211C23.2263 28.4579 22.9135 28.5263 22.5885 28.5263Z" fill="#E8EAED"/>
</g>
<defs>
<clipPath id="clip0_74_2">
<rect width="45" height="36" fill="white"/>
</clipPath>
</defs>
</svg>
