<svg width="45" height="36" viewBox="0 0 45 36" fill="none" xmlns="http://www.w3.org/2000/svg">
<g clip-path="url(#clip0_51_316)">
<mask id="mask0_51_316" style="mask-type:luminance" maskUnits="userSpaceOnUse" x="0" y="20" width="24" height="16">
<path d="M0 20.1738H23.4783V35.9429H0V20.1738Z" fill="white"/>
</mask>
<g mask="url(#mask0_51_316)">
<path d="M22.3761 35.8787H22.3659C17.0432 35.8787 11.8904 34.357 7.85676 31.5947C3.86559 28.8624 1.19406 25.0907 0.332983 20.9684C0.270144 20.6763 0.518105 20.4018 0.881557 20.3515C1.24671 20.3013 1.58978 20.4996 1.65262 20.7904C2.46104 24.664 4.97293 28.2157 8.72802 30.7795C12.5239 33.3774 17.3659 34.8053 22.371 34.8053C22.7396 34.8053 23.047 35.0458 23.047 35.342C23.047 35.6369 22.7515 35.8787 22.3812 35.8787H22.3761Z" fill="#F7FBFC"/>
</g>
<path d="M25.9392 35.6428C25.6182 35.6428 25.3328 35.4567 25.2802 35.1945C25.2207 34.9037 25.4636 34.6279 25.8288 34.5776C30.6759 33.9363 35.1154 31.9254 38.3254 28.9227C41.5726 25.8847 43.3627 22.0083 43.3627 18.0083V17.9703C43.3627 17.6741 43.6633 17.4336 44.0336 17.4336C44.4038 17.4336 44.7044 17.6741 44.7044 17.9703V18.0029C44.7044 22.2651 42.804 26.3915 39.3444 29.6184C35.929 32.8127 31.2092 34.9499 26.0512 35.6374C26.0139 35.6428 25.9765 35.6469 25.9392 35.6469V35.6428Z" fill="#F8FBFC"/>
<path d="M0.696257 18.5611C0.327711 18.5611 0.0270996 18.3206 0.0270996 18.0245V18.0081C0.0270996 13.7541 1.92758 9.63179 5.37527 6.40489C8.78559 3.21195 13.5003 1.07472 18.6531 0.381789C19.0183 0.335593 19.3613 0.529887 19.4242 0.820648C19.487 1.11277 19.2391 1.38722 18.8756 1.4375C14.0336 2.08423 9.60421 4.09375 6.39429 7.09782C3.1521 10.1345 1.36711 14.0081 1.36711 18.0081V18.0245C1.36711 18.3206 1.0665 18.5611 0.696257 18.5611Z" fill="#F7FBFD"/>
<mask id="mask1_51_316" style="mask-type:luminance" maskUnits="userSpaceOnUse" x="21" y="0" width="24" height="16">
<path d="M21.3044 0.115234H44.7827V15.6519H21.3044V0.115234Z" fill="white"/>
</mask>
<g mask="url(#mask1_51_316)">
<path d="M43.7331 15.6501C43.4104 15.6501 43.1302 15.4639 43.0724 15.2017C42.2589 11.3335 39.747 7.79 35.9919 5.2207C32.1961 2.62831 27.354 1.20032 22.3608 1.20032H22.3234C21.9532 1.20032 21.6526 0.959834 21.6526 0.663638C21.6526 0.367442 21.9532 0.126953 22.3234 0.126953H22.3608C27.6767 0.126953 32.8245 1.64733 36.8632 4.40549C40.8544 7.13511 43.5259 10.9028 44.3921 15.021C44.4566 15.3117 44.2069 15.5862 43.8435 15.6378C43.8061 15.6419 43.7688 15.646 43.7331 15.646V15.6501Z" fill="#F9FDFF"/>
</g>
<path d="M29.757 26.1129C30.1629 26.1129 30.4907 25.8466 30.4907 25.5138V19.1102H32.4184C33.1198 19.1102 33.6905 18.6456 33.6905 18.0708C33.6905 17.742 33.5053 17.4499 33.2149 17.2597L30.7234 15.4947V12.5586C30.7234 12.2162 30.3854 11.9377 29.9625 11.9377H28.3898C27.9669 11.9377 27.629 12.2162 27.629 12.5586V13.2977L23.1996 10.1551C22.719 9.8181 22.0108 9.8181 21.5301 10.1551L11.4775 17.2855C11.0767 17.5681 10.934 18.0287 11.1191 18.435C11.3042 18.8398 11.7798 19.1102 12.3131 19.1102H14.239V25.5138C14.239 25.8426 14.5668 26.1129 14.9727 26.1129H19.3036V21.4581C19.3036 20.7991 19.9574 20.2678 20.7608 20.2678H23.9656C24.7723 20.2678 25.4228 20.7991 25.4228 21.4581V26.1129H29.757Z" fill="#F8FDFF"/>
</g>
<defs>
<clipPath id="clip0_51_316">
<rect width="45" height="36" fill="white"/>
</clipPath>
</defs>
</svg>
