<svg xmlns="http://www.w3.org/2000/svg" xmlns:xlink="http://www.w3.org/1999/xlink" width="138" zoomAndPan="magnify" viewBox="0 0 103.5 137.999998" height="184" preserveAspectRatio="xMidYMid meet" version="1.0"><defs><g/><clipPath id="f03b91cfe0"><path d="M 0 58 L 54 58 L 54 103.335938 L 0 103.335938 Z M 0 58 " clip-rule="nonzero"/></clipPath><clipPath id="5e62b3097d"><path d="M 49 0.332031 L 103 0.332031 L 103 45 L 49 45 Z M 49 0.332031 " clip-rule="nonzero"/></clipPath></defs><g clip-path="url(#f03b91cfe0)"><path fill="#00adef" d="M 51.464844 103.152344 L 51.441406 103.152344 C 39.199219 103.152344 27.347656 98.777344 18.070312 90.835938 C 8.890625 82.980469 2.746094 72.136719 0.765625 60.285156 C 0.621094 59.445312 1.191406 58.65625 2.027344 58.511719 C 2.867188 58.367188 3.65625 58.9375 3.800781 59.773438 C 5.660156 70.910156 11.4375 81.121094 20.074219 88.492188 C 28.804688 95.960938 39.941406 100.066406 51.453125 100.066406 C 52.300781 100.066406 53.007812 100.757812 53.007812 101.609375 C 53.007812 102.457031 52.328125 103.152344 51.476562 103.152344 Z M 51.464844 103.152344 " fill-opacity="1" fill-rule="nonzero"/></g><path fill="#00adef" d="M 59.660156 102.472656 C 58.921875 102.472656 58.265625 101.9375 58.144531 101.183594 C 58.007812 100.347656 58.566406 99.554688 59.40625 99.410156 C 70.554688 97.566406 80.765625 91.785156 88.148438 83.152344 C 95.617188 74.417969 99.734375 63.273438 99.734375 51.773438 L 99.734375 51.664062 C 99.734375 50.8125 100.425781 50.121094 101.277344 50.121094 C 102.128906 50.121094 102.820312 50.8125 102.820312 51.664062 L 102.820312 51.757812 C 102.820312 64.011719 98.449219 75.875 90.492188 85.152344 C 82.636719 94.335938 71.78125 100.480469 59.917969 102.457031 C 59.832031 102.472656 59.746094 102.484375 59.660156 102.484375 Z M 59.660156 102.472656 " fill-opacity="1" fill-rule="nonzero"/><path fill="#00adef" d="M 1.601562 53.363281 C 0.753906 53.363281 0.0625 52.671875 0.0625 51.820312 L 0.0625 51.773438 C 0.0625 39.542969 4.433594 27.691406 12.363281 18.414062 C 20.207031 9.234375 31.050781 3.089844 42.902344 1.097656 C 43.742188 0.964844 44.53125 1.523438 44.675781 2.359375 C 44.820312 3.199219 44.25 3.988281 43.414062 4.132812 C 32.277344 5.992188 22.089844 11.769531 14.707031 20.40625 C 7.25 29.136719 3.144531 40.273438 3.144531 51.773438 L 3.144531 51.820312 C 3.144531 52.671875 2.453125 53.363281 1.601562 53.363281 Z M 1.601562 53.363281 " fill-opacity="1" fill-rule="nonzero"/><g clip-path="url(#5e62b3097d)"><path fill="#00adef" d="M 100.585938 44.996094 C 99.84375 44.996094 99.199219 44.460938 99.066406 43.707031 C 97.195312 32.585938 91.417969 22.398438 82.78125 15.011719 C 74.050781 7.558594 62.914062 3.453125 51.429688 3.453125 L 51.34375 3.453125 C 50.492188 3.453125 49.800781 2.761719 49.800781 1.910156 C 49.800781 1.058594 50.492188 0.367188 51.34375 0.367188 L 51.429688 0.367188 C 63.65625 0.367188 75.496094 4.738281 84.785156 12.667969 C 93.964844 20.515625 100.109375 31.347656 102.101562 43.1875 C 102.25 44.023438 101.675781 44.8125 100.839844 44.960938 C 100.753906 44.972656 100.667969 44.984375 100.585938 44.984375 Z M 100.585938 44.996094 " fill-opacity="1" fill-rule="nonzero"/></g><path fill="#00adef" d="M 68.441406 75.074219 C 69.375 75.074219 70.128906 74.308594 70.128906 73.351562 L 70.128906 54.941406 L 74.5625 54.941406 C 76.175781 54.941406 77.488281 53.605469 77.488281 51.953125 C 77.488281 51.007812 77.0625 50.167969 76.394531 49.621094 L 70.664062 44.546875 L 70.664062 36.105469 C 70.664062 35.121094 69.886719 34.320312 68.914062 34.320312 L 65.296875 34.320312 C 64.324219 34.320312 63.546875 35.121094 63.546875 36.105469 L 63.546875 38.230469 L 53.359375 29.195312 C 52.253906 28.226562 50.625 28.226562 49.519531 29.195312 L 26.398438 49.695312 C 25.476562 50.507812 25.148438 51.832031 25.574219 53 C 26 54.164062 27.09375 54.941406 28.320312 54.941406 L 32.75 54.941406 L 32.75 73.351562 C 32.75 74.296875 33.503906 75.074219 34.4375 75.074219 L 44.398438 75.074219 L 44.398438 61.691406 C 44.398438 59.796875 45.902344 58.269531 47.75 58.269531 L 55.121094 58.269531 C 56.976562 58.269531 58.472656 59.796875 58.472656 61.691406 L 58.472656 75.074219 Z M 68.441406 75.074219 " fill-opacity="1" fill-rule="nonzero"/><g fill="#000000" fill-opacity="1"><g transform="translate(24.790179, 126.463983)"><g><path d="M 8.796875 -10.734375 C 8.796875 -11.171875 8.75 -11.453125 8.65625 -11.578125 C 8.5625 -11.710938 8.472656 -11.796875 8.390625 -11.828125 C 8.316406 -11.867188 8.238281 -11.898438 8.15625 -11.921875 C 7.863281 -12.003906 7.65625 -12.085938 7.53125 -12.171875 L 7.53125 -12.703125 L 12.234375 -12.703125 L 12.234375 -12.171875 C 12.066406 -12.109375 11.910156 -12.054688 11.765625 -12.015625 C 11.617188 -11.972656 11.488281 -11.914062 11.375 -11.84375 C 11.132812 -11.707031 11.015625 -11.445312 11.015625 -11.0625 L 11.015625 -1.640625 C 11.015625 -1.265625 11.132812 -1.003906 11.375 -0.859375 C 11.488281 -0.796875 11.617188 -0.742188 11.765625 -0.703125 C 11.910156 -0.660156 12.066406 -0.601562 12.234375 -0.53125 L 12.234375 0 L 7.53125 0 L 7.53125 -0.53125 C 8.226562 -0.625 8.628906 -0.941406 8.734375 -1.484375 C 8.773438 -1.660156 8.796875 -1.867188 8.796875 -2.109375 Z M 4.15625 -2.03125 C 4.15625 -1.382812 4.28125 -0.992188 4.53125 -0.859375 C 4.613281 -0.828125 4.75 -0.78125 4.9375 -0.71875 C 5.132812 -0.664062 5.289062 -0.601562 5.40625 -0.53125 L 5.40625 0 L 0.71875 0 L 0.71875 -0.53125 C 0.882812 -0.601562 1.035156 -0.660156 1.171875 -0.703125 C 1.316406 -0.742188 1.445312 -0.796875 1.5625 -0.859375 C 1.8125 -1.003906 1.9375 -1.265625 1.9375 -1.640625 L 1.9375 -11.0625 C 1.9375 -11.445312 1.8125 -11.707031 1.5625 -11.84375 C 1.445312 -11.914062 1.316406 -11.972656 1.171875 -12.015625 C 1.035156 -12.054688 0.882812 -12.109375 0.71875 -12.171875 L 0.71875 -12.703125 L 5.40625 -12.703125 L 5.40625 -12.171875 C 5.269531 -12.085938 5.101562 -12.019531 4.90625 -11.96875 C 4.71875 -11.914062 4.585938 -11.867188 4.515625 -11.828125 C 4.441406 -11.785156 4.378906 -11.722656 4.328125 -11.640625 C 4.210938 -11.441406 4.15625 -11.109375 4.15625 -10.640625 Z M 8.046875 -6.203125 L 4.90625 -6.203125 L 4.90625 -7.03125 L 8.046875 -7.03125 Z M 8.046875 -6.203125 "/></g></g></g><g fill="#000000" fill-opacity="1"><g transform="translate(40.507939, 126.463983)"><g><path d="M 6 0.265625 C 4.46875 0.160156 3.207031 -0.53125 2.21875 -1.8125 C 1.25 -3.050781 0.765625 -4.566406 0.765625 -6.359375 C 0.765625 -8.140625 1.25 -9.648438 2.21875 -10.890625 C 3.207031 -12.160156 4.46875 -12.851562 6 -12.96875 L 6 -12.234375 C 5.125 -12.140625 4.46875 -11.675781 4.03125 -10.84375 C 3.53125 -9.875 3.28125 -8.378906 3.28125 -6.359375 C 3.28125 -3.390625 3.8125 -1.554688 4.875 -0.859375 C 5.21875 -0.640625 5.59375 -0.507812 6 -0.46875 Z M 6.734375 -0.46875 C 8.078125 -0.601562 8.921875 -1.671875 9.265625 -3.671875 C 9.390625 -4.398438 9.453125 -5.296875 9.453125 -6.359375 C 9.453125 -9.316406 8.921875 -11.144531 7.859375 -11.84375 C 7.523438 -12.050781 7.148438 -12.179688 6.734375 -12.234375 L 6.734375 -12.96875 C 8.273438 -12.863281 9.539062 -12.175781 10.53125 -10.90625 C 11.5 -9.664062 11.984375 -8.148438 11.984375 -6.359375 C 11.984375 -4.566406 11.5 -3.050781 10.53125 -1.8125 C 9.539062 -0.539062 8.273438 0.148438 6.734375 0.265625 Z M 6.734375 -0.46875 "/></g></g></g><g fill="#000000" fill-opacity="1"><g transform="translate(56.03787, 126.463983)"><g><path d="M 8.078125 -4.578125 L 10.484375 -12.703125 L 14.5 -12.703125 L 14.5 -12.171875 C 14.351562 -12.109375 14.207031 -12.054688 14.0625 -12.015625 C 13.925781 -11.972656 13.800781 -11.925781 13.6875 -11.875 C 13.4375 -11.738281 13.3125 -11.515625 13.3125 -11.203125 L 13.3125 -1.640625 C 13.3125 -1.273438 13.441406 -1.019531 13.703125 -0.875 C 13.816406 -0.8125 13.945312 -0.753906 14.09375 -0.703125 C 14.238281 -0.660156 14.394531 -0.601562 14.5625 -0.53125 L 14.5625 0 L 9.890625 0 L 9.890625 -0.53125 C 10.035156 -0.601562 10.175781 -0.660156 10.3125 -0.703125 C 10.457031 -0.753906 10.582031 -0.8125 10.6875 -0.875 C 10.945312 -1.019531 11.078125 -1.273438 11.078125 -1.640625 L 11.078125 -11.421875 L 11.046875 -11.421875 L 8.5625 -3.015625 Z M 3.015625 -10.5625 L 3.015625 -1.90625 C 3.015625 -1.4375 3.15625 -1.109375 3.4375 -0.921875 C 3.5625 -0.835938 3.703125 -0.769531 3.859375 -0.71875 C 4.015625 -0.664062 4.175781 -0.601562 4.34375 -0.53125 L 4.34375 0 L 0.75 0 L 0.75 -0.53125 C 0.894531 -0.601562 1.039062 -0.660156 1.1875 -0.703125 C 1.332031 -0.742188 1.46875 -0.804688 1.59375 -0.890625 C 1.863281 -1.078125 2 -1.410156 2 -1.890625 L 2 -10.9375 Z M 3.0625 -11.234375 C 1.800781 -11.722656 1.03125 -12.035156 0.75 -12.171875 L 0.75 -12.703125 L 4.78125 -12.703125 L 8.203125 -1.84375 L 7.65625 0 L 6.609375 0 Z M 3.0625 -11.234375 "/></g></g></g><g fill="#000000" fill-opacity="1"><g transform="translate(74.125932, 126.463983)"><g><path d="M 0.75 0 L 0.75 -0.53125 C 0.894531 -0.613281 1.054688 -0.679688 1.234375 -0.734375 C 1.421875 -0.785156 1.550781 -0.832031 1.625 -0.875 C 1.707031 -0.914062 1.773438 -0.976562 1.828125 -1.0625 C 1.941406 -1.25 2 -1.585938 2 -2.078125 L 2 -10.609375 C 2 -11.109375 1.957031 -11.425781 1.875 -11.5625 C 1.789062 -11.695312 1.707031 -11.785156 1.625 -11.828125 C 1.550781 -11.867188 1.46875 -11.898438 1.375 -11.921875 C 1.082031 -12.003906 0.875 -12.085938 0.75 -12.171875 L 0.75 -12.703125 L 4.234375 -12.703125 L 4.234375 0 Z M 4.96875 -0.734375 L 5.140625 -0.71875 C 6.484375 -0.71875 7.4375 -0.859375 8 -1.140625 C 8.582031 -1.441406 9 -2.035156 9.25 -2.921875 C 9.300781 -3.097656 9.34375 -3.257812 9.375 -3.40625 C 9.414062 -3.5625 9.460938 -3.707031 9.515625 -3.84375 C 9.597656 -4.101562 9.722656 -4.3125 9.890625 -4.46875 L 10.46875 -4.46875 L 10.46875 0 L 4.96875 0 Z M 8.28125 -12.703125 C 8.644531 -12.703125 9.238281 -12.75 10.0625 -12.84375 L 10.0625 -8.453125 L 9.4375 -8.453125 C 9.226562 -8.722656 9.066406 -9.023438 8.953125 -9.359375 C 8.847656 -9.691406 8.734375 -10.015625 8.609375 -10.328125 C 8.492188 -10.648438 8.375 -10.90625 8.25 -11.09375 C 8.132812 -11.28125 7.988281 -11.441406 7.8125 -11.578125 C 7.445312 -11.835938 6.957031 -11.96875 6.34375 -11.96875 C 5.738281 -11.96875 5.28125 -11.925781 4.96875 -11.84375 L 4.96875 -12.703125 Z M 4.96875 -7.5625 L 7.578125 -7.5625 L 7.578125 -5.890625 L 4.96875 -5.890625 Z M 4.96875 -7.5625 "/></g></g></g></svg>