<svg xmlns="http://www.w3.org/2000/svg" xmlns:xlink="http://www.w3.org/1999/xlink" width="260" zoomAndPan="magnify" viewBox="0 0 194.87999 49.499998" height="66" preserveAspectRatio="xMidYMid meet" version="1.0"><defs><g/></defs><g fill="#000000" fill-opacity="1"><g transform="translate(8.858041, 25.664071)"><g><path d="M 9.265625 -13.625 C 9.035156 -13.8125 8.753906 -13.945312 8.421875 -14.03125 C 8.085938 -14.125 7.65625 -14.171875 7.125 -14.171875 C 6.601562 -14.171875 6.195312 -14.144531 5.90625 -14.09375 L 5.90625 -15.109375 L 9.5 -15.109375 C 9.96875 -15.109375 10.710938 -15.160156 11.734375 -15.265625 L 11.734375 -10.0625 L 11.046875 -10.0625 C 10.785156 -10.332031 10.59375 -10.679688 10.46875 -11.109375 C 10.351562 -11.535156 10.253906 -11.882812 10.171875 -12.15625 C 10.085938 -12.4375 9.972656 -12.707031 9.828125 -12.96875 C 9.679688 -13.226562 9.492188 -13.445312 9.265625 -13.625 Z M 5.03125 -2.421875 C 5.03125 -1.859375 5.082031 -1.492188 5.1875 -1.328125 C 5.289062 -1.171875 5.390625 -1.066406 5.484375 -1.015625 C 5.585938 -0.972656 5.703125 -0.9375 5.828125 -0.90625 C 5.960938 -0.875 6.101562 -0.835938 6.25 -0.796875 C 6.40625 -0.765625 6.570312 -0.707031 6.75 -0.625 L 6.75 0 L 0.890625 0 L 0.890625 -0.625 C 1.066406 -0.726562 1.257812 -0.804688 1.46875 -0.859375 C 1.6875 -0.921875 1.84375 -0.976562 1.9375 -1.03125 C 2.03125 -1.082031 2.109375 -1.160156 2.171875 -1.265625 C 2.304688 -1.484375 2.375 -1.890625 2.375 -2.484375 L 2.375 -12.609375 C 2.375 -13.203125 2.320312 -13.582031 2.21875 -13.75 C 2.125 -13.914062 2.03125 -14.019531 1.9375 -14.0625 C 1.851562 -14.113281 1.753906 -14.15625 1.640625 -14.1875 C 1.285156 -14.289062 1.035156 -14.390625 0.890625 -14.484375 L 0.890625 -15.109375 L 5.03125 -15.109375 Z M 5.90625 -8.875 L 9.015625 -8.875 L 9.015625 -6.875 L 5.90625 -6.875 Z M 5.90625 -8.875 "/></g></g></g><g fill="#000000" fill-opacity="1"><g transform="translate(24.26776, 25.664071)"><g><path d="M 6.375 -15.109375 C 10.539062 -15.109375 12.625 -13.851562 12.625 -11.34375 C 12.625 -10.320312 12.25 -9.472656 11.5 -8.796875 C 10.707031 -8.085938 9.632812 -7.703125 8.28125 -7.640625 L 8.28125 -7.609375 C 9.019531 -7.429688 9.59375 -7.054688 10 -6.484375 C 10.207031 -6.191406 10.4375 -5.71875 10.6875 -5.0625 C 10.945312 -4.414062 11.148438 -3.898438 11.296875 -3.515625 C 11.453125 -3.140625 11.601562 -2.800781 11.75 -2.5 C 12.082031 -1.8125 12.378906 -1.46875 12.640625 -1.46875 C 12.742188 -1.46875 12.832031 -1.515625 12.90625 -1.609375 C 12.988281 -1.703125 13.066406 -1.8125 13.140625 -1.9375 C 13.359375 -2.238281 13.554688 -2.390625 13.734375 -2.390625 C 13.753906 -2.390625 13.800781 -2.367188 13.875 -2.328125 C 13.957031 -2.296875 14 -2.222656 14 -2.109375 C 14 -1.992188 13.976562 -1.875 13.9375 -1.75 C 13.53125 -1.101562 13.222656 -0.679688 13.015625 -0.484375 C 12.578125 -0.046875 12.085938 0.171875 11.546875 0.171875 C 11.015625 0.171875 10.59375 0.0859375 10.28125 -0.078125 C 9.96875 -0.253906 9.703125 -0.484375 9.484375 -0.765625 C 9.273438 -1.054688 9.101562 -1.390625 8.96875 -1.765625 C 8.84375 -2.140625 8.726562 -2.53125 8.625 -2.9375 C 8.519531 -3.351562 8.414062 -3.769531 8.3125 -4.1875 C 8.21875 -4.601562 8.09375 -5 7.9375 -5.375 C 7.601562 -6.21875 7.132812 -6.789062 6.53125 -7.09375 C 6.382812 -7.164062 6.203125 -7.25 5.984375 -7.34375 L 5.984375 -8.203125 C 7.992188 -8.203125 9.210938 -8.769531 9.640625 -9.90625 C 9.773438 -10.289062 9.84375 -10.75 9.84375 -11.28125 C 9.84375 -12.238281 9.5625 -12.984375 9 -13.515625 C 8.445312 -14.046875 7.59375 -14.3125 6.4375 -14.3125 C 6.226562 -14.3125 6.078125 -14.300781 5.984375 -14.28125 L 5.984375 -15.109375 Z M 5.109375 -2.53125 C 5.109375 -2.0625 5.117188 -1.726562 5.140625 -1.53125 C 5.171875 -1.34375 5.238281 -1.207031 5.34375 -1.125 C 5.445312 -1.039062 5.566406 -0.972656 5.703125 -0.921875 C 5.847656 -0.878906 6 -0.835938 6.15625 -0.796875 C 6.3125 -0.765625 6.457031 -0.707031 6.59375 -0.625 L 6.59375 0 L 0.953125 0 L 0.953125 -0.625 C 1.054688 -0.707031 1.179688 -0.765625 1.328125 -0.796875 C 1.484375 -0.835938 1.632812 -0.882812 1.78125 -0.9375 C 2.132812 -1.039062 2.332031 -1.238281 2.375 -1.53125 C 2.425781 -1.832031 2.453125 -2.171875 2.453125 -2.546875 L 2.453125 -12.578125 C 2.453125 -13.359375 2.359375 -13.820312 2.171875 -13.96875 C 2.023438 -14.09375 1.816406 -14.1875 1.546875 -14.25 C 1.285156 -14.320312 1.085938 -14.398438 0.953125 -14.484375 L 0.953125 -15.109375 L 5.109375 -15.109375 Z M 5.109375 -2.53125 "/></g></g></g><g fill="#000000" fill-opacity="1"><g transform="translate(41.793427, 25.664071)"><g><path d="M 7.5625 -4.796875 L 4.328125 -4.796875 L 4.59375 -5.78125 L 7.25 -5.78125 Z M 5.453125 -10.671875 L 2.953125 -3.203125 C 2.734375 -2.566406 2.625 -2.09375 2.625 -1.78125 C 2.632812 -1.46875 2.6875 -1.257812 2.78125 -1.15625 C 2.875 -1.0625 2.992188 -0.988281 3.140625 -0.9375 C 3.296875 -0.894531 3.46875 -0.859375 3.65625 -0.828125 C 3.851562 -0.804688 4.050781 -0.75 4.25 -0.65625 L 4.25 0 L -0.390625 0 L -0.390625 -0.65625 C -0.234375 -0.738281 -0.078125 -0.800781 0.078125 -0.84375 C 0.242188 -0.894531 0.398438 -0.953125 0.546875 -1.015625 C 0.898438 -1.171875 1.125 -1.40625 1.21875 -1.71875 L 4.8125 -12.390625 Z M 5.1875 -13.46875 C 4.800781 -13.601562 4.539062 -13.738281 4.40625 -13.875 C 4.425781 -14.03125 4.445312 -14.171875 4.46875 -14.296875 C 4.5 -14.429688 4.523438 -14.5625 4.546875 -14.6875 C 4.566406 -14.820312 4.59375 -14.929688 4.625 -15.015625 C 5.96875 -15.296875 6.75 -15.4375 6.96875 -15.4375 C 7.113281 -15.320312 7.25 -15.097656 7.375 -14.765625 L 12.046875 -1.890625 C 12.203125 -1.460938 12.4375 -1.171875 12.75 -1.015625 C 12.894531 -0.953125 13.046875 -0.894531 13.203125 -0.84375 C 13.359375 -0.800781 13.523438 -0.738281 13.703125 -0.65625 L 13.703125 0 L 7.953125 0 L 7.953125 -0.65625 C 8.117188 -0.726562 8.289062 -0.78125 8.46875 -0.8125 C 8.644531 -0.84375 8.804688 -0.878906 8.953125 -0.921875 C 9.273438 -0.992188 9.4375 -1.148438 9.4375 -1.390625 C 9.4375 -1.609375 9.265625 -2.179688 8.921875 -3.109375 C 8.585938 -4.046875 8.289062 -4.878906 8.03125 -5.609375 C 7.300781 -7.660156 6.582031 -9.710938 5.875 -11.765625 Z M 5.1875 -13.46875 "/></g></g></g><g fill="#000000" fill-opacity="1"><g transform="translate(58.39403, 25.664071)"><g><path d="M 11.703125 -5.65625 L 11.703125 -13.15625 C 11.703125 -13.539062 11.523438 -13.832031 11.171875 -14.03125 C 11.015625 -14.125 10.835938 -14.203125 10.640625 -14.265625 C 10.453125 -14.335938 10.265625 -14.414062 10.078125 -14.5 L 10.078125 -15.140625 L 14.515625 -15.140625 L 14.515625 -14.5 C 14.335938 -14.414062 14.15625 -14.335938 13.96875 -14.265625 C 13.78125 -14.203125 13.613281 -14.125 13.46875 -14.03125 C 13.113281 -13.832031 12.9375 -13.539062 12.9375 -13.15625 L 12.9375 -3.75 Z M 3.46875 -11.296875 L 3.46875 -1.984375 C 3.46875 -1.585938 3.648438 -1.296875 4.015625 -1.109375 C 4.179688 -1.015625 4.367188 -0.929688 4.578125 -0.859375 C 4.796875 -0.785156 5.019531 -0.707031 5.25 -0.625 L 5.25 0 L 0.578125 0 L 0.578125 -0.625 C 0.773438 -0.707031 0.972656 -0.785156 1.171875 -0.859375 C 1.367188 -0.929688 1.546875 -1.015625 1.703125 -1.109375 C 2.066406 -1.304688 2.25 -1.597656 2.25 -1.984375 L 2.25 -12.890625 Z M 3.515625 -12.609375 C 2.753906 -13.503906 1.992188 -14.066406 1.234375 -14.296875 C 1.035156 -14.359375 0.84375 -14.421875 0.65625 -14.484375 L 0.65625 -15.109375 L 4.796875 -15.109375 L 12.9375 -2.25 L 12.9375 0.078125 L 11.375 0.078125 Z M 3.515625 -12.609375 "/></g></g></g><g fill="#000000" fill-opacity="1"><g transform="translate(76.855389, 25.664071)"><g><path d="M 11.140625 -14.375 C 11.390625 -14.375 11.597656 -14.5625 11.765625 -14.9375 L 12.703125 -14.9375 L 12.703125 -9.625 L 11.96875 -9.625 C 11.6875 -9.894531 11.4375 -10.335938 11.21875 -10.953125 C 11 -11.566406 10.816406 -12.050781 10.671875 -12.40625 C 10.535156 -12.757812 10.359375 -13.082031 10.140625 -13.375 C 9.671875 -14.039062 9.023438 -14.425781 8.203125 -14.53125 L 8.203125 -15.40625 C 9.097656 -15.320312 9.957031 -15.023438 10.78125 -14.515625 C 10.925781 -14.421875 11.046875 -14.375 11.140625 -14.375 Z M 8.203125 -0.6875 C 9.765625 -0.6875 10.875 -1.46875 11.53125 -3.03125 C 11.757812 -3.570312 11.921875 -4.21875 12.015625 -4.96875 L 13.03125 -4.71875 C 12.8125 -3.070312 12.300781 -1.835938 11.5 -1.015625 C 10.707031 -0.191406 9.609375 0.25 8.203125 0.3125 Z M 7.3125 0.3125 C 5.394531 0.21875 3.851562 -0.535156 2.6875 -1.953125 C 1.507812 -3.367188 0.921875 -5.238281 0.921875 -7.5625 C 0.921875 -9.8125 1.53125 -11.679688 2.75 -13.171875 C 3.945312 -14.628906 5.46875 -15.382812 7.3125 -15.4375 L 7.3125 -14.546875 C 5.75 -14.398438 4.707031 -13.144531 4.1875 -10.78125 C 4 -9.894531 3.90625 -8.835938 3.90625 -7.609375 C 3.90625 -6.378906 4 -5.351562 4.1875 -4.53125 C 4.382812 -3.71875 4.640625 -3.046875 4.953125 -2.515625 C 5.535156 -1.535156 6.320312 -0.945312 7.3125 -0.75 Z M 7.3125 0.3125 "/></g></g></g><g fill="#000000" fill-opacity="1"><g transform="translate(94.168397, 25.664071)"><g><path d="M 10.453125 -12.765625 C 10.453125 -13.285156 10.398438 -13.617188 10.296875 -13.765625 C 10.191406 -13.921875 10.09375 -14.019531 10 -14.0625 C 9.90625 -14.113281 9.804688 -14.15625 9.703125 -14.1875 C 9.347656 -14.289062 9.101562 -14.390625 8.96875 -14.484375 L 8.96875 -15.109375 L 14.546875 -15.109375 L 14.546875 -14.484375 C 14.359375 -14.398438 14.175781 -14.332031 14 -14.28125 C 13.820312 -14.226562 13.664062 -14.164062 13.53125 -14.09375 C 13.25 -13.925781 13.109375 -13.613281 13.109375 -13.15625 L 13.109375 -1.953125 C 13.109375 -1.503906 13.25 -1.191406 13.53125 -1.015625 C 13.664062 -0.941406 13.820312 -0.878906 14 -0.828125 C 14.175781 -0.773438 14.359375 -0.707031 14.546875 -0.625 L 14.546875 0 L 8.96875 0 L 8.96875 -0.625 C 9.789062 -0.738281 10.265625 -1.117188 10.390625 -1.765625 C 10.429688 -1.972656 10.453125 -2.222656 10.453125 -2.515625 Z M 4.953125 -2.421875 C 4.953125 -1.640625 5.097656 -1.171875 5.390625 -1.015625 C 5.492188 -0.972656 5.660156 -0.914062 5.890625 -0.84375 C 6.117188 -0.78125 6.300781 -0.707031 6.4375 -0.625 L 6.4375 0 L 0.859375 0 L 0.859375 -0.625 C 1.054688 -0.707031 1.238281 -0.773438 1.40625 -0.828125 C 1.570312 -0.878906 1.722656 -0.941406 1.859375 -1.015625 C 2.148438 -1.191406 2.296875 -1.503906 2.296875 -1.953125 L 2.296875 -13.15625 C 2.296875 -13.613281 2.148438 -13.925781 1.859375 -14.09375 C 1.722656 -14.164062 1.570312 -14.226562 1.40625 -14.28125 C 1.238281 -14.332031 1.054688 -14.398438 0.859375 -14.484375 L 0.859375 -15.109375 L 6.4375 -15.109375 L 6.4375 -14.484375 C 6.269531 -14.378906 6.070312 -14.296875 5.84375 -14.234375 C 5.625 -14.171875 5.46875 -14.113281 5.375 -14.0625 C 5.289062 -14.019531 5.210938 -13.945312 5.140625 -13.84375 C 5.015625 -13.613281 4.953125 -13.21875 4.953125 -12.65625 Z M 9.578125 -7.375 L 5.828125 -7.375 L 5.828125 -8.359375 L 9.578125 -8.359375 Z M 9.578125 -7.375 "/></g></g></g><g fill="#000000" fill-opacity="1"><g transform="translate(112.853046, 25.664071)"><g><path d="M 6.703125 -15.109375 L 6.703125 -14.484375 C 6.492188 -14.398438 6.296875 -14.332031 6.109375 -14.28125 C 5.929688 -14.226562 5.773438 -14.164062 5.640625 -14.09375 C 5.328125 -13.925781 5.171875 -13.613281 5.171875 -13.15625 L 5.171875 -1.953125 C 5.171875 -1.503906 5.328125 -1.191406 5.640625 -1.015625 C 5.773438 -0.941406 5.9375 -0.878906 6.125 -0.828125 C 6.3125 -0.773438 6.507812 -0.707031 6.71875 -0.625 L 6.71875 0 L 0.984375 0 L 0.984375 -0.625 C 1.191406 -0.707031 1.382812 -0.773438 1.5625 -0.828125 C 1.75 -0.878906 1.914062 -0.941406 2.0625 -1.015625 C 2.375 -1.191406 2.53125 -1.503906 2.53125 -1.953125 L 2.53125 -13.15625 C 2.53125 -13.613281 2.375 -13.925781 2.0625 -14.09375 C 1.914062 -14.164062 1.75 -14.226562 1.5625 -14.28125 C 1.382812 -14.332031 1.191406 -14.398438 0.984375 -14.484375 L 0.984375 -15.109375 Z M 6.703125 -15.109375 "/></g></g></g><g fill="#000000" fill-opacity="1"><g transform="translate(123.82886, 25.664071)"><g><path d="M 4.609375 -0.9375 C 5.578125 -0.9375 6.410156 -0.988281 7.109375 -1.09375 C 7.804688 -1.195312 8.3125 -1.335938 8.625 -1.515625 C 8.945312 -1.691406 9.207031 -1.898438 9.40625 -2.140625 C 9.613281 -2.378906 9.773438 -2.644531 9.890625 -2.9375 C 10.015625 -3.226562 10.128906 -3.519531 10.234375 -3.8125 C 10.503906 -4.644531 10.722656 -5.179688 10.890625 -5.421875 L 11.640625 -5.421875 L 11.640625 0 L 4.078125 0 Z M 1.3125 -15.265625 C 1.78125 -15.160156 2.347656 -15.109375 3.015625 -15.109375 L 8.015625 -15.109375 L 7.484375 -14.171875 C 5.898438 -14.171875 4.820312 -14.039062 4.25 -13.78125 C 3.632812 -13.5 3.195312 -13.070312 2.9375 -12.5 C 2.769531 -12.164062 2.609375 -11.757812 2.453125 -11.28125 C 2.296875 -10.8125 2.148438 -10.476562 2.015625 -10.28125 L 1.3125 -10.28125 Z M 8.96875 -15.109375 L 11.4375 -15.109375 L 11.4375 -14.3125 L 3.015625 0 L 0.625 0 L 0.625 -0.984375 Z M 8.96875 -15.109375 "/></g></g></g><g fill="#000000" fill-opacity="1"><g transform="translate(139.472501, 25.664071)"><g><path d="M 0.890625 0 L 0.890625 -0.625 C 1.066406 -0.726562 1.257812 -0.804688 1.46875 -0.859375 C 1.6875 -0.921875 1.84375 -0.976562 1.9375 -1.03125 C 2.03125 -1.082031 2.109375 -1.160156 2.171875 -1.265625 C 2.304688 -1.484375 2.375 -1.890625 2.375 -2.484375 L 2.375 -12.609375 C 2.375 -13.203125 2.320312 -13.582031 2.21875 -13.75 C 2.125 -13.914062 2.03125 -14.019531 1.9375 -14.0625 C 1.851562 -14.113281 1.753906 -14.15625 1.640625 -14.1875 C 1.285156 -14.289062 1.035156 -14.390625 0.890625 -14.484375 L 0.890625 -15.109375 L 5.03125 -15.109375 L 5.03125 0 Z M 5.90625 -0.875 L 6.109375 -0.859375 C 7.710938 -0.859375 8.847656 -1.023438 9.515625 -1.359375 C 10.210938 -1.710938 10.707031 -2.414062 11 -3.46875 C 11.0625 -3.6875 11.113281 -3.882812 11.15625 -4.0625 C 11.207031 -4.25 11.257812 -4.414062 11.3125 -4.5625 C 11.414062 -4.875 11.566406 -5.125 11.765625 -5.3125 L 12.453125 -5.3125 L 12.453125 0 L 5.90625 0 Z M 9.84375 -15.109375 C 10.28125 -15.109375 10.988281 -15.160156 11.96875 -15.265625 L 11.96875 -10.0625 L 11.234375 -10.0625 C 10.984375 -10.382812 10.789062 -10.742188 10.65625 -11.140625 C 10.519531 -11.535156 10.378906 -11.921875 10.234375 -12.296875 C 10.097656 -12.671875 9.957031 -12.96875 9.8125 -13.1875 C 9.675781 -13.414062 9.5 -13.609375 9.28125 -13.765625 C 8.851562 -14.078125 8.273438 -14.234375 7.546875 -14.234375 C 6.828125 -14.234375 6.28125 -14.179688 5.90625 -14.078125 L 5.90625 -15.109375 Z M 5.90625 -9 L 9.015625 -9 L 9.015625 -7 L 5.90625 -7 Z M 5.90625 -9 "/></g></g></g><g fill="#000000" fill-opacity="1"><g transform="translate(156.062473, 25.664071)"><g><path d="M 6.375 -15.109375 C 10.539062 -15.109375 12.625 -13.851562 12.625 -11.34375 C 12.625 -10.320312 12.25 -9.472656 11.5 -8.796875 C 10.707031 -8.085938 9.632812 -7.703125 8.28125 -7.640625 L 8.28125 -7.609375 C 9.019531 -7.429688 9.59375 -7.054688 10 -6.484375 C 10.207031 -6.191406 10.4375 -5.71875 10.6875 -5.0625 C 10.945312 -4.414062 11.148438 -3.898438 11.296875 -3.515625 C 11.453125 -3.140625 11.601562 -2.800781 11.75 -2.5 C 12.082031 -1.8125 12.378906 -1.46875 12.640625 -1.46875 C 12.742188 -1.46875 12.832031 -1.515625 12.90625 -1.609375 C 12.988281 -1.703125 13.066406 -1.8125 13.140625 -1.9375 C 13.359375 -2.238281 13.554688 -2.390625 13.734375 -2.390625 C 13.753906 -2.390625 13.800781 -2.367188 13.875 -2.328125 C 13.957031 -2.296875 14 -2.222656 14 -2.109375 C 14 -1.992188 13.976562 -1.875 13.9375 -1.75 C 13.53125 -1.101562 13.222656 -0.679688 13.015625 -0.484375 C 12.578125 -0.046875 12.085938 0.171875 11.546875 0.171875 C 11.015625 0.171875 10.59375 0.0859375 10.28125 -0.078125 C 9.96875 -0.253906 9.703125 -0.484375 9.484375 -0.765625 C 9.273438 -1.054688 9.101562 -1.390625 8.96875 -1.765625 C 8.84375 -2.140625 8.726562 -2.53125 8.625 -2.9375 C 8.519531 -3.351562 8.414062 -3.769531 8.3125 -4.1875 C 8.21875 -4.601562 8.09375 -5 7.9375 -5.375 C 7.601562 -6.21875 7.132812 -6.789062 6.53125 -7.09375 C 6.382812 -7.164062 6.203125 -7.25 5.984375 -7.34375 L 5.984375 -8.203125 C 7.992188 -8.203125 9.210938 -8.769531 9.640625 -9.90625 C 9.773438 -10.289062 9.84375 -10.75 9.84375 -11.28125 C 9.84375 -12.238281 9.5625 -12.984375 9 -13.515625 C 8.445312 -14.046875 7.59375 -14.3125 6.4375 -14.3125 C 6.226562 -14.3125 6.078125 -14.300781 5.984375 -14.28125 L 5.984375 -15.109375 Z M 5.109375 -2.53125 C 5.109375 -2.0625 5.117188 -1.726562 5.140625 -1.53125 C 5.171875 -1.34375 5.238281 -1.207031 5.34375 -1.125 C 5.445312 -1.039062 5.566406 -0.972656 5.703125 -0.921875 C 5.847656 -0.878906 6 -0.835938 6.15625 -0.796875 C 6.3125 -0.765625 6.457031 -0.707031 6.59375 -0.625 L 6.59375 0 L 0.953125 0 L 0.953125 -0.625 C 1.054688 -0.707031 1.179688 -0.765625 1.328125 -0.796875 C 1.484375 -0.835938 1.632812 -0.882812 1.78125 -0.9375 C 2.132812 -1.039062 2.332031 -1.238281 2.375 -1.53125 C 2.425781 -1.832031 2.453125 -2.171875 2.453125 -2.546875 L 2.453125 -12.578125 C 2.453125 -13.359375 2.359375 -13.820312 2.171875 -13.96875 C 2.023438 -14.09375 1.816406 -14.1875 1.546875 -14.25 C 1.285156 -14.320312 1.085938 -14.398438 0.953125 -14.484375 L 0.953125 -15.109375 L 5.109375 -15.109375 Z M 5.109375 -2.53125 "/></g></g></g><g fill="#000000" fill-opacity="1"><g transform="translate(173.588139, 25.664071)"><g><path d="M 4.609375 -0.9375 C 5.578125 -0.9375 6.410156 -0.988281 7.109375 -1.09375 C 7.804688 -1.195312 8.3125 -1.335938 8.625 -1.515625 C 8.945312 -1.691406 9.207031 -1.898438 9.40625 -2.140625 C 9.613281 -2.378906 9.773438 -2.644531 9.890625 -2.9375 C 10.015625 -3.226562 10.128906 -3.519531 10.234375 -3.8125 C 10.503906 -4.644531 10.722656 -5.179688 10.890625 -5.421875 L 11.640625 -5.421875 L 11.640625 0 L 4.078125 0 Z M 1.3125 -15.265625 C 1.78125 -15.160156 2.347656 -15.109375 3.015625 -15.109375 L 8.015625 -15.109375 L 7.484375 -14.171875 C 5.898438 -14.171875 4.820312 -14.039062 4.25 -13.78125 C 3.632812 -13.5 3.195312 -13.070312 2.9375 -12.5 C 2.769531 -12.164062 2.609375 -11.757812 2.453125 -11.28125 C 2.296875 -10.8125 2.148438 -10.476562 2.015625 -10.28125 L 1.3125 -10.28125 Z M 8.96875 -15.109375 L 11.4375 -15.109375 L 11.4375 -14.3125 L 3.015625 0 L 0.625 0 L 0.625 -0.984375 Z M 8.96875 -15.109375 "/></g></g></g><g fill="#000000" fill-opacity="1"><g transform="translate(56.622209, 40.956145)"><g><path d="M 2.0625 0 L 2.0625 -0.140625 C 2.226562 -0.191406 2.34375 -0.300781 2.40625 -0.46875 C 2.46875 -0.632812 2.492188 -0.941406 2.484375 -1.390625 L 2.484375 -3.4375 L 0.84375 -6.421875 C 0.625 -6.796875 0.4375 -7.050781 0.28125 -7.1875 C 0.125 -7.332031 -0.0078125 -7.429688 -0.125 -7.484375 L -0.125 -7.625 L 1.59375 -7.625 L 1.59375 -7.484375 C 1.425781 -7.429688 1.367188 -7.332031 1.421875 -7.1875 C 1.472656 -7.050781 1.609375 -6.796875 1.828125 -6.421875 L 3.34375 -3.71875 L 4.875 -6.421875 C 5.0625 -6.753906 5.15625 -7.003906 5.15625 -7.171875 C 5.15625 -7.335938 5.046875 -7.441406 4.828125 -7.484375 L 4.828125 -7.625 L 6.125 -7.625 L 6.125 -7.484375 C 5.976562 -7.429688 5.816406 -7.332031 5.640625 -7.1875 C 5.472656 -7.050781 5.28125 -6.796875 5.0625 -6.421875 L 3.390625 -3.453125 L 3.390625 -1.390625 C 3.390625 -0.941406 3.421875 -0.632812 3.484375 -0.46875 C 3.546875 -0.300781 3.660156 -0.191406 3.828125 -0.140625 L 3.828125 0 Z M 2.0625 0 "/></g></g></g><g fill="#000000" fill-opacity="1"><g transform="translate(64.240996, 40.956145)"><g><path d="M 4.4375 0.109375 C 3.976562 0.109375 3.519531 0.03125 3.0625 -0.125 C 2.601562 -0.28125 2.179688 -0.519531 1.796875 -0.84375 C 1.421875 -1.164062 1.117188 -1.570312 0.890625 -2.0625 C 0.671875 -2.5625 0.5625 -3.148438 0.5625 -3.828125 C 0.5625 -4.566406 0.722656 -5.226562 1.046875 -5.8125 C 1.378906 -6.40625 1.832031 -6.867188 2.40625 -7.203125 C 2.988281 -7.535156 3.664062 -7.703125 4.4375 -7.703125 C 4.894531 -7.703125 5.351562 -7.625 5.8125 -7.46875 C 6.269531 -7.3125 6.6875 -7.070312 7.0625 -6.75 C 7.4375 -6.425781 7.734375 -6.015625 7.953125 -5.515625 C 8.179688 -5.023438 8.296875 -4.445312 8.296875 -3.78125 C 8.296875 -3.101562 8.179688 -2.519531 7.953125 -2.03125 C 7.734375 -1.550781 7.429688 -1.148438 7.046875 -0.828125 C 6.671875 -0.503906 6.253906 -0.265625 5.796875 -0.109375 C 5.347656 0.0351562 4.894531 0.109375 4.4375 0.109375 Z M 1.4375 -4.453125 C 1.457031 -3.910156 1.554688 -3.382812 1.734375 -2.875 C 1.910156 -2.363281 2.148438 -1.898438 2.453125 -1.484375 C 2.765625 -1.078125 3.128906 -0.753906 3.546875 -0.515625 C 3.960938 -0.273438 4.414062 -0.15625 4.90625 -0.15625 C 5.476562 -0.15625 5.957031 -0.28125 6.34375 -0.53125 C 6.726562 -0.789062 7.015625 -1.140625 7.203125 -1.578125 C 7.390625 -2.023438 7.472656 -2.519531 7.453125 -3.0625 C 7.429688 -3.625 7.332031 -4.164062 7.15625 -4.6875 C 6.976562 -5.21875 6.734375 -5.691406 6.421875 -6.109375 C 6.117188 -6.523438 5.757812 -6.851562 5.34375 -7.09375 C 4.9375 -7.332031 4.488281 -7.453125 4 -7.453125 C 3.445312 -7.453125 2.972656 -7.328125 2.578125 -7.078125 C 2.191406 -6.828125 1.898438 -6.472656 1.703125 -6.015625 C 1.503906 -5.566406 1.414062 -5.046875 1.4375 -4.453125 Z M 1.4375 -4.453125 "/></g></g></g><g fill="#000000" fill-opacity="1"><g transform="translate(74.721823, 40.956145)"><g><path d="M 3.9375 0.109375 C 3.539062 0.109375 3.160156 0.0546875 2.796875 -0.046875 C 2.429688 -0.148438 2.101562 -0.3125 1.8125 -0.53125 C 1.519531 -0.757812 1.285156 -1.0625 1.109375 -1.4375 C 0.929688 -1.8125 0.84375 -2.269531 0.84375 -2.8125 L 0.84375 -6.234375 C 0.84375 -6.691406 0.8125 -7 0.75 -7.15625 C 0.695312 -7.320312 0.582031 -7.429688 0.40625 -7.484375 L 0.40625 -7.625 L 2.171875 -7.625 L 2.171875 -7.484375 C 2.015625 -7.429688 1.90625 -7.320312 1.84375 -7.15625 C 1.78125 -7 1.75 -6.691406 1.75 -6.234375 L 1.75 -2.875 C 1.75 -2.195312 1.859375 -1.65625 2.078125 -1.25 C 2.304688 -0.851562 2.613281 -0.566406 3 -0.390625 C 3.382812 -0.210938 3.8125 -0.125 4.28125 -0.125 C 4.507812 -0.125 4.75 -0.164062 5 -0.25 C 5.257812 -0.332031 5.5 -0.476562 5.71875 -0.6875 C 5.945312 -0.90625 6.128906 -1.191406 6.265625 -1.546875 C 6.398438 -1.898438 6.46875 -2.34375 6.46875 -2.875 L 6.46875 -5.8125 C 6.46875 -6.21875 6.4375 -6.535156 6.375 -6.765625 C 6.320312 -6.992188 6.238281 -7.160156 6.125 -7.265625 C 6.019531 -7.367188 5.890625 -7.441406 5.734375 -7.484375 L 5.734375 -7.625 L 7.078125 -7.625 L 7.078125 -7.484375 C 6.921875 -7.429688 6.804688 -7.320312 6.734375 -7.15625 C 6.671875 -7 6.640625 -6.691406 6.640625 -6.234375 L 6.640625 -2.90625 C 6.640625 -2.175781 6.515625 -1.585938 6.265625 -1.140625 C 6.023438 -0.703125 5.703125 -0.382812 5.296875 -0.1875 C 4.890625 0.0078125 4.4375 0.109375 3.9375 0.109375 Z M 3.9375 0.109375 "/></g></g></g><g fill="#000000" fill-opacity="1"><g transform="translate(83.744422, 40.956145)"><g><path d="M 6.09375 0.078125 C 5.820312 0.078125 5.601562 0.0078125 5.4375 -0.125 C 5.28125 -0.257812 5.140625 -0.453125 5.015625 -0.703125 C 4.898438 -0.960938 4.765625 -1.285156 4.609375 -1.671875 C 4.441406 -2.046875 4.304688 -2.375 4.203125 -2.65625 C 4.097656 -2.9375 3.976562 -3.171875 3.84375 -3.359375 C 3.71875 -3.546875 3.554688 -3.6875 3.359375 -3.78125 C 3.171875 -3.882812 2.910156 -3.9375 2.578125 -3.9375 L 1.890625 -3.9375 L 1.890625 -1.390625 C 1.890625 -0.941406 1.914062 -0.632812 1.96875 -0.46875 C 2.03125 -0.300781 2.144531 -0.191406 2.3125 -0.140625 L 2.3125 0 L 0.5625 0 L 0.5625 -0.140625 C 0.726562 -0.191406 0.835938 -0.300781 0.890625 -0.46875 C 0.953125 -0.632812 0.984375 -0.941406 0.984375 -1.390625 L 0.984375 -6.234375 C 0.984375 -6.691406 0.953125 -7 0.890625 -7.15625 C 0.835938 -7.320312 0.726562 -7.429688 0.5625 -7.484375 L 0.5625 -7.625 L 2.703125 -7.625 C 3.441406 -7.625 4.015625 -7.546875 4.421875 -7.390625 C 4.835938 -7.242188 5.128906 -7.046875 5.296875 -6.796875 C 5.472656 -6.546875 5.5625 -6.253906 5.5625 -5.921875 C 5.5625 -5.410156 5.378906 -4.972656 5.015625 -4.609375 C 4.648438 -4.253906 4.113281 -4.039062 3.40625 -3.96875 C 3.738281 -3.925781 4.007812 -3.847656 4.21875 -3.734375 C 4.4375 -3.628906 4.613281 -3.488281 4.75 -3.3125 C 4.882812 -3.132812 5.003906 -2.914062 5.109375 -2.65625 C 5.222656 -2.40625 5.347656 -2.113281 5.484375 -1.78125 C 5.648438 -1.34375 5.789062 -1.003906 5.90625 -0.765625 C 6.03125 -0.523438 6.144531 -0.359375 6.25 -0.265625 C 6.351562 -0.171875 6.46875 -0.125 6.59375 -0.125 C 6.625 -0.125 6.648438 -0.125 6.671875 -0.125 C 6.703125 -0.125 6.734375 -0.125 6.765625 -0.125 L 6.765625 0 C 6.679688 0.03125 6.578125 0.0507812 6.453125 0.0625 C 6.328125 0.0703125 6.207031 0.078125 6.09375 0.078125 Z M 1.890625 -4.09375 L 2.796875 -4.09375 C 3.421875 -4.09375 3.882812 -4.238281 4.1875 -4.53125 C 4.488281 -4.832031 4.640625 -5.210938 4.640625 -5.671875 C 4.640625 -6.003906 4.5625 -6.300781 4.40625 -6.5625 C 4.257812 -6.832031 4.019531 -7.046875 3.6875 -7.203125 C 3.363281 -7.367188 2.929688 -7.453125 2.390625 -7.453125 C 2.316406 -7.453125 2.234375 -7.453125 2.140625 -7.453125 C 2.054688 -7.453125 1.972656 -7.445312 1.890625 -7.4375 Z M 1.890625 -4.09375 "/></g></g></g><g fill="#000000" fill-opacity="1"><g transform="translate(92.037913, 40.956145)"><g/></g></g><g fill="#000000" fill-opacity="1"><g transform="translate(95.956709, 40.956145)"><g><path d="M 4.4375 0.109375 C 3.976562 0.109375 3.519531 0.03125 3.0625 -0.125 C 2.601562 -0.28125 2.179688 -0.519531 1.796875 -0.84375 C 1.421875 -1.164062 1.117188 -1.570312 0.890625 -2.0625 C 0.671875 -2.5625 0.5625 -3.148438 0.5625 -3.828125 C 0.5625 -4.566406 0.722656 -5.226562 1.046875 -5.8125 C 1.378906 -6.40625 1.832031 -6.867188 2.40625 -7.203125 C 2.988281 -7.535156 3.664062 -7.703125 4.4375 -7.703125 C 4.894531 -7.703125 5.351562 -7.625 5.8125 -7.46875 C 6.269531 -7.3125 6.6875 -7.070312 7.0625 -6.75 C 7.4375 -6.425781 7.734375 -6.015625 7.953125 -5.515625 C 8.179688 -5.023438 8.296875 -4.445312 8.296875 -3.78125 C 8.296875 -3.101562 8.179688 -2.519531 7.953125 -2.03125 C 7.734375 -1.550781 7.429688 -1.148438 7.046875 -0.828125 C 6.671875 -0.503906 6.253906 -0.265625 5.796875 -0.109375 C 5.347656 0.0351562 4.894531 0.109375 4.4375 0.109375 Z M 1.4375 -4.453125 C 1.457031 -3.910156 1.554688 -3.382812 1.734375 -2.875 C 1.910156 -2.363281 2.148438 -1.898438 2.453125 -1.484375 C 2.765625 -1.078125 3.128906 -0.753906 3.546875 -0.515625 C 3.960938 -0.273438 4.414062 -0.15625 4.90625 -0.15625 C 5.476562 -0.15625 5.957031 -0.28125 6.34375 -0.53125 C 6.726562 -0.789062 7.015625 -1.140625 7.203125 -1.578125 C 7.390625 -2.023438 7.472656 -2.519531 7.453125 -3.0625 C 7.429688 -3.625 7.332031 -4.164062 7.15625 -4.6875 C 6.976562 -5.21875 6.734375 -5.691406 6.421875 -6.109375 C 6.117188 -6.523438 5.757812 -6.851562 5.34375 -7.09375 C 4.9375 -7.332031 4.488281 -7.453125 4 -7.453125 C 3.445312 -7.453125 2.972656 -7.328125 2.578125 -7.078125 C 2.191406 -6.828125 1.898438 -6.472656 1.703125 -6.015625 C 1.503906 -5.566406 1.414062 -5.046875 1.4375 -4.453125 Z M 1.4375 -4.453125 "/></g></g></g><g fill="#000000" fill-opacity="1"><g transform="translate(106.437536, 40.956145)"><g><path d="M 3.890625 -6.34375 C 3.722656 -6.75 3.570312 -7.023438 3.4375 -7.171875 C 3.3125 -7.328125 3.1875 -7.429688 3.0625 -7.484375 L 3.0625 -7.625 L 4.734375 -7.625 L 4.734375 -7.484375 C 4.566406 -7.429688 4.5 -7.328125 4.53125 -7.171875 C 4.5625 -7.023438 4.660156 -6.75 4.828125 -6.34375 L 5.40625 -4.90625 L 5.9375 -6.328125 C 6.070312 -6.691406 6.128906 -6.960938 6.109375 -7.140625 C 6.085938 -7.328125 5.988281 -7.441406 5.8125 -7.484375 L 5.8125 -7.625 L 7 -7.625 L 7 -7.484375 C 6.851562 -7.429688 6.707031 -7.328125 6.5625 -7.171875 C 6.425781 -7.023438 6.28125 -6.742188 6.125 -6.328125 L 5.515625 -4.65625 L 6.984375 -1.09375 L 8.890625 -6.328125 C 9.140625 -7.015625 9.082031 -7.398438 8.71875 -7.484375 L 8.71875 -7.625 L 9.9375 -7.625 L 9.9375 -7.484375 C 9.789062 -7.429688 9.644531 -7.328125 9.5 -7.171875 C 9.363281 -7.023438 9.222656 -6.742188 9.078125 -6.328125 L 6.796875 0 L 6.484375 0 L 4.984375 -3.6875 L 3.46875 0 L 3.171875 0 L 0.765625 -6.328125 C 0.597656 -6.742188 0.453125 -7.023438 0.328125 -7.171875 C 0.203125 -7.328125 0.078125 -7.429688 -0.046875 -7.484375 L -0.046875 -7.625 L 1.640625 -7.625 L 1.640625 -7.484375 C 1.472656 -7.429688 1.398438 -7.328125 1.421875 -7.171875 C 1.441406 -7.023438 1.535156 -6.742188 1.703125 -6.328125 L 3.71875 -1.078125 L 4.875 -3.9375 Z M 3.890625 -6.34375 "/></g></g></g><g fill="#000000" fill-opacity="1"><g transform="translate(117.941306, 40.956145)"><g><path d="M 6.3125 0.09375 L 1.171875 -6.59375 L 1.171875 -1.8125 C 1.171875 -1.40625 1.195312 -1.085938 1.25 -0.859375 C 1.3125 -0.628906 1.398438 -0.460938 1.515625 -0.359375 C 1.628906 -0.253906 1.765625 -0.179688 1.921875 -0.140625 L 1.921875 0 L 0.5625 0 L 0.5625 -0.140625 C 0.726562 -0.191406 0.84375 -0.300781 0.90625 -0.46875 C 0.96875 -0.632812 1 -0.941406 1 -1.390625 L 1 -6.234375 C 1 -6.691406 0.957031 -7 0.875 -7.15625 C 0.800781 -7.320312 0.65625 -7.429688 0.4375 -7.484375 L 0.4375 -7.625 L 1.5 -7.625 L 6.265625 -1.453125 L 6.265625 -5.8125 C 6.265625 -6.21875 6.234375 -6.535156 6.171875 -6.765625 C 6.117188 -6.992188 6.035156 -7.160156 5.921875 -7.265625 C 5.816406 -7.367188 5.679688 -7.441406 5.515625 -7.484375 L 5.515625 -7.625 L 6.890625 -7.625 L 6.890625 -7.484375 C 6.710938 -7.429688 6.59375 -7.320312 6.53125 -7.15625 C 6.476562 -7 6.453125 -6.691406 6.453125 -6.234375 L 6.453125 0.09375 Z M 6.3125 0.09375 "/></g></g></g><g fill="#000000" fill-opacity="1"><g transform="translate(126.887735, 40.956145)"><g/></g></g><g fill="#000000" fill-opacity="1"><g transform="translate(130.806531, 40.956145)"><g><path d="M 0.5625 0 L 0.5625 -0.140625 C 0.726562 -0.191406 0.835938 -0.300781 0.890625 -0.46875 C 0.953125 -0.632812 0.984375 -0.941406 0.984375 -1.390625 L 0.984375 -6.234375 C 0.984375 -6.691406 0.953125 -7 0.890625 -7.15625 C 0.835938 -7.320312 0.726562 -7.429688 0.5625 -7.484375 L 0.5625 -7.625 L 2.765625 -7.625 C 3.523438 -7.625 4.117188 -7.515625 4.546875 -7.296875 C 4.972656 -7.085938 5.273438 -6.820312 5.453125 -6.5 C 5.640625 -6.175781 5.734375 -5.835938 5.734375 -5.484375 C 5.734375 -4.753906 5.472656 -4.160156 4.953125 -3.703125 C 4.441406 -3.242188 3.675781 -3.015625 2.65625 -3.015625 L 1.890625 -3.015625 L 1.890625 -1.390625 C 1.890625 -0.941406 1.914062 -0.632812 1.96875 -0.46875 C 2.03125 -0.300781 2.144531 -0.191406 2.3125 -0.140625 L 2.3125 0 Z M 1.890625 -3.1875 L 2.640625 -3.1875 C 3.335938 -3.1875 3.867188 -3.363281 4.234375 -3.71875 C 4.597656 -4.082031 4.78125 -4.585938 4.78125 -5.234375 C 4.78125 -5.617188 4.695312 -5.976562 4.53125 -6.3125 C 4.375 -6.65625 4.113281 -6.929688 3.75 -7.140625 C 3.394531 -7.347656 2.925781 -7.453125 2.34375 -7.453125 C 2.269531 -7.453125 2.191406 -7.453125 2.109375 -7.453125 C 2.023438 -7.453125 1.953125 -7.445312 1.890625 -7.4375 Z M 1.890625 -3.1875 "/></g></g></g><g fill="#000000" fill-opacity="1"><g transform="translate(138.447083, 40.956145)"><g><path d="M -0.1875 0 L -0.1875 -0.140625 C -0.03125 -0.191406 0.117188 -0.289062 0.265625 -0.4375 C 0.410156 -0.59375 0.566406 -0.875 0.734375 -1.28125 L 2.875 -6.59375 C 2.9375 -6.769531 2.929688 -6.941406 2.859375 -7.109375 L 2.75 -7.34375 L 3.578125 -7.703125 L 6.25 -1.28125 C 6.414062 -0.875 6.566406 -0.59375 6.703125 -0.4375 C 6.835938 -0.289062 6.960938 -0.191406 7.078125 -0.140625 L 7.078125 0 L 5.390625 0 L 5.390625 -0.140625 C 5.554688 -0.191406 5.625 -0.289062 5.59375 -0.4375 C 5.5625 -0.59375 5.460938 -0.875 5.296875 -1.28125 L 4.625 -2.875 L 1.5625 -2.875 L 0.921875 -1.28125 C 0.640625 -0.59375 0.679688 -0.210938 1.046875 -0.140625 L 1.046875 0 Z M 1.625 -3.03125 L 4.5625 -3.03125 L 3.078125 -6.625 Z M 1.625 -3.03125 "/></g></g></g><g fill="#000000" fill-opacity="1"><g transform="translate(147.056161, 40.956145)"><g><path d="M 6.09375 0.078125 C 5.820312 0.078125 5.601562 0.0078125 5.4375 -0.125 C 5.28125 -0.257812 5.140625 -0.453125 5.015625 -0.703125 C 4.898438 -0.960938 4.765625 -1.285156 4.609375 -1.671875 C 4.441406 -2.046875 4.304688 -2.375 4.203125 -2.65625 C 4.097656 -2.9375 3.976562 -3.171875 3.84375 -3.359375 C 3.71875 -3.546875 3.554688 -3.6875 3.359375 -3.78125 C 3.171875 -3.882812 2.910156 -3.9375 2.578125 -3.9375 L 1.890625 -3.9375 L 1.890625 -1.390625 C 1.890625 -0.941406 1.914062 -0.632812 1.96875 -0.46875 C 2.03125 -0.300781 2.144531 -0.191406 2.3125 -0.140625 L 2.3125 0 L 0.5625 0 L 0.5625 -0.140625 C 0.726562 -0.191406 0.835938 -0.300781 0.890625 -0.46875 C 0.953125 -0.632812 0.984375 -0.941406 0.984375 -1.390625 L 0.984375 -6.234375 C 0.984375 -6.691406 0.953125 -7 0.890625 -7.15625 C 0.835938 -7.320312 0.726562 -7.429688 0.5625 -7.484375 L 0.5625 -7.625 L 2.703125 -7.625 C 3.441406 -7.625 4.015625 -7.546875 4.421875 -7.390625 C 4.835938 -7.242188 5.128906 -7.046875 5.296875 -6.796875 C 5.472656 -6.546875 5.5625 -6.253906 5.5625 -5.921875 C 5.5625 -5.410156 5.378906 -4.972656 5.015625 -4.609375 C 4.648438 -4.253906 4.113281 -4.039062 3.40625 -3.96875 C 3.738281 -3.925781 4.007812 -3.847656 4.21875 -3.734375 C 4.4375 -3.628906 4.613281 -3.488281 4.75 -3.3125 C 4.882812 -3.132812 5.003906 -2.914062 5.109375 -2.65625 C 5.222656 -2.40625 5.347656 -2.113281 5.484375 -1.78125 C 5.648438 -1.34375 5.789062 -1.003906 5.90625 -0.765625 C 6.03125 -0.523438 6.144531 -0.359375 6.25 -0.265625 C 6.351562 -0.171875 6.46875 -0.125 6.59375 -0.125 C 6.625 -0.125 6.648438 -0.125 6.671875 -0.125 C 6.703125 -0.125 6.734375 -0.125 6.765625 -0.125 L 6.765625 0 C 6.679688 0.03125 6.578125 0.0507812 6.453125 0.0625 C 6.328125 0.0703125 6.207031 0.078125 6.09375 0.078125 Z M 1.890625 -4.09375 L 2.796875 -4.09375 C 3.421875 -4.09375 3.882812 -4.238281 4.1875 -4.53125 C 4.488281 -4.832031 4.640625 -5.210938 4.640625 -5.671875 C 4.640625 -6.003906 4.5625 -6.300781 4.40625 -6.5625 C 4.257812 -6.832031 4.019531 -7.046875 3.6875 -7.203125 C 3.363281 -7.367188 2.929688 -7.453125 2.390625 -7.453125 C 2.316406 -7.453125 2.234375 -7.453125 2.140625 -7.453125 C 2.054688 -7.453125 1.972656 -7.445312 1.890625 -7.4375 Z M 1.890625 -4.09375 "/></g></g></g><g fill="#000000" fill-opacity="1"><g transform="translate(155.349652, 40.956145)"><g><path d="M 2.171875 0 L 2.171875 -0.140625 C 2.335938 -0.191406 2.453125 -0.300781 2.515625 -0.46875 C 2.578125 -0.632812 2.609375 -0.941406 2.609375 -1.390625 L 2.609375 -7.453125 L 2.0625 -7.453125 C 1.582031 -7.453125 1.210938 -7.375 0.953125 -7.21875 C 0.703125 -7.0625 0.484375 -6.789062 0.296875 -6.40625 L 0.171875 -6.421875 L 0.234375 -7.625 L 5.84375 -7.625 L 5.90625 -6.421875 L 5.796875 -6.40625 C 5.609375 -6.789062 5.390625 -7.0625 5.140625 -7.21875 C 4.890625 -7.375 4.515625 -7.453125 4.015625 -7.453125 L 3.5 -7.453125 L 3.5 -1.390625 C 3.5 -0.941406 3.53125 -0.632812 3.59375 -0.46875 C 3.65625 -0.300781 3.769531 -0.191406 3.9375 -0.140625 L 3.9375 0 Z M 2.171875 0 "/></g></g></g><g fill="#000000" fill-opacity="1"><g transform="translate(163.077255, 40.956145)"><g><path d="M 6.3125 0.09375 L 1.171875 -6.59375 L 1.171875 -1.8125 C 1.171875 -1.40625 1.195312 -1.085938 1.25 -0.859375 C 1.3125 -0.628906 1.398438 -0.460938 1.515625 -0.359375 C 1.628906 -0.253906 1.765625 -0.179688 1.921875 -0.140625 L 1.921875 0 L 0.5625 0 L 0.5625 -0.140625 C 0.726562 -0.191406 0.84375 -0.300781 0.90625 -0.46875 C 0.96875 -0.632812 1 -0.941406 1 -1.390625 L 1 -6.234375 C 1 -6.691406 0.957031 -7 0.875 -7.15625 C 0.800781 -7.320312 0.65625 -7.429688 0.4375 -7.484375 L 0.4375 -7.625 L 1.5 -7.625 L 6.265625 -1.453125 L 6.265625 -5.8125 C 6.265625 -6.21875 6.234375 -6.535156 6.171875 -6.765625 C 6.117188 -6.992188 6.035156 -7.160156 5.921875 -7.265625 C 5.816406 -7.367188 5.679688 -7.441406 5.515625 -7.484375 L 5.515625 -7.625 L 6.890625 -7.625 L 6.890625 -7.484375 C 6.710938 -7.429688 6.59375 -7.320312 6.53125 -7.15625 C 6.476562 -7 6.453125 -6.691406 6.453125 -6.234375 L 6.453125 0.09375 Z M 6.3125 0.09375 "/></g></g></g><g fill="#000000" fill-opacity="1"><g transform="translate(172.02369, 40.956145)"><g><path d="M 0.5625 0 L 0.5625 -0.140625 C 0.726562 -0.191406 0.835938 -0.300781 0.890625 -0.46875 C 0.953125 -0.632812 0.984375 -0.941406 0.984375 -1.390625 L 0.984375 -6.234375 C 0.984375 -6.691406 0.953125 -7 0.890625 -7.15625 C 0.835938 -7.320312 0.726562 -7.429688 0.5625 -7.484375 L 0.5625 -7.625 L 5.625 -7.625 L 5.734375 -6.203125 L 5.625 -6.171875 C 5.4375 -6.648438 5.171875 -6.984375 4.828125 -7.171875 C 4.492188 -7.359375 4.046875 -7.453125 3.484375 -7.453125 L 1.890625 -7.453125 L 1.890625 -4.15625 L 3.28125 -4.15625 C 3.695312 -4.15625 4.015625 -4.179688 4.234375 -4.234375 C 4.460938 -4.296875 4.628906 -4.378906 4.734375 -4.484375 C 4.847656 -4.597656 4.925781 -4.738281 4.96875 -4.90625 L 5.09375 -4.90625 L 5.09375 -3.25 L 4.96875 -3.25 C 4.925781 -3.414062 4.847656 -3.550781 4.734375 -3.65625 C 4.628906 -3.769531 4.460938 -3.851562 4.234375 -3.90625 C 4.015625 -3.96875 3.695312 -4 3.28125 -4 L 1.890625 -4 L 1.890625 -0.65625 C 1.890625 -0.320312 2.050781 -0.15625 2.375 -0.15625 L 3.796875 -0.15625 C 4.316406 -0.15625 4.742188 -0.242188 5.078125 -0.421875 C 5.421875 -0.609375 5.691406 -0.957031 5.890625 -1.46875 L 6.015625 -1.453125 L 5.921875 0 Z M 0.5625 0 "/></g></g></g><g fill="#000000" fill-opacity="1"><g transform="translate(180.066881, 40.956145)"><g><path d="M 6.09375 0.078125 C 5.820312 0.078125 5.601562 0.0078125 5.4375 -0.125 C 5.28125 -0.257812 5.140625 -0.453125 5.015625 -0.703125 C 4.898438 -0.960938 4.765625 -1.285156 4.609375 -1.671875 C 4.441406 -2.046875 4.304688 -2.375 4.203125 -2.65625 C 4.097656 -2.9375 3.976562 -3.171875 3.84375 -3.359375 C 3.71875 -3.546875 3.554688 -3.6875 3.359375 -3.78125 C 3.171875 -3.882812 2.910156 -3.9375 2.578125 -3.9375 L 1.890625 -3.9375 L 1.890625 -1.390625 C 1.890625 -0.941406 1.914062 -0.632812 1.96875 -0.46875 C 2.03125 -0.300781 2.144531 -0.191406 2.3125 -0.140625 L 2.3125 0 L 0.5625 0 L 0.5625 -0.140625 C 0.726562 -0.191406 0.835938 -0.300781 0.890625 -0.46875 C 0.953125 -0.632812 0.984375 -0.941406 0.984375 -1.390625 L 0.984375 -6.234375 C 0.984375 -6.691406 0.953125 -7 0.890625 -7.15625 C 0.835938 -7.320312 0.726562 -7.429688 0.5625 -7.484375 L 0.5625 -7.625 L 2.703125 -7.625 C 3.441406 -7.625 4.015625 -7.546875 4.421875 -7.390625 C 4.835938 -7.242188 5.128906 -7.046875 5.296875 -6.796875 C 5.472656 -6.546875 5.5625 -6.253906 5.5625 -5.921875 C 5.5625 -5.410156 5.378906 -4.972656 5.015625 -4.609375 C 4.648438 -4.253906 4.113281 -4.039062 3.40625 -3.96875 C 3.738281 -3.925781 4.007812 -3.847656 4.21875 -3.734375 C 4.4375 -3.628906 4.613281 -3.488281 4.75 -3.3125 C 4.882812 -3.132812 5.003906 -2.914062 5.109375 -2.65625 C 5.222656 -2.40625 5.347656 -2.113281 5.484375 -1.78125 C 5.648438 -1.34375 5.789062 -1.003906 5.90625 -0.765625 C 6.03125 -0.523438 6.144531 -0.359375 6.25 -0.265625 C 6.351562 -0.171875 6.46875 -0.125 6.59375 -0.125 C 6.625 -0.125 6.648438 -0.125 6.671875 -0.125 C 6.703125 -0.125 6.734375 -0.125 6.765625 -0.125 L 6.765625 0 C 6.679688 0.03125 6.578125 0.0507812 6.453125 0.0625 C 6.328125 0.0703125 6.207031 0.078125 6.09375 0.078125 Z M 1.890625 -4.09375 L 2.796875 -4.09375 C 3.421875 -4.09375 3.882812 -4.238281 4.1875 -4.53125 C 4.488281 -4.832031 4.640625 -5.210938 4.640625 -5.671875 C 4.640625 -6.003906 4.5625 -6.300781 4.40625 -6.5625 C 4.257812 -6.832031 4.019531 -7.046875 3.6875 -7.203125 C 3.363281 -7.367188 2.929688 -7.453125 2.390625 -7.453125 C 2.316406 -7.453125 2.234375 -7.453125 2.140625 -7.453125 C 2.054688 -7.453125 1.972656 -7.445312 1.890625 -7.4375 Z M 1.890625 -4.09375 "/></g></g></g></svg>