<svg xmlns="http://www.w3.org/2000/svg" xmlns:xlink="http://www.w3.org/1999/xlink" width="500" zoomAndPan="magnify" viewBox="0 0 375 374.999991" height="500" preserveAspectRatio="xMidYMid meet" version="1.0"><defs><clipPath id="5659be0db4"><path d="M 134 51.742188 L 144 51.742188 L 144 59 L 134 59 Z M 134 51.742188 " clip-rule="nonzero"/></clipPath><clipPath id="b05cc2dc75"><path d="M 149 51.742188 L 155 51.742188 L 155 59 L 149 59 Z M 149 51.742188 " clip-rule="nonzero"/></clipPath><clipPath id="56df97918b"><path d="M 160 51.742188 L 170 51.742188 L 170 59 L 160 59 Z M 160 51.742188 " clip-rule="nonzero"/></clipPath><clipPath id="161b895936"><path d="M 76.066406 174 L 149 174 L 149 256 L 76.066406 256 Z M 76.066406 174 " clip-rule="nonzero"/></clipPath><clipPath id="6e7b466105"><path d="M 90 116 L 272 116 L 272 268.492188 L 90 268.492188 Z M 90 116 " clip-rule="nonzero"/></clipPath></defs><g clip-path="url(#5659be0db4)"><path fill="#00adef" d="M 143.808594 51.742188 L 136.800781 51.742188 L 134.992188 58.972656 L 142.003906 58.972656 Z M 143.808594 51.742188 " fill-opacity="1" fill-rule="nonzero"/></g><g clip-path="url(#b05cc2dc75)"><path fill="#00adef" d="M 152.847656 51.742188 L 151.257812 51.742188 L 149.449219 58.972656 L 154.65625 58.972656 Z M 152.847656 51.742188 " fill-opacity="1" fill-rule="nonzero"/></g><path fill="#00adef" d="M 152.050781 118.261719 L 171.8125 93.558594 C 175.390625 89.09375 177.359375 83.476562 177.359375 77.75 L 177.359375 77.050781 C 177.359375 73.226562 176.492188 69.550781 174.902344 66.203125 L 170.128906 66.203125 L 170.128906 80.664062 C 170.128906 84.652344 166.886719 87.894531 162.898438 87.894531 L 141.207031 87.894531 C 137.21875 87.894531 133.976562 84.652344 133.976562 80.664062 L 133.976562 66.203125 L 129.203125 66.203125 C 127.613281 69.550781 126.746094 73.226562 126.746094 77.050781 L 126.746094 77.75 C 126.746094 83.476562 128.714844 89.09375 132.292969 93.5625 Z M 155.667969 91.511719 L 162.898438 91.511719 L 162.898438 98.742188 L 155.667969 98.742188 Z M 141.207031 91.511719 L 148.4375 91.511719 L 148.4375 98.742188 L 141.207031 98.742188 Z M 141.207031 91.511719 " fill-opacity="1" fill-rule="nonzero"/><path fill="#00adef" d="M 130.359375 196.351562 L 130.359375 174.660156 L 94.207031 174.660156 L 94.207031 196.351562 L 101.4375 196.351562 L 101.4375 189.121094 C 101.4375 185.136719 104.683594 181.890625 108.667969 181.890625 L 115.898438 181.890625 C 119.886719 181.890625 123.128906 185.136719 123.128906 189.121094 L 123.128906 196.351562 Z M 130.359375 196.351562 " fill-opacity="1" fill-rule="nonzero"/><path fill="#00adef" d="M 141.636719 116.816406 L 94.207031 116.816406 L 94.207031 124.046875 L 147.421875 124.046875 Z M 141.636719 116.816406 " fill-opacity="1" fill-rule="nonzero"/><path fill="#00adef" d="M 162.898438 80.664062 L 162.898438 66.203125 L 141.207031 66.203125 L 141.207031 80.664062 L 148.4375 80.664062 L 148.4375 73.433594 L 155.667969 73.433594 L 155.667969 80.664062 Z M 162.898438 80.664062 " fill-opacity="1" fill-rule="nonzero"/><path fill="#00adef" d="M 108.667969 189.121094 L 115.898438 189.121094 L 115.898438 196.351562 L 108.667969 196.351562 Z M 108.667969 189.121094 " fill-opacity="1" fill-rule="nonzero"/><path fill="#00adef" d="M 267.738281 152.96875 L 267.738281 131.277344 L 231.585938 131.277344 L 231.585938 152.96875 L 238.816406 152.96875 L 238.816406 145.738281 C 238.816406 141.753906 242.0625 138.507812 246.046875 138.507812 L 253.277344 138.507812 C 257.265625 138.507812 260.507812 141.753906 260.507812 145.738281 L 260.507812 152.96875 Z M 267.738281 152.96875 " fill-opacity="1" fill-rule="nonzero"/><path fill="#00adef" d="M 246.046875 145.738281 L 253.277344 145.738281 L 253.277344 152.96875 L 246.046875 152.96875 Z M 246.046875 145.738281 " fill-opacity="1" fill-rule="nonzero"/><g clip-path="url(#56df97918b)"><path fill="#00adef" d="M 169.117188 58.972656 L 167.308594 51.742188 L 160.296875 51.742188 L 162.101562 58.972656 Z M 169.117188 58.972656 " fill-opacity="1" fill-rule="nonzero"/></g><path fill="#00adef" d="M 273.566406 124.046875 L 269.578125 112.058594 C 269.082031 110.582031 267.699219 109.585938 266.144531 109.585938 L 261.160156 109.585938 L 263.570312 124.046875 Z M 273.566406 124.046875 " fill-opacity="1" fill-rule="nonzero"/><path fill="#00adef" d="M 253.832031 109.585938 L 245.496094 109.585938 L 243.085938 124.046875 L 256.242188 124.046875 Z M 253.832031 109.585938 " fill-opacity="1" fill-rule="nonzero"/><path fill="#00adef" d="M 238.167969 109.585938 L 233.1875 109.585938 C 231.628906 109.585938 230.246094 110.582031 229.753906 112.058594 L 225.761719 124.046875 L 235.757812 124.046875 Z M 238.167969 109.585938 " fill-opacity="1" fill-rule="nonzero"/><path fill="#00adef" d="M 100.789062 152.96875 L 95.804688 152.96875 C 94.246094 152.96875 92.863281 153.964844 92.371094 155.441406 L 88.382812 167.429688 L 98.378906 167.429688 Z M 100.789062 152.96875 " fill-opacity="1" fill-rule="nonzero"/><g clip-path="url(#161b895936)"><path fill="#00adef" d="M 140.710938 219.394531 C 145.695312 213.054688 148.4375 205.125 148.4375 197.058594 L 148.4375 196.351562 C 148.4375 188.40625 145.859375 180.886719 141.160156 174.660156 L 137.589844 174.660156 L 137.589844 196.351562 C 137.589844 200.339844 134.347656 203.582031 130.359375 203.582031 L 94.207031 203.582031 C 90.222656 203.582031 86.976562 200.339844 86.976562 196.351562 L 86.976562 174.660156 L 83.40625 174.660156 C 78.710938 180.886719 76.132812 188.40625 76.132812 196.351562 L 76.132812 197.058594 C 76.132812 205.121094 78.875 213.054688 83.859375 219.394531 L 112.285156 255.578125 Z M 123.128906 210.8125 L 130.359375 210.8125 L 130.359375 218.042969 L 123.128906 218.042969 Z M 101.4375 218.042969 L 94.207031 218.042969 L 94.207031 210.8125 L 101.4375 210.8125 Z M 108.667969 210.8125 L 115.898438 210.8125 L 115.898438 218.042969 L 108.667969 218.042969 Z M 108.667969 210.8125 " fill-opacity="1" fill-rule="nonzero"/></g><g clip-path="url(#6e7b466105)"><path fill="#00adef" d="M 184.589844 225.273438 C 184.589844 221.289062 187.832031 218.042969 191.820312 218.042969 L 245.070312 218.042969 L 239.390625 210.8125 L 191.820312 210.8125 C 187.832031 210.8125 184.589844 207.570312 184.589844 203.582031 L 184.589844 131.277344 C 184.589844 127.292969 187.832031 124.046875 191.820312 124.046875 L 217.390625 124.046875 C 217.773438 123.621094 218.15625 123.191406 218.558594 122.78125 L 220.546875 116.816406 L 162.46875 116.816406 L 156.683594 124.046875 L 170.128906 124.046875 C 174.117188 124.046875 177.359375 127.292969 177.359375 131.277344 L 177.359375 225.273438 C 177.359375 229.261719 174.117188 232.503906 170.128906 232.503906 L 139.605469 232.503906 L 133.925781 239.734375 L 170.128906 239.734375 C 174.117188 239.734375 177.359375 242.980469 177.359375 246.964844 L 177.359375 261.425781 L 90.59375 261.425781 L 90.59375 268.65625 L 271.355469 268.65625 L 271.355469 261.425781 L 184.589844 261.425781 Z M 184.589844 225.273438 " fill-opacity="1" fill-rule="nonzero"/></g><path fill="#00adef" d="M 108.117188 152.96875 L 105.707031 167.429688 L 118.863281 167.429688 L 116.453125 152.96875 Z M 108.117188 152.96875 " fill-opacity="1" fill-rule="nonzero"/><path fill="#00adef" d="M 278.542969 131.277344 L 274.96875 131.277344 L 274.96875 152.96875 C 274.96875 156.957031 271.726562 160.199219 267.738281 160.199219 L 231.585938 160.199219 C 227.601562 160.199219 224.355469 156.957031 224.355469 152.96875 L 224.355469 131.277344 L 220.785156 131.277344 C 216.089844 137.503906 213.511719 145.023438 213.511719 152.96875 L 213.511719 153.675781 C 213.511719 161.738281 216.253906 169.671875 221.238281 176.011719 L 249.664062 212.195312 L 278.089844 176.011719 C 283.074219 169.671875 285.816406 161.742188 285.816406 153.675781 L 285.816406 152.96875 C 285.816406 145.019531 283.238281 137.503906 278.542969 131.277344 Z M 238.816406 174.660156 L 231.585938 174.660156 L 231.585938 167.429688 L 238.816406 167.429688 Z M 253.277344 174.660156 L 246.046875 174.660156 L 246.046875 167.429688 L 253.277344 167.429688 Z M 267.738281 174.660156 L 260.507812 174.660156 L 260.507812 167.429688 L 267.738281 167.429688 Z M 267.738281 174.660156 " fill-opacity="1" fill-rule="nonzero"/><path fill="#00adef" d="M 132.199219 155.441406 C 131.703125 153.964844 130.320312 152.96875 128.765625 152.96875 L 123.78125 152.96875 L 126.191406 167.429688 L 136.1875 167.429688 Z M 132.199219 155.441406 " fill-opacity="1" fill-rule="nonzero"/></svg>