<svg width="57" height="59" viewBox="0 0 57 59" fill="none" xmlns="http://www.w3.org/2000/svg">
<g clip-path="url(#clip0_51_2)">
<mask id="mask0_51_2" style="mask-type:luminance" maskUnits="userSpaceOnUse" x="15" y="0" width="4" height="3">
<path d="M15.7334 0.798828H18.4001V2.73425H15.7334V0.798828Z" fill="white"/>
</mask>
<g mask="url(#mask0_51_2)">
<path d="M18.3491 0.798828H16.4803L15.998 2.72695H17.8678L18.3491 0.798828Z" fill="#00ADEF"/>
</g>
<mask id="mask1_51_2" style="mask-type:luminance" maskUnits="userSpaceOnUse" x="19" y="0" width="3" height="3">
<path d="M19.7334 0.798828H21.3334V2.73425H19.7334V0.798828Z" fill="white"/>
</mask>
<g mask="url(#mask1_51_2)">
<path d="M20.7595 0.798828H20.3356L19.8533 2.72695H21.2418L20.7595 0.798828Z" fill="#00ADEF"/>
</g>
<path d="M20.547 18.5366L25.8168 11.9491C26.7709 10.7585 27.2959 9.26055 27.2959 7.73346V7.54701C27.2959 6.52721 27.0647 5.54701 26.6407 4.6543H25.3678V8.51055C25.3678 9.57409 24.5032 10.4387 23.4397 10.4387H17.6553C16.5918 10.4387 15.7272 9.57409 15.7272 8.51055V4.6543H14.4543C14.0303 5.54701 13.7991 6.52721 13.7991 7.54701V7.73346C13.7991 9.26055 14.3241 10.7585 15.2782 11.9501L20.547 18.5366ZM21.5116 11.4033H23.4397V13.3314H21.5116V11.4033ZM17.6553 11.4033H19.5834V13.3314H17.6553V11.4033Z" fill="#00ADEF"/>
<path d="M14.7625 39.3605V33.5762H5.12183V39.3605H7.04995V37.4324C7.04995 36.3699 7.91558 35.5043 8.97808 35.5043H10.9062C11.9697 35.5043 12.8343 36.3699 12.8343 37.4324V39.3605H14.7625Z" fill="#00ADEF"/>
<path d="M17.7697 18.1504H5.12183V20.0785H19.3125L17.7697 18.1504Z" fill="#00ADEF"/>
<path d="M23.4396 8.51055V4.6543H17.6553V8.51055H19.5834V6.58242H21.5115V8.51055H23.4396Z" fill="#00ADEF"/>
<path d="M8.97803 37.4316H10.9062V39.3598H8.97803V37.4316Z" fill="#00ADEF"/>
<path d="M51.397 27.7922V22.0078H41.7563V27.7922H43.6845V25.8641C43.6845 24.8016 44.5501 23.9359 45.6126 23.9359H47.5407C48.6043 23.9359 49.4688 24.8016 49.4688 25.8641V27.7922H51.397Z" fill="#00ADEF"/>
<path d="M45.6125 25.8633H47.5407V27.7914H45.6125V25.8633Z" fill="#00ADEF"/>
<mask id="mask2_51_2" style="mask-type:luminance" maskUnits="userSpaceOnUse" x="22" y="0" width="4" height="3">
<path d="M22.6667 0.798828H25.3334V2.73425H22.6667V0.798828Z" fill="white"/>
</mask>
<g mask="url(#mask2_51_2)">
<path d="M25.0979 2.72695L24.6156 0.798828H22.7458L23.2271 2.72695H25.0979Z" fill="#00ADEF"/>
</g>
<path d="M52.9512 20.0789L51.8876 16.882C51.7553 16.4883 51.3866 16.2227 50.972 16.2227H49.6428L50.2855 20.0789H52.9512Z" fill="#00ADEF"/>
<path d="M47.6886 16.2227H45.4657L44.823 20.0789H48.3313L47.6886 16.2227Z" fill="#00ADEF"/>
<path d="M43.5115 16.2227H42.1833C41.7677 16.2227 41.399 16.4883 41.2677 16.882L40.2031 20.0789H42.8688L43.5115 16.2227Z" fill="#00ADEF"/>
<path d="M6.87718 27.791H5.54801C5.13239 27.791 4.76364 28.0566 4.63239 28.4504L3.56885 31.6473H6.23447L6.87718 27.791Z" fill="#00ADEF"/>
<mask id="mask3_51_2" style="mask-type:luminance" maskUnits="userSpaceOnUse" x="0" y="33" width="20" height="23">
<path d="M0.284424 33.4004H19.7334V55.2671H0.284424V33.4004Z" fill="white"/>
</mask>
<g mask="url(#mask3_51_2)">
<path d="M17.5231 45.5053C18.8522 43.8147 19.5835 41.7001 19.5835 39.5491V39.3605C19.5835 37.2418 18.896 35.2366 17.6429 33.5762H16.6908V39.3605C16.6908 40.4241 15.8262 41.2887 14.7627 41.2887H5.12204C4.05954 41.2887 3.19391 40.4241 3.19391 39.3605V33.5762H2.24183C0.989746 35.2366 0.302246 37.2418 0.302246 39.3605V39.5491C0.302246 41.6991 1.0335 43.8147 2.36266 45.5053L9.94287 55.1543L17.5231 45.5053ZM12.8345 43.2168H14.7627V45.1449H12.8345V43.2168ZM7.05016 45.1449H5.12204V43.2168H7.05016V45.1449ZM8.97829 43.2168H10.9064V45.1449H8.97829V43.2168Z" fill="#00ADEF"/>
</g>
<mask id="mask4_51_2" style="mask-type:luminance" maskUnits="userSpaceOnUse" x="4" y="17" width="49" height="42">
<path d="M4 17.9336H52.5333V58.5982H4V17.9336Z" fill="white"/>
</mask>
<g mask="url(#mask4_51_2)">
<path d="M29.2241 47.0723C29.2241 46.0098 30.0887 45.1441 31.1522 45.1441H45.3522L43.8376 43.216H31.1522C30.0887 43.216 29.2241 42.3514 29.2241 41.2879V22.0066C29.2241 20.9441 30.0887 20.0785 31.1522 20.0785H37.9709C38.073 19.965 38.1751 19.8504 38.2824 19.741L38.8126 18.1504H23.3251L21.7824 20.0785H25.3678C26.4314 20.0785 27.2959 20.9441 27.2959 22.0066V47.0723C27.2959 48.1358 26.4314 49.0004 25.3678 49.0004H17.2282L15.7137 50.9285H25.3678C26.4314 50.9285 27.2959 51.7941 27.2959 52.8566V56.7129H4.15845V58.641H52.3616V56.7129H29.2241V47.0723Z" fill="#00ADEF"/>
</g>
<path d="M8.83118 27.791L8.18848 31.6473H11.6968L11.0541 27.791H8.83118Z" fill="#00ADEF"/>
<path d="M54.2782 22.0078H53.3251V27.7922C53.3251 28.8557 52.4605 29.7203 51.3969 29.7203H41.7563C40.6938 29.7203 39.8282 28.8557 39.8282 27.7922V22.0078H38.8761C37.624 23.6682 36.9365 25.6734 36.9365 27.7922V27.9807C36.9365 30.1307 37.6678 32.2464 38.9969 33.937L46.5771 43.5859L54.1574 33.937C55.4865 32.2464 56.2178 30.1318 56.2178 27.9807V27.7922C56.2178 25.6724 55.5303 23.6682 54.2782 22.0078ZM43.6844 33.5766H41.7563V31.6484H43.6844V33.5766ZM47.5407 33.5766H45.6126V31.6484H47.5407V33.5766ZM51.3969 33.5766H49.4688V31.6484H51.3969V33.5766Z" fill="#00ADEF"/>
<path d="M15.2531 28.4504C15.1208 28.0566 14.7521 27.791 14.3375 27.791H13.0083L13.651 31.6473H16.3166L15.2531 28.4504Z" fill="#00ADEF"/>
</g>
<defs>
<clipPath id="clip0_51_2">
<rect width="57" height="59" fill="white"/>
</clipPath>
</defs>
</svg>
