<svg xmlns="http://www.w3.org/2000/svg" xmlns:xlink="http://www.w3.org/1999/xlink" width="459" zoomAndPan="magnify" viewBox="0 0 344.25 132.750001" height="177" preserveAspectRatio="xMidYMid meet" version="1.0"><defs><g/><clipPath id="5f52c2eb76"><path d="M 234.074219 23.234375 L 292 23.234375 L 292 81 L 234.074219 81 Z M 234.074219 23.234375 " clip-rule="nonzero"/></clipPath><clipPath id="a10f818d1d"><path d="M 291 79 L 320 79 L 320 108.675781 L 291 108.675781 Z M 291 79 " clip-rule="nonzero"/></clipPath><clipPath id="0cf312b33c"><path d="M 210.992188 0.0195312 L 343.039062 0.0195312 L 343.039062 132.066406 L 210.992188 132.066406 Z M 210.992188 0.0195312 " clip-rule="nonzero"/></clipPath></defs><g clip-path="url(#5f52c2eb76)"><path fill="#00adef" d="M 262.761719 80.550781 C 246.957031 80.550781 234.101562 67.695312 234.101562 51.890625 C 234.101562 36.085938 246.957031 23.230469 262.761719 23.230469 C 278.566406 23.230469 291.421875 36.085938 291.421875 51.890625 C 291.421875 67.695312 278.5625 80.550781 262.761719 80.550781 Z M 262.761719 27.945312 C 261.976562 27.945312 261.195312 27.984375 260.414062 28.058594 C 259.632812 28.136719 258.859375 28.25 258.089844 28.40625 C 257.320312 28.558594 256.558594 28.746094 255.808594 28.976562 C 255.058594 29.203125 254.320312 29.46875 253.597656 29.765625 C 252.871094 30.066406 252.164062 30.402344 251.472656 30.773438 C 250.78125 31.140625 250.109375 31.542969 249.457031 31.980469 C 248.804688 32.417969 248.175781 32.882812 247.570312 33.378906 C 246.960938 33.878906 246.382812 34.402344 245.828125 34.957031 C 245.273438 35.511719 244.746094 36.09375 244.25 36.699219 C 243.75 37.304688 243.285156 37.933594 242.847656 38.585938 C 242.414062 39.238281 242.011719 39.910156 241.640625 40.601562 C 241.273438 41.292969 240.9375 42.003906 240.636719 42.726562 C 240.335938 43.453125 240.074219 44.191406 239.84375 44.941406 C 239.617188 45.691406 239.425781 46.449219 239.273438 47.21875 C 239.121094 47.988281 239.003906 48.765625 238.929688 49.542969 C 238.851562 50.324219 238.8125 51.105469 238.8125 51.890625 C 238.8125 52.675781 238.851562 53.457031 238.929688 54.238281 C 239.003906 55.019531 239.121094 55.792969 239.273438 56.5625 C 239.425781 57.332031 239.617188 58.09375 239.84375 58.84375 C 240.074219 59.59375 240.335938 60.332031 240.636719 61.054688 C 240.9375 61.78125 241.273438 62.488281 241.640625 63.179688 C 242.011719 63.871094 242.414062 64.542969 242.847656 65.195312 C 243.285156 65.847656 243.75 66.476562 244.25 67.082031 C 244.746094 67.6875 245.273438 68.269531 245.828125 68.824219 C 246.382812 69.378906 246.960938 69.90625 247.570312 70.402344 C 248.175781 70.898438 248.804688 71.367188 249.457031 71.800781 C 250.109375 72.238281 250.78125 72.640625 251.472656 73.011719 C 252.164062 73.378906 252.871094 73.714844 253.597656 74.015625 C 254.320312 74.316406 255.058594 74.578125 255.808594 74.808594 C 256.558594 75.035156 257.320312 75.226562 258.089844 75.378906 C 258.859375 75.53125 259.632812 75.644531 260.414062 75.722656 C 261.195312 75.800781 261.976562 75.839844 262.761719 75.839844 C 263.542969 75.839844 264.328125 75.800781 265.109375 75.722656 C 265.886719 75.644531 266.664062 75.53125 267.433594 75.378906 C 268.203125 75.226562 268.960938 75.035156 269.710938 74.808594 C 270.460938 74.578125 271.199219 74.316406 271.925781 74.015625 C 272.648438 73.714844 273.355469 73.378906 274.050781 73.011719 C 274.742188 72.640625 275.414062 72.238281 276.066406 71.800781 C 276.714844 71.367188 277.347656 70.898438 277.953125 70.402344 C 278.558594 69.90625 279.140625 69.378906 279.695312 68.824219 C 280.246094 68.269531 280.773438 67.6875 281.273438 67.082031 C 281.769531 66.476562 282.234375 65.847656 282.671875 65.195312 C 283.105469 64.542969 283.511719 63.871094 283.878906 63.179688 C 284.25 62.488281 284.585938 61.78125 284.882812 61.054688 C 285.183594 60.332031 285.449219 59.59375 285.675781 58.84375 C 285.902344 58.09375 286.09375 57.332031 286.246094 56.5625 C 286.398438 55.792969 286.515625 55.019531 286.59375 54.238281 C 286.667969 53.457031 286.707031 52.675781 286.707031 51.890625 C 286.707031 51.109375 286.667969 50.324219 286.589844 49.546875 C 286.511719 48.765625 286.394531 47.992188 286.242188 47.222656 C 286.089844 46.453125 285.898438 45.695312 285.667969 44.945312 C 285.441406 44.195312 285.175781 43.457031 284.875 42.734375 C 284.574219 42.007812 284.242188 41.300781 283.871094 40.609375 C 283.5 39.917969 283.097656 39.246094 282.660156 38.59375 C 282.226562 37.945312 281.757812 37.316406 281.261719 36.707031 C 280.765625 36.101562 280.238281 35.523438 279.683594 34.96875 C 279.128906 34.414062 278.550781 33.886719 277.945312 33.390625 C 277.335938 32.894531 276.707031 32.425781 276.058594 31.992188 C 275.40625 31.554688 274.734375 31.152344 274.042969 30.78125 C 273.351562 30.414062 272.644531 30.078125 271.917969 29.777344 C 271.195312 29.476562 270.457031 29.214844 269.707031 28.984375 C 268.957031 28.757812 268.199219 28.566406 267.429688 28.414062 C 266.660156 28.257812 265.886719 28.144531 265.105469 28.066406 C 264.328125 27.988281 263.542969 27.949219 262.761719 27.949219 Z M 262.761719 27.945312 " fill-opacity="1" fill-rule="nonzero"/></g><path fill="#00adef" d="M 283.457031 83.648438 C 282.921875 83.648438 282.433594 83.503906 281.992188 83.207031 C 281.546875 82.910156 281.222656 82.515625 281.019531 82.027344 C 280.816406 81.535156 280.761719 81.027344 280.867188 80.503906 C 280.96875 79.980469 281.207031 79.53125 281.582031 79.152344 L 288.882812 71.796875 C 289.121094 71.523438 289.40625 71.308594 289.734375 71.15625 C 290.0625 71 290.410156 70.914062 290.769531 70.902344 C 291.132812 70.890625 291.484375 70.949219 291.824219 71.082031 C 292.164062 71.214844 292.460938 71.40625 292.71875 71.664062 C 292.976562 71.917969 293.175781 72.214844 293.3125 72.550781 C 293.449219 72.890625 293.511719 73.238281 293.503906 73.601562 C 293.496094 73.964844 293.414062 74.3125 293.261719 74.640625 C 293.109375 74.972656 292.898438 75.257812 292.628906 75.503906 L 285.332031 82.855469 C 284.816406 83.382812 284.191406 83.648438 283.457031 83.648438 Z M 283.457031 83.648438 " fill-opacity="1" fill-rule="nonzero"/><g clip-path="url(#a10f818d1d)"><path fill="#00adef" d="M 315.128906 108.402344 C 314.519531 108.40625 313.933594 108.289062 313.375 108.050781 C 312.8125 107.816406 312.320312 107.480469 311.894531 107.042969 L 292.472656 87.152344 C 292.265625 86.941406 292.078125 86.710938 291.917969 86.460938 C 291.753906 86.210938 291.617188 85.949219 291.507812 85.675781 C 291.398438 85.398438 291.3125 85.113281 291.261719 84.820312 C 291.207031 84.53125 291.179688 84.234375 291.183594 83.9375 C 291.1875 83.640625 291.21875 83.347656 291.28125 83.054688 C 291.339844 82.765625 291.429688 82.484375 291.546875 82.210938 C 291.664062 81.9375 291.808594 81.675781 291.976562 81.433594 C 292.144531 81.1875 292.332031 80.960938 292.546875 80.753906 C 292.757812 80.546875 292.988281 80.359375 293.238281 80.199219 C 293.488281 80.035156 293.75 79.898438 294.027344 79.789062 C 294.300781 79.679688 294.585938 79.597656 294.878906 79.542969 C 295.167969 79.488281 295.464844 79.460938 295.761719 79.464844 C 296.058594 79.46875 296.351562 79.5 296.644531 79.5625 C 296.933594 79.625 297.214844 79.710938 297.488281 79.828125 C 297.761719 79.945312 298.023438 80.089844 298.265625 80.257812 C 298.511719 80.425781 298.738281 80.613281 298.945312 80.828125 L 318.367188 100.714844 C 318.679688 101.035156 318.9375 101.390625 319.144531 101.785156 C 319.347656 102.179688 319.492188 102.597656 319.578125 103.035156 C 319.660156 103.472656 319.679688 103.914062 319.632812 104.355469 C 319.585938 104.796875 319.472656 105.226562 319.300781 105.636719 C 319.128906 106.046875 318.898438 106.421875 318.617188 106.765625 C 318.332031 107.109375 318.003906 107.402344 317.632812 107.648438 C 317.261719 107.894531 316.863281 108.082031 316.4375 108.210938 C 316.011719 108.339844 315.574219 108.402344 315.128906 108.402344 Z M 315.128906 108.402344 " fill-opacity="1" fill-rule="nonzero"/></g><path fill="#00adef" d="M 262.714844 72.078125 C 259.019531 72.078125 254.140625 71.019531 248.917969 67.003906 C 244.332031 63.476562 242.21875 58.050781 242.804688 51.316406 C 243.085938 48.203125 243.828125 45.203125 245.027344 42.316406 C 245.105469 42.144531 245.210938 41.996094 245.347656 41.871094 C 245.484375 41.742188 245.640625 41.644531 245.8125 41.578125 C 245.988281 41.511719 246.167969 41.484375 246.355469 41.488281 C 246.542969 41.492188 246.722656 41.535156 246.890625 41.609375 C 247.0625 41.6875 247.210938 41.792969 247.339844 41.929688 C 247.46875 42.066406 247.566406 42.21875 247.632812 42.394531 C 247.699219 42.566406 247.730469 42.75 247.726562 42.9375 C 247.722656 43.121094 247.683594 43.300781 247.609375 43.472656 C 246.535156 46.09375 245.871094 48.8125 245.613281 51.632812 C 245.132812 57.402344 246.824219 61.8125 250.640625 64.753906 C 260.070312 72.011719 268.128906 68.261719 268.210938 68.222656 C 268.382812 68.136719 268.5625 68.085938 268.75 68.074219 C 268.941406 68.058594 269.125 68.082031 269.304688 68.144531 C 269.484375 68.203125 269.644531 68.296875 269.789062 68.421875 C 269.929688 68.550781 270.042969 68.699219 270.125 68.871094 C 270.207031 69.039062 270.253906 69.222656 270.265625 69.410156 C 270.273438 69.601562 270.246094 69.785156 270.183594 69.964844 C 270.117188 70.144531 270.019531 70.300781 269.890625 70.441406 C 269.761719 70.582031 269.613281 70.691406 269.4375 70.769531 C 269.238281 70.875 266.652344 72.078125 262.714844 72.078125 Z M 262.714844 72.078125 " fill-opacity="1" fill-rule="nonzero"/><g clip-path="url(#0cf312b33c)"><path fill="#00adef" d="M 277.046875 132.132812 C 240.554688 132.132812 210.992188 102.367188 210.992188 66.074219 C 210.992188 29.785156 240.554688 0.0195312 277.046875 0.0195312 C 313.542969 0.0195312 343.105469 29.582031 343.105469 66.074219 C 343.105469 102.570312 313.339844 132.132812 277.046875 132.132812 Z M 277.046875 4.097656 C 242.796875 4.097656 215.070312 31.824219 215.070312 66.074219 C 215.070312 100.328125 242.796875 128.054688 277.046875 128.054688 C 311.300781 128.054688 339.027344 100.328125 339.027344 66.074219 C 339.027344 31.824219 311.09375 4.097656 277.046875 4.097656 Z M 277.046875 4.097656 " fill-opacity="1" fill-rule="nonzero"/></g><g fill="#000000" fill-opacity="1"><g transform="translate(14.918961, 75.952459)"><g><path d="M 11.625 -28.453125 C 12.59375 -28.359375 13.421875 -28.132812 14.109375 -27.78125 C 14.796875 -27.425781 15.265625 -27.175781 15.515625 -27.03125 C 15.773438 -26.894531 15.992188 -26.828125 16.171875 -26.828125 C 16.347656 -26.828125 16.492188 -26.863281 16.609375 -26.9375 C 16.734375 -27.019531 16.835938 -27.113281 16.921875 -27.21875 C 17.015625 -27.320312 17.09375 -27.4375 17.15625 -27.5625 C 17.226562 -27.6875 17.296875 -27.800781 17.359375 -27.90625 L 19.171875 -27.90625 L 19.171875 -18.703125 L 17.75 -18.703125 C 17.46875 -18.992188 17.140625 -19.644531 16.765625 -20.65625 C 16.398438 -21.675781 16.085938 -22.488281 15.828125 -23.09375 C 15.578125 -23.695312 15.265625 -24.257812 14.890625 -24.78125 C 14.046875 -25.945312 12.957031 -26.632812 11.625 -26.84375 Z M 7.640625 -0.109375 C 6.867188 -0.453125 6.320312 -0.695312 6 -0.84375 C 5.6875 -1 5.363281 -1.078125 5.03125 -1.078125 C 4.695312 -1.078125 4.328125 -0.71875 3.921875 0 L 2.09375 0 L 2.09375 -9.703125 L 3.453125 -9.703125 C 3.742188 -9.398438 4.003906 -8.984375 4.234375 -8.453125 C 4.460938 -7.929688 4.703125 -7.367188 4.953125 -6.765625 C 5.210938 -6.160156 5.492188 -5.535156 5.796875 -4.890625 C 6.097656 -4.242188 6.460938 -3.648438 6.890625 -3.109375 C 7.859375 -1.890625 9.085938 -1.203125 10.578125 -1.046875 L 10.578125 0.5625 C 9.398438 0.457031 8.421875 0.234375 7.640625 -0.109375 Z M 12.21875 -1.0625 C 13.625 -1.226562 14.71875 -1.800781 15.5 -2.78125 C 16.175781 -3.664062 16.515625 -4.671875 16.515625 -5.796875 C 16.515625 -6.929688 16.3125 -7.84375 15.90625 -8.53125 C 15.5 -9.21875 14.960938 -9.828125 14.296875 -10.359375 C 13.640625 -10.890625 12.882812 -11.367188 12.03125 -11.796875 C 11.1875 -12.234375 10.320312 -12.664062 9.4375 -13.09375 C 8.550781 -13.519531 7.6875 -13.960938 6.84375 -14.421875 C 6 -14.890625 5.25 -15.425781 4.59375 -16.03125 C 3.113281 -17.382812 2.375 -19.039062 2.375 -21 C 2.375 -22.96875 3.050781 -24.65625 4.40625 -26.0625 C 5.84375 -27.53125 7.707031 -28.34375 10 -28.5 L 10 -26.859375 C 8.375 -26.648438 7.28125 -25.820312 6.71875 -24.375 C 6.53125 -23.894531 6.4375 -23.300781 6.4375 -22.59375 C 6.4375 -21.894531 6.644531 -21.238281 7.0625 -20.625 C 7.488281 -20.007812 8.039062 -19.457031 8.71875 -18.96875 C 9.394531 -18.488281 10.171875 -18.046875 11.046875 -17.640625 C 11.921875 -17.234375 12.8125 -16.816406 13.71875 -16.390625 C 14.625 -15.972656 15.507812 -15.519531 16.375 -15.03125 C 17.25 -14.550781 18.03125 -13.992188 18.71875 -13.359375 C 20.238281 -11.898438 21 -10.144531 21 -8.09375 C 21 -5.863281 20.191406 -3.925781 18.578125 -2.28125 C 16.890625 -0.519531 14.769531 0.4375 12.21875 0.59375 Z M 12.21875 -1.0625 "/></g></g></g><g fill="#000000" fill-opacity="1"><g transform="translate(43.805617, 75.952459)"><g><path d="M 1.65625 0 L 1.65625 -1.15625 C 1.96875 -1.351562 2.320312 -1.503906 2.71875 -1.609375 C 3.113281 -1.710938 3.394531 -1.8125 3.5625 -1.90625 C 3.738281 -2 3.882812 -2.144531 4 -2.34375 C 4.269531 -2.75 4.40625 -3.492188 4.40625 -4.578125 L 4.40625 -23.296875 C 4.40625 -24.390625 4.304688 -25.085938 4.109375 -25.390625 C 3.921875 -25.691406 3.742188 -25.882812 3.578125 -25.96875 C 3.421875 -26.050781 3.238281 -26.128906 3.03125 -26.203125 C 2.375 -26.378906 1.914062 -26.5625 1.65625 -26.75 L 1.65625 -27.90625 L 9.28125 -27.90625 L 9.28125 0 Z M 10.921875 -1.609375 L 11.296875 -1.59375 C 14.234375 -1.59375 16.320312 -1.898438 17.5625 -2.515625 C 18.851562 -3.171875 19.769531 -4.46875 20.3125 -6.40625 C 20.425781 -6.8125 20.523438 -7.179688 20.609375 -7.515625 C 20.691406 -7.847656 20.785156 -8.148438 20.890625 -8.421875 C 21.085938 -8.992188 21.363281 -9.457031 21.71875 -9.8125 L 23 -9.8125 L 23 0 L 10.921875 0 Z M 18.1875 -27.90625 C 19 -27.90625 20.304688 -28.003906 22.109375 -28.203125 L 22.109375 -18.578125 L 20.734375 -18.578125 C 20.273438 -19.171875 19.921875 -19.832031 19.671875 -20.5625 C 19.421875 -21.289062 19.164062 -22.003906 18.90625 -22.703125 C 18.644531 -23.398438 18.382812 -23.957031 18.125 -24.375 C 17.863281 -24.789062 17.535156 -25.144531 17.140625 -25.4375 C 16.359375 -26.007812 15.296875 -26.296875 13.953125 -26.296875 C 12.609375 -26.296875 11.597656 -26.195312 10.921875 -26 L 10.921875 -27.90625 Z M 10.921875 -16.609375 L 16.65625 -16.609375 L 16.65625 -12.921875 L 10.921875 -12.921875 Z M 10.921875 -16.609375 "/></g></g></g><g fill="#000000" fill-opacity="1"><g transform="translate(74.439584, 75.952459)"><g><path d="M 13.96875 -8.859375 L 8 -8.859375 L 8.484375 -10.65625 L 13.375 -10.65625 Z M 10.078125 -19.703125 L 5.453125 -5.90625 C 5.046875 -4.738281 4.847656 -3.863281 4.859375 -3.28125 C 4.878906 -2.707031 4.972656 -2.328125 5.140625 -2.140625 C 5.316406 -1.953125 5.539062 -1.816406 5.8125 -1.734375 C 6.082031 -1.660156 6.394531 -1.597656 6.75 -1.546875 C 7.101562 -1.492188 7.460938 -1.378906 7.828125 -1.203125 L 7.828125 0 L -0.703125 0 L -0.703125 -1.203125 C -0.429688 -1.359375 -0.144531 -1.476562 0.15625 -1.5625 C 0.457031 -1.65625 0.742188 -1.765625 1.015625 -1.890625 C 1.660156 -2.171875 2.078125 -2.601562 2.265625 -3.1875 L 8.890625 -22.875 Z M 9.578125 -24.875 C 8.867188 -25.125 8.394531 -25.375 8.15625 -25.625 C 8.175781 -25.90625 8.207031 -26.164062 8.25 -26.40625 C 8.300781 -26.644531 8.347656 -26.882812 8.390625 -27.125 C 8.441406 -27.375 8.492188 -27.578125 8.546875 -27.734375 C 11.035156 -28.253906 12.472656 -28.515625 12.859375 -28.515625 C 13.140625 -28.296875 13.394531 -27.882812 13.625 -27.28125 L 22.25 -3.5 C 22.539062 -2.707031 22.972656 -2.171875 23.546875 -1.890625 C 23.804688 -1.753906 24.082031 -1.644531 24.375 -1.5625 C 24.675781 -1.476562 24.988281 -1.359375 25.3125 -1.203125 L 25.3125 0 L 14.6875 0 L 14.6875 -1.203125 C 14.988281 -1.335938 15.300781 -1.4375 15.625 -1.5 C 15.957031 -1.5625 16.257812 -1.625 16.53125 -1.6875 C 17.132812 -1.832031 17.4375 -2.128906 17.4375 -2.578125 C 17.4375 -2.960938 17.117188 -4.019531 16.484375 -5.75 C 15.859375 -7.476562 15.304688 -9.019531 14.828125 -10.375 C 13.472656 -14.15625 12.148438 -17.9375 10.859375 -21.71875 Z M 9.578125 -24.875 "/></g></g></g><g fill="#000000" fill-opacity="1"><g transform="translate(105.093174, 75.952459)"><g><path d="M 11.78125 -27.90625 C 19.46875 -27.90625 23.3125 -25.585938 23.3125 -20.953125 C 23.3125 -19.066406 22.617188 -17.492188 21.234375 -16.234375 C 19.773438 -14.929688 17.796875 -14.226562 15.296875 -14.125 L 15.296875 -14.046875 C 16.660156 -13.710938 17.710938 -13.023438 18.453125 -11.984375 C 18.847656 -11.429688 19.28125 -10.554688 19.75 -9.359375 C 20.226562 -8.160156 20.601562 -7.207031 20.875 -6.5 C 21.144531 -5.800781 21.421875 -5.171875 21.703125 -4.609375 C 22.316406 -3.335938 22.859375 -2.703125 23.328125 -2.703125 C 23.523438 -2.703125 23.695312 -2.789062 23.84375 -2.96875 C 23.988281 -3.144531 24.128906 -3.347656 24.265625 -3.578125 C 24.671875 -4.140625 25.039062 -4.421875 25.375 -4.421875 C 25.414062 -4.421875 25.503906 -4.382812 25.640625 -4.3125 C 25.785156 -4.238281 25.859375 -4.097656 25.859375 -3.890625 C 25.859375 -3.679688 25.8125 -3.457031 25.71875 -3.21875 C 24.976562 -2.03125 24.414062 -1.253906 24.03125 -0.890625 C 23.21875 -0.0859375 22.316406 0.3125 21.328125 0.3125 C 20.347656 0.3125 19.566406 0.15625 18.984375 -0.15625 C 18.398438 -0.46875 17.910156 -0.890625 17.515625 -1.421875 C 17.117188 -1.953125 16.800781 -2.5625 16.5625 -3.25 C 16.320312 -3.945312 16.101562 -4.675781 15.90625 -5.4375 C 15.71875 -6.195312 15.53125 -6.960938 15.34375 -7.734375 C 15.164062 -8.503906 14.941406 -9.238281 14.671875 -9.9375 C 14.046875 -11.5 13.175781 -12.550781 12.0625 -13.09375 C 11.78125 -13.238281 11.445312 -13.390625 11.0625 -13.546875 L 11.0625 -15.15625 C 14.757812 -15.15625 17.003906 -16.195312 17.796875 -18.28125 C 18.054688 -19 18.1875 -19.851562 18.1875 -20.84375 C 18.1875 -22.601562 17.664062 -23.972656 16.625 -24.953125 C 15.59375 -25.941406 14.007812 -26.4375 11.875 -26.4375 C 11.5 -26.4375 11.226562 -26.414062 11.0625 -26.375 L 11.0625 -27.90625 Z M 9.421875 -4.671875 C 9.421875 -3.804688 9.445312 -3.195312 9.5 -2.84375 C 9.550781 -2.488281 9.671875 -2.234375 9.859375 -2.078125 C 10.054688 -1.921875 10.285156 -1.800781 10.546875 -1.71875 C 10.804688 -1.632812 11.078125 -1.554688 11.359375 -1.484375 C 11.648438 -1.421875 11.921875 -1.3125 12.171875 -1.15625 L 12.171875 0 L 1.765625 0 L 1.765625 -1.15625 C 1.960938 -1.3125 2.195312 -1.421875 2.46875 -1.484375 C 2.75 -1.554688 3.023438 -1.640625 3.296875 -1.734375 C 3.953125 -1.921875 4.316406 -2.285156 4.390625 -2.828125 C 4.472656 -3.378906 4.515625 -4.007812 4.515625 -4.71875 L 4.515625 -23.21875 C 4.515625 -24.664062 4.34375 -25.523438 4 -25.796875 C 3.726562 -26.023438 3.347656 -26.203125 2.859375 -26.328125 C 2.367188 -26.453125 2.003906 -26.59375 1.765625 -26.75 L 1.765625 -27.90625 L 9.421875 -27.90625 Z M 9.421875 -4.671875 "/></g></g></g><g fill="#000000" fill-opacity="1"><g transform="translate(137.454813, 75.952459)"><g><path d="M 20.5625 -26.546875 C 21.03125 -26.546875 21.414062 -26.894531 21.71875 -27.59375 L 23.453125 -27.59375 L 23.453125 -17.765625 L 22.109375 -17.765625 C 21.585938 -18.265625 21.125 -19.082031 20.71875 -20.21875 C 20.3125 -21.351562 19.976562 -22.242188 19.71875 -22.890625 C 19.457031 -23.546875 19.128906 -24.148438 18.734375 -24.703125 C 17.867188 -25.921875 16.671875 -26.632812 15.140625 -26.84375 L 15.140625 -28.453125 C 16.785156 -28.296875 18.367188 -27.75 19.890625 -26.8125 C 20.171875 -26.632812 20.394531 -26.546875 20.5625 -26.546875 Z M 15.140625 -1.28125 C 18.023438 -1.28125 20.070312 -2.71875 21.28125 -5.59375 C 21.707031 -6.59375 22.007812 -7.785156 22.1875 -9.171875 L 24.0625 -8.71875 C 23.65625 -5.664062 22.71875 -3.382812 21.25 -1.875 C 19.78125 -0.363281 17.742188 0.457031 15.140625 0.59375 Z M 13.515625 0.59375 C 9.960938 0.40625 7.109375 -0.988281 4.953125 -3.59375 C 2.773438 -6.226562 1.6875 -9.6875 1.6875 -13.96875 C 1.6875 -18.125 2.8125 -21.570312 5.0625 -24.3125 C 7.28125 -27.007812 10.097656 -28.410156 13.515625 -28.515625 L 13.515625 -26.859375 C 10.617188 -26.585938 8.691406 -24.265625 7.734375 -19.890625 C 7.378906 -18.265625 7.203125 -16.316406 7.203125 -14.046875 C 7.203125 -11.773438 7.378906 -9.882812 7.734375 -8.375 C 8.085938 -6.875 8.5625 -5.632812 9.15625 -4.65625 C 10.226562 -2.832031 11.679688 -1.742188 13.515625 -1.390625 Z M 13.515625 0.59375 "/></g></g></g><g fill="#000000" fill-opacity="1"><g transform="translate(169.423791, 75.952459)"><g><path d="M 19.296875 -23.5625 C 19.296875 -24.53125 19.195312 -25.15625 19 -25.4375 C 18.8125 -25.71875 18.628906 -25.894531 18.453125 -25.96875 C 18.285156 -26.050781 18.101562 -26.128906 17.90625 -26.203125 C 17.269531 -26.378906 16.820312 -26.5625 16.5625 -26.75 L 16.5625 -27.90625 L 26.859375 -27.90625 L 26.859375 -26.75 C 26.503906 -26.59375 26.164062 -26.46875 25.84375 -26.375 C 25.53125 -26.28125 25.25 -26.160156 25 -26.015625 C 24.457031 -25.703125 24.1875 -25.128906 24.1875 -24.296875 L 24.1875 -3.609375 C 24.1875 -2.773438 24.457031 -2.203125 25 -1.890625 C 25.25 -1.742188 25.53125 -1.625 25.84375 -1.53125 C 26.164062 -1.4375 26.503906 -1.3125 26.859375 -1.15625 L 26.859375 0 L 16.5625 0 L 16.5625 -1.15625 C 18.070312 -1.363281 18.945312 -2.066406 19.1875 -3.265625 C 19.257812 -3.648438 19.296875 -4.109375 19.296875 -4.640625 Z M 9.125 -4.453125 C 9.125 -3.023438 9.398438 -2.171875 9.953125 -1.890625 C 10.140625 -1.804688 10.445312 -1.703125 10.875 -1.578125 C 11.300781 -1.453125 11.632812 -1.3125 11.875 -1.15625 L 11.875 0 L 1.59375 0 L 1.59375 -1.15625 C 1.945312 -1.3125 2.28125 -1.4375 2.59375 -1.53125 C 2.90625 -1.625 3.1875 -1.742188 3.4375 -1.890625 C 3.96875 -2.203125 4.234375 -2.773438 4.234375 -3.609375 L 4.234375 -24.296875 C 4.234375 -25.128906 3.96875 -25.703125 3.4375 -26.015625 C 3.1875 -26.160156 2.90625 -26.28125 2.59375 -26.375 C 2.28125 -26.46875 1.945312 -26.59375 1.59375 -26.75 L 1.59375 -27.90625 L 11.875 -27.90625 L 11.875 -26.75 C 11.570312 -26.550781 11.210938 -26.390625 10.796875 -26.265625 C 10.378906 -26.148438 10.085938 -26.050781 9.921875 -25.96875 C 9.765625 -25.882812 9.625 -25.742188 9.5 -25.546875 C 9.25 -25.128906 9.125 -24.40625 9.125 -23.375 Z M 17.671875 -13.625 L 10.765625 -13.625 L 10.765625 -15.4375 L 17.671875 -15.4375 Z M 17.671875 -13.625 "/></g></g></g></svg>