<svg width="45" height="36" viewBox="0 0 45 36" fill="none" xmlns="http://www.w3.org/2000/svg">
<g clip-path="url(#clip0_74_2)">
<mask id="mask0_74_2" style="mask-type:luminance" maskUnits="userSpaceOnUse" x="0" y="20" width="24" height="16">
<path d="M0 20.1738H23.4783V35.9429H0V20.1738Z" fill="white"/>
</mask>
<g mask="url(#mask0_74_2)">
<path d="M22.3761 35.8787H22.3659C17.0432 35.8787 11.8904 34.357 7.85676 31.5947C3.86559 28.8624 1.19406 25.0907 0.332983 20.9684C0.270144 20.6763 0.518105 20.4018 0.881557 20.3515C1.24671 20.3013 1.58978 20.4996 1.65262 20.7904C2.46104 24.664 4.97293 28.2157 8.72802 30.7795C12.5239 33.3774 17.3659 34.8053 22.371 34.8053C22.7396 34.8053 23.047 35.0458 23.047 35.342C23.047 35.6369 22.7515 35.8787 22.3812 35.8787H22.3761Z" fill="#F7FBFC"/>
</g>
<path d="M25.9392 35.6428C25.6182 35.6428 25.3328 35.4567 25.2802 35.1945C25.2207 34.9037 25.4636 34.6279 25.8288 34.5776C30.6759 33.9363 35.1154 31.9254 38.3254 28.9227C41.5726 25.8847 43.3627 22.0083 43.3627 18.0083V17.9703C43.3627 17.6741 43.6633 17.4336 44.0336 17.4336C44.4038 17.4336 44.7044 17.6741 44.7044 17.9703V18.0029C44.7044 22.2651 42.804 26.3915 39.3444 29.6184C35.929 32.8127 31.2092 34.9499 26.0512 35.6374C26.0139 35.6428 25.9765 35.6469 25.9392 35.6469V35.6428Z" fill="#F8FBFC"/>
<path d="M0.696257 18.5611C0.327711 18.5611 0.0270996 18.3206 0.0270996 18.0245V18.0081C0.0270996 13.7541 1.92758 9.63179 5.37527 6.40489C8.78559 3.21195 13.5003 1.07472 18.6531 0.381789C19.0183 0.335593 19.3613 0.529887 19.4242 0.820647C19.487 1.11277 19.2391 1.38722 18.8756 1.4375C14.0336 2.08423 9.60421 4.09375 6.39429 7.09782C3.1521 10.1345 1.36711 14.0081 1.36711 18.0081V18.0245C1.36711 18.3206 1.0665 18.5611 0.696257 18.5611Z" fill="#F7FBFD"/>
<mask id="mask1_74_2" style="mask-type:luminance" maskUnits="userSpaceOnUse" x="21" y="0" width="24" height="16">
<path d="M21.3044 0.115234H44.7827V15.6519H21.3044V0.115234Z" fill="white"/>
</mask>
<g mask="url(#mask1_74_2)">
<path d="M43.7331 15.6501C43.4104 15.6501 43.1302 15.4639 43.0724 15.2017C42.2589 11.3335 39.747 7.79 35.9919 5.2207C32.1961 2.62831 27.354 1.20032 22.3608 1.20032H22.3234C21.9532 1.20032 21.6526 0.959833 21.6526 0.663638C21.6526 0.367442 21.9532 0.126953 22.3234 0.126953H22.3608C27.6767 0.126953 32.8245 1.64733 36.8632 4.40549C40.8544 7.1351 43.5259 10.9028 44.3921 15.021C44.4566 15.3117 44.2069 15.5862 43.8435 15.6378C43.8061 15.6419 43.7688 15.646 43.7331 15.646V15.6501Z" fill="#F9FDFF"/>
</g>
<path d="M22.975 30.3165L20.95 28.3955C19.2 26.7463 17.7542 25.3165 16.6125 24.106C15.4708 22.8955 14.5708 21.8077 13.9125 20.8428C13.2542 19.8779 12.7917 18.9832 12.525 18.1586C12.2583 17.3341 12.125 16.4744 12.125 15.5797C12.125 13.6683 12.7312 12.0719 13.9435 10.7907C15.1557 9.50967 16.6662 8.86914 18.475 8.86914C19.3238 8.86914 20.1319 9.02704 20.8993 9.34282C21.6664 9.65861 22.3583 10.1235 22.975 10.7376C23.5917 10.1235 24.2836 9.65861 25.0508 9.34282C25.8181 9.02704 26.6262 8.86914 27.475 8.86914C29.298 8.86914 30.8204 9.50967 32.0423 10.7907C33.2641 12.0719 33.875 13.6683 33.875 15.5797C33.875 16.4569 33.7458 17.3077 33.4875 18.1323C33.2292 18.9569 32.7667 19.8472 32.1 20.8034C31.4333 21.7595 30.525 22.8472 29.375 24.0665C28.225 25.2858 26.7667 26.7288 25 28.3955L22.975 30.3165ZM22.975 25.8691C24.5417 24.3604 25.8292 23.0884 26.8375 22.0534C27.8458 21.0183 28.6375 20.1148 29.2125 19.3428C29.7875 18.5709 30.1833 17.8941 30.4 17.3126C30.6167 16.731 30.725 16.1535 30.725 15.5802C30.725 14.5974 30.4166 13.7858 29.7998 13.1455C29.1831 12.5051 28.4122 12.1849 27.487 12.1849C26.7623 12.1849 26.0833 12.4174 25.45 12.8823C24.8167 13.3472 24.375 13.9393 24.125 14.6586H21.85C21.6078 13.9393 21.164 13.3472 20.5185 12.8823C19.8728 12.4174 19.1939 12.1849 18.4817 12.1849C17.5727 12.1849 16.8152 12.5051 16.209 13.1455C15.603 13.7858 15.3 14.5972 15.3 15.5797C15.3 16.1719 15.412 16.7684 15.636 17.3689C15.86 17.9696 16.26 18.6549 16.836 19.4249C17.412 20.1948 18.1958 21.0928 19.1875 22.1191C20.1792 23.1455 21.4417 24.3955 22.975 25.8691Z" fill="#E8EAED"/>
</g>
<defs>
<clipPath id="clip0_74_2">
<rect width="45" height="36" fill="white"/>
</clipPath>
</defs>
</svg>
